<mxfile modified="2019-10-16T07:22:31.164Z" host="www.draw.io" agent="Mozilla/5.0 (Windows NT 10.0; Win64; x64) AppleWebKit/537.36 (KHTML, like Gecko) Chrome/77.0.3865.90 Safari/537.36" etag="d4Tsg8zxksh0cNplGUvo" version="12.1.1" type="github" pages="1">
  <diagram id="lFwR9xCJ9hHjlkrv7huP" name="Page-1">
    <mxGraphModel dx="2194" dy="1094" grid="1" gridSize="10" guides="1" tooltips="1" connect="1" arrows="1" fold="1" page="1" pageScale="1" pageWidth="2336" pageHeight="1654" background="none" math="0" shadow="0">
      <root>
        <mxCell id="0"/>
        <mxCell id="1" parent="0"/>
        <mxCell id="T2TZSGgnMwArEX4ejVak-69" value="&lt;div style=&quot;font-family: consolas, &amp;quot;courier new&amp;quot;, monospace; font-size: 8px; line-height: 19px; white-space: pre;&quot;&gt;&lt;span style=&quot;font-size: 8px;&quot;&gt;&lt;font style=&quot;font-size: 8px;&quot;&gt;VFC_IDMS_ProfileController&lt;/font&gt;&lt;/span&gt;&lt;/div&gt;" style="rounded=1;whiteSpace=wrap;html=1;fontSize=8;labelBackgroundColor=none;fillColor=#e1d5e7;strokeColor=#9673a6;align=left;fontStyle=1" parent="1" vertex="1">
          <mxGeometry x="480" y="310" width="120" height="20" as="geometry"/>
        </mxCell>
        <mxCell id="T2TZSGgnMwArEX4ejVak-70" value="&lt;div style=&quot;font-family: &amp;quot;consolas&amp;quot; , &amp;quot;courier new&amp;quot; , monospace ; font-size: 8px ; line-height: 19px ; white-space: pre&quot;&gt;&lt;span style=&quot;font-size: 8px&quot;&gt;Method:getUser&lt;/span&gt;&lt;/div&gt;" style="rounded=0;whiteSpace=wrap;html=1;fontSize=8;labelBackgroundColor=none;fillColor=#d5e8d4;strokeColor=#82b366;gradientColor=#97d077;align=left;fontStyle=1" parent="1" vertex="1">
          <mxGeometry x="480" y="370" width="120" height="20" as="geometry"/>
        </mxCell>
        <mxCell id="T2TZSGgnMwArEX4ejVak-71" value="&lt;font style=&quot;font-size: 6px&quot;&gt;&lt;span style=&quot;font-family: &amp;quot;consolas&amp;quot; , &amp;quot;courier new&amp;quot; , monospace ; white-space: pre&quot;&gt;&lt;font style=&quot;font-size: 6px&quot;&gt;Method:&lt;/font&gt;&lt;/span&gt;&lt;span style=&quot;font-family: &amp;quot;consolas&amp;quot; , &amp;quot;courier new&amp;quot; , monospace ; white-space: pre&quot;&gt;&lt;font style=&quot;font-size: 6px&quot;&gt;VF&lt;/font&gt;C_IDMS_ProfileController&lt;/span&gt;&lt;/font&gt;" style="rounded=0;whiteSpace=wrap;html=1;fontSize=8;labelBackgroundColor=none;fillColor=#f8cecc;strokeColor=#b85450;gradientColor=#ea6b66;align=left;fontStyle=1" parent="1" vertex="1">
          <mxGeometry x="480" y="330" width="120" height="20" as="geometry"/>
        </mxCell>
        <mxCell id="T2TZSGgnMwArEX4ejVak-275" style="edgeStyle=orthogonalEdgeStyle;rounded=1;jumpStyle=arc;orthogonalLoop=1;jettySize=auto;html=1;exitX=1;exitY=0.5;exitDx=0;exitDy=0;entryX=0;entryY=0.75;entryDx=0;entryDy=0;shadow=0;strokeColor=#000000;fontFamily=Lucida Console;fontSize=9;fontColor=#000000;align=left;" parent="1" source="T2TZSGgnMwArEX4ejVak-72" target="T2TZSGgnMwArEX4ejVak-271" edge="1">
          <mxGeometry relative="1" as="geometry">
            <Array as="points">
              <mxPoint x="710" y="360"/>
              <mxPoint x="710" y="517"/>
            </Array>
          </mxGeometry>
        </mxCell>
        <mxCell id="T2TZSGgnMwArEX4ejVak-72" value="&lt;span style=&quot;font-family: &amp;quot;consolas&amp;quot; , &amp;quot;courier new&amp;quot; , monospace ; white-space: pre&quot;&gt;Method:&lt;/span&gt;&lt;span style=&quot;font-family: &amp;quot;consolas&amp;quot; , &amp;quot;courier new&amp;quot; , monospace ; white-space: pre&quot;&gt;callerrorPage&lt;/span&gt;" style="rounded=0;whiteSpace=wrap;html=1;fontSize=8;labelBackgroundColor=none;fillColor=#d5e8d4;strokeColor=#82b366;gradientColor=#97d077;align=left;fontStyle=1" parent="1" vertex="1">
          <mxGeometry x="480" y="350" width="120" height="20" as="geometry"/>
        </mxCell>
        <mxCell id="T2TZSGgnMwArEX4ejVak-277" style="edgeStyle=orthogonalEdgeStyle;rounded=1;jumpStyle=arc;orthogonalLoop=1;jettySize=auto;html=1;exitX=1;exitY=0.5;exitDx=0;exitDy=0;entryX=0;entryY=0.75;entryDx=0;entryDy=0;shadow=0;strokeColor=#000000;fontFamily=Lucida Console;fontSize=9;fontColor=#000000;align=left;fontStyle=0" parent="1" source="T2TZSGgnMwArEX4ejVak-73" target="T2TZSGgnMwArEX4ejVak-254" edge="1">
          <mxGeometry relative="1" as="geometry"/>
        </mxCell>
        <mxCell id="T2TZSGgnMwArEX4ejVak-73" value="&lt;span style=&quot;font-family: &amp;quot;consolas&amp;quot; , &amp;quot;courier new&amp;quot; , monospace ; white-space: pre&quot;&gt;Method:&lt;/span&gt;&lt;span style=&quot;font-family: &amp;quot;consolas&amp;quot; , &amp;quot;courier new&amp;quot; , monospace ; white-space: pre&quot;&gt;save&lt;/span&gt;" style="rounded=0;whiteSpace=wrap;html=1;fontSize=8;labelBackgroundColor=none;fillColor=#d5e8d4;strokeColor=#82b366;gradientColor=#97d077;align=left;fontStyle=1" parent="1" vertex="1">
          <mxGeometry x="480" y="390" width="120" height="20" as="geometry"/>
        </mxCell>
        <mxCell id="T2TZSGgnMwArEX4ejVak-74" value="&lt;div style=&quot;font-family: &amp;quot;consolas&amp;quot; , &amp;quot;courier new&amp;quot; , monospace ; font-size: 8px ; line-height: 19px ; white-space: pre&quot;&gt;&lt;div style=&quot;font-family: &amp;quot;consolas&amp;quot; , &amp;quot;courier new&amp;quot; , monospace ; line-height: 19px ; font-size: 8px&quot;&gt;&lt;span&gt;Method:&lt;/span&gt;&lt;span style=&quot;font-size: 8px&quot;&gt;cancelButton&lt;/span&gt;&lt;/div&gt;&lt;/div&gt;" style="rounded=0;whiteSpace=wrap;html=1;fontSize=8;labelBackgroundColor=none;fillColor=#d5e8d4;strokeColor=#82b366;gradientColor=#97d077;align=left;fontStyle=1" parent="1" vertex="1">
          <mxGeometry x="480" y="410" width="120" height="20" as="geometry"/>
        </mxCell>
        <mxCell id="T2TZSGgnMwArEX4ejVak-75" value="&lt;div style=&quot;font-family: &amp;quot;consolas&amp;quot; , &amp;quot;courier new&amp;quot; , monospace ; font-size: 8px ; line-height: 19px ; white-space: pre&quot;&gt;&lt;div style=&quot;font-family: &amp;quot;consolas&amp;quot; , &amp;quot;courier new&amp;quot; , monospace ; line-height: 19px ; font-size: 8px&quot;&gt;&lt;span&gt;Method:&lt;/span&gt;&lt;span style=&quot;font-size: 8px&quot;&gt;validationEmail&lt;/span&gt;&lt;/div&gt;&lt;/div&gt;" style="rounded=0;whiteSpace=wrap;html=1;fontSize=8;labelBackgroundColor=none;fillColor=#d5e8d4;strokeColor=#82b366;gradientColor=#97d077;align=left;fontStyle=1" parent="1" vertex="1">
          <mxGeometry x="480" y="430" width="120" height="20" as="geometry"/>
        </mxCell>
        <mxCell id="T2TZSGgnMwArEX4ejVak-76" value="&lt;div style=&quot;font-family: &amp;quot;consolas&amp;quot; , &amp;quot;courier new&amp;quot; , monospace ; font-size: 8px ; line-height: 19px ; white-space: pre&quot;&gt;&lt;div style=&quot;font-family: &amp;quot;consolas&amp;quot; , &amp;quot;courier new&amp;quot; , monospace ; line-height: 19px ; font-size: 8px&quot;&gt;&lt;span&gt;Method:&lt;/span&gt;&lt;span style=&quot;font-size: 8px&quot;&gt;brandCustomization&lt;/span&gt;&lt;/div&gt;&lt;/div&gt;" style="rounded=0;whiteSpace=wrap;html=1;fontSize=8;labelBackgroundColor=none;fillColor=#d5e8d4;strokeColor=#82b366;gradientColor=#97d077;align=left;fontStyle=1" parent="1" vertex="1">
          <mxGeometry x="480" y="450" width="120" height="20" as="geometry"/>
        </mxCell>
        <mxCell id="T2TZSGgnMwArEX4ejVak-78" value="" style="edgeStyle=segmentEdgeStyle;endArrow=classic;html=1;fontSize=8;fontColor=#000000;exitX=1;exitY=0.5;exitDx=0;exitDy=0;entryX=0;entryY=0.5;entryDx=0;entryDy=0;fontStyle=0" parent="1" source="T2TZSGgnMwArEX4ejVak-75" target="T2TZSGgnMwArEX4ejVak-77" edge="1">
          <mxGeometry width="50" height="50" relative="1" as="geometry">
            <mxPoint x="570" y="520" as="sourcePoint"/>
            <mxPoint x="610" y="570" as="targetPoint"/>
            <Array as="points">
              <mxPoint x="620" y="440"/>
              <mxPoint x="620" y="646"/>
            </Array>
          </mxGeometry>
        </mxCell>
        <mxCell id="T2TZSGgnMwArEX4ejVak-86" value="" style="edgeStyle=segmentEdgeStyle;endArrow=classic;html=1;fontSize=13;fontColor=#000000;entryX=0;entryY=0.5;entryDx=0;entryDy=0;fontStyle=0" parent="1" target="T2TZSGgnMwArEX4ejVak-83" edge="1">
          <mxGeometry width="50" height="50" relative="1" as="geometry">
            <mxPoint x="600" y="400" as="sourcePoint"/>
            <mxPoint x="650" y="550" as="targetPoint"/>
            <Array as="points">
              <mxPoint x="660" y="400"/>
              <mxPoint x="660" y="618"/>
            </Array>
          </mxGeometry>
        </mxCell>
        <mxCell id="T2TZSGgnMwArEX4ejVak-88" value="" style="edgeStyle=elbowEdgeStyle;elbow=horizontal;endArrow=classic;html=1;strokeColor=#080201;fontSize=13;fontColor=#000000;exitX=1.072;exitY=0.483;exitDx=0;exitDy=0;exitPerimeter=0;entryX=0;entryY=0.5;entryDx=0;entryDy=0;fontStyle=0" parent="1" source="T2TZSGgnMwArEX4ejVak-73" target="T2TZSGgnMwArEX4ejVak-85" edge="1">
          <mxGeometry width="50" height="50" relative="1" as="geometry">
            <mxPoint x="580" y="413.33333333333337" as="sourcePoint"/>
            <mxPoint x="650" y="500" as="targetPoint"/>
            <Array as="points">
              <mxPoint x="670" y="540"/>
              <mxPoint x="630" y="290"/>
            </Array>
          </mxGeometry>
        </mxCell>
        <mxCell id="T2TZSGgnMwArEX4ejVak-89" value="" style="edgeStyle=segmentEdgeStyle;endArrow=classic;html=1;strokeColor=#080201;fontSize=13;fontColor=#000000;exitX=1;exitY=0.5;exitDx=0;exitDy=0;entryX=0;entryY=0;entryDx=0;entryDy=7;entryPerimeter=0;fontStyle=0" parent="1" source="T2TZSGgnMwArEX4ejVak-76" target="T2TZSGgnMwArEX4ejVak-80" edge="1">
          <mxGeometry width="50" height="50" relative="1" as="geometry">
            <mxPoint x="550" y="610" as="sourcePoint"/>
            <mxPoint x="620" y="700" as="targetPoint"/>
            <Array as="points">
              <mxPoint x="610" y="460"/>
              <mxPoint x="610" y="677"/>
            </Array>
          </mxGeometry>
        </mxCell>
        <mxCell id="T2TZSGgnMwArEX4ejVak-90" value="&lt;div style=&quot;font-family: consolas, &amp;quot;courier new&amp;quot;, monospace; font-size: 10px; line-height: 19px; white-space: pre;&quot;&gt;&lt;span style=&quot;font-size: 10px;&quot;&gt;&lt;font style=&quot;font-size: 10px;&quot;&gt;UserProfile.Page&lt;/font&gt;&lt;/span&gt;&lt;/div&gt;" style="rounded=1;whiteSpace=wrap;html=1;fontSize=10;labelBackgroundColor=none;fillColor=#e1d5e7;strokeColor=#9673a6;align=left;fontColor=#000000;" parent="1" vertex="1">
          <mxGeometry x="780" y="230" width="120" height="20" as="geometry"/>
        </mxCell>
        <mxCell id="T2TZSGgnMwArEX4ejVak-91" value="&lt;div style=&quot;font-size: 7px ; line-height: 19px ; white-space: pre&quot;&gt;&lt;div style=&quot;font-size: 7px ; line-height: 19px&quot;&gt;&lt;span style=&quot;font-size: 7px&quot;&gt;Action: &lt;/span&gt;&lt;span style=&quot;font-size: 7px&quot;&gt;usrUpdate&lt;/span&gt;&lt;/div&gt;&lt;/div&gt;" style="rounded=0;whiteSpace=wrap;html=1;fontSize=7;labelBackgroundColor=none;fillColor=#d5e8d4;strokeColor=#82b366;gradientColor=#97d077;align=left;fontColor=#000000;fontFamily=Lucida Console;" parent="1" vertex="1">
          <mxGeometry x="780" y="290" width="120" height="20" as="geometry"/>
        </mxCell>
        <mxCell id="T2TZSGgnMwArEX4ejVak-92" value="&lt;font style=&quot;font-size: 7px;&quot;&gt;&lt;span style=&quot;font-size: 7px; white-space: pre;&quot;&gt;Action: &lt;/span&gt;&lt;/font&gt;&lt;span style=&quot;font-size: 7px; white-space: pre;&quot;&gt;cancelUpdate&lt;/span&gt;" style="rounded=0;whiteSpace=wrap;html=1;fontSize=7;labelBackgroundColor=none;fillColor=#d5e8d4;strokeColor=#82b366;gradientColor=#97d077;align=left;fontFamily=Lucida Console;" parent="1" vertex="1">
          <mxGeometry x="780" y="250" width="120" height="20" as="geometry"/>
        </mxCell>
        <mxCell id="T2TZSGgnMwArEX4ejVak-93" value="&lt;span style=&quot;white-space: pre ; font-size: 7px&quot;&gt;Action: &lt;/span&gt;&lt;span style=&quot;white-space: pre ; font-size: 7px&quot;&gt;validateEmailServ&lt;/span&gt;" style="rounded=0;whiteSpace=wrap;html=1;fontSize=7;labelBackgroundColor=none;fillColor=#d5e8d4;strokeColor=#82b366;gradientColor=#97d077;align=left;fontColor=#000000;fontFamily=Lucida Console;" parent="1" vertex="1">
          <mxGeometry x="780" y="270" width="120" height="20" as="geometry"/>
        </mxCell>
        <mxCell id="T2TZSGgnMwArEX4ejVak-94" value="&lt;span style=&quot;white-space: pre ; font-size: 7px&quot;&gt;Script: serverEmailValidation&lt;/span&gt;" style="rounded=0;whiteSpace=wrap;html=1;fontSize=7;labelBackgroundColor=none;fillColor=#d5e8d4;strokeColor=#82b366;gradientColor=#97d077;align=left;fontColor=#000000;fontFamily=Lucida Console;" parent="1" vertex="1">
          <mxGeometry x="780" y="330" width="120" height="20" as="geometry"/>
        </mxCell>
        <mxCell id="T2TZSGgnMwArEX4ejVak-95" value="&lt;div style=&quot;font-size: 7px; line-height: 19px; white-space: pre;&quot;&gt;&lt;div style=&quot;font-size: 7px; line-height: 19px;&quot;&gt;&lt;span style=&quot;font-size: 7px; white-space: nowrap;&quot;&gt;Script: makeAlert&lt;/span&gt;&lt;br style=&quot;font-size: 7px;&quot;&gt;&lt;/div&gt;&lt;/div&gt;" style="rounded=0;whiteSpace=wrap;html=1;fontSize=7;labelBackgroundColor=none;fillColor=#d5e8d4;strokeColor=#82b366;gradientColor=#97d077;align=left;fontColor=#000000;fontFamily=Lucida Console;" parent="1" vertex="1">
          <mxGeometry x="780" y="310" width="120" height="20" as="geometry"/>
        </mxCell>
        <mxCell id="T2TZSGgnMwArEX4ejVak-96" value="" style="edgeStyle=segmentEdgeStyle;endArrow=classic;html=1;strokeColor=#b85450;fontFamily=Lucida Console;fontSize=7;fontColor=#000000;exitX=0;exitY=0.5;exitDx=0;exitDy=0;gradientColor=#ea6b66;fillColor=#f8cecc;" parent="1" source="T2TZSGgnMwArEX4ejVak-92" edge="1">
          <mxGeometry width="50" height="50" relative="1" as="geometry">
            <mxPoint x="570" y="410" as="sourcePoint"/>
            <mxPoint x="480" y="420" as="targetPoint"/>
            <Array as="points">
              <mxPoint x="450" y="260"/>
              <mxPoint x="450" y="420"/>
            </Array>
          </mxGeometry>
        </mxCell>
        <mxCell id="T2TZSGgnMwArEX4ejVak-97" value="" style="edgeStyle=segmentEdgeStyle;endArrow=classic;html=1;strokeColor=#b85450;fontFamily=Lucida Console;fontSize=7;fontColor=#000000;exitX=0;exitY=0.5;exitDx=0;exitDy=0;entryX=0;entryY=0.5;entryDx=0;entryDy=0;gradientColor=#ea6b66;fillColor=#f8cecc;" parent="1" source="T2TZSGgnMwArEX4ejVak-91" target="T2TZSGgnMwArEX4ejVak-73" edge="1">
          <mxGeometry width="50" height="50" relative="1" as="geometry">
            <mxPoint x="660" y="380" as="sourcePoint"/>
            <mxPoint x="600" y="459.9310344827586" as="targetPoint"/>
            <Array as="points">
              <mxPoint x="470" y="300"/>
              <mxPoint x="470" y="400"/>
            </Array>
          </mxGeometry>
        </mxCell>
        <mxCell id="T2TZSGgnMwArEX4ejVak-98" value="" style="endArrow=classic;startArrow=classic;html=1;strokeColor=#080201;fontFamily=Lucida Console;fontSize=7;fontColor=#000000;exitX=1;exitY=0.5;exitDx=0;exitDy=0;entryX=1;entryY=0.5;entryDx=0;entryDy=0;" parent="1" source="T2TZSGgnMwArEX4ejVak-94" target="T2TZSGgnMwArEX4ejVak-93" edge="1">
          <mxGeometry width="50" height="50" relative="1" as="geometry">
            <mxPoint x="950" y="335" as="sourcePoint"/>
            <mxPoint x="1000" y="285" as="targetPoint"/>
            <Array as="points">
              <mxPoint x="940" y="340"/>
              <mxPoint x="940" y="280"/>
            </Array>
          </mxGeometry>
        </mxCell>
        <mxCell id="T2TZSGgnMwArEX4ejVak-99" value="" style="endArrow=classic;startArrow=classic;html=1;strokeColor=#080201;fontFamily=Lucida Console;fontSize=7;fontColor=#000000;exitX=1;exitY=0.5;exitDx=0;exitDy=0;entryX=1;entryY=0.5;entryDx=0;entryDy=0;" parent="1" source="T2TZSGgnMwArEX4ejVak-95" target="T2TZSGgnMwArEX4ejVak-91" edge="1">
          <mxGeometry width="50" height="50" relative="1" as="geometry">
            <mxPoint x="910" y="350" as="sourcePoint"/>
            <mxPoint x="910" y="290.00000000000006" as="targetPoint"/>
            <Array as="points">
              <mxPoint x="920" y="320"/>
              <mxPoint x="930" y="320"/>
              <mxPoint x="930" y="300"/>
            </Array>
          </mxGeometry>
        </mxCell>
        <mxCell id="T2TZSGgnMwArEX4ejVak-100" value="" style="edgeStyle=segmentEdgeStyle;endArrow=classic;html=1;strokeColor=#b85450;fontFamily=Lucida Console;fontSize=7;fontColor=#000000;exitX=0;exitY=0.5;exitDx=0;exitDy=0;gradientColor=#ea6b66;fillColor=#f8cecc;" parent="1" source="T2TZSGgnMwArEX4ejVak-93" edge="1">
          <mxGeometry width="50" height="50" relative="1" as="geometry">
            <mxPoint x="660" y="360" as="sourcePoint"/>
            <mxPoint x="480" y="440" as="targetPoint"/>
            <Array as="points">
              <mxPoint x="460" y="280"/>
              <mxPoint x="460" y="440"/>
            </Array>
          </mxGeometry>
        </mxCell>
        <mxCell id="T2TZSGgnMwArEX4ejVak-140" value="" style="edgeStyle=elbowEdgeStyle;elbow=horizontal;endArrow=classic;html=1;strokeColor=#080201;fontSize=13;fontColor=#000000;entryX=0;entryY=0.5;entryDx=0;entryDy=0;" parent="1" target="T2TZSGgnMwArEX4ejVak-137" edge="1">
          <mxGeometry width="50" height="50" relative="1" as="geometry">
            <mxPoint x="599" y="340" as="sourcePoint"/>
            <mxPoint x="640" y="440" as="targetPoint"/>
            <Array as="points">
              <mxPoint x="750" y="380"/>
              <mxPoint x="620" y="380"/>
              <mxPoint x="640" y="410"/>
              <mxPoint x="620" y="230"/>
            </Array>
          </mxGeometry>
        </mxCell>
        <mxCell id="T2TZSGgnMwArEX4ejVak-151" value="&lt;span style=&quot;font-family: &amp;quot;helvetica&amp;quot; , &amp;quot;arial&amp;quot; , sans-serif ; font-size: 0px&quot;&gt;%3CmxGraphModel%3E%3Croot%3E%3CmxCell%20id%3D%220%22%2F%3E%3CmxCell%20id%3D%221%22%20parent%3D%220%22%2F%3E%3CmxCell%20id%3D%222%22%20value%3D%22%26lt%3Bfont%20face%3D%26quot%3Bconsolas%2C%20courier%20new%2C%20monospace%26quot%3B%26gt%3B%26lt%3Bspan%20style%3D%26quot%3Bwhite-space%3A%20pre%26quot%3B%26gt%3BAction%3A%20%26lt%3B%2Fspan%26gt%3B%26lt%3B%2Ffont%26gt%3B%26lt%3Bspan%20style%3D%26quot%3Bfont-family%3A%20consolas%2C%20%26amp%3Bquot%3Bcourier%20new%26amp%3Bquot%3B%2C%20monospace%3B%20font-size%3A%208px%3B%20font-weight%3A%20normal%3B%20white-space%3A%20pre%3B%26quot%3B%26gt%3BUpdatePwdinJavascript%26lt%3B%2Fspan%26gt%3B%22%20style%3D%22rounded%3D0%3BwhiteSpace%3Dwrap%3Bhtml%3D1%3BfontSize%3D7%3BlabelBackgroundColor%3Dnone%3BfillColor%3D%23d5e8d4%3BstrokeColor%3D%2382b366%3BgradientColor%3D%2397d077%3Balign%3Dleft%3BfontColor%3D%23000000%3BfontStyle%3D1%3B%22%20vertex%3D%221%22%20parent%3D%221%22%3E%3CmxGeometry%20x%3D%22440%22%20y%3D%22150%22%20width%3D%22130%22%20height%3D%2220%22%20as%3D%22geometry%22%2F%3E%3C%2FmxCell%3E%3CmxCell%20id%3D%223%22%20value%3D%22%26lt%3Bdiv%20style%3D%26quot%3Bfont-family%3A%20%26amp%3Bquot%3Bconsolas%26amp%3Bquot%3B%20%2C%20%26amp%3Bquot%3Bcourier%20new%26amp%3Bquot%3B%20%2C%20monospace%20%3B%20font-size%3A%207px%20%3B%20line-height%3A%2019px%20%3B%20white-space%3A%20pre%26quot%3B%26gt%3B%26lt%3Bdiv%20style%3D%26quot%3Bfont-family%3A%20%26amp%3Bquot%3Bconsolas%26amp%3Bquot%3B%20%2C%20%26amp%3Bquot%3Bcourier%20new%26amp%3Bquot%3B%20%2C%20monospace%20%3B%20font-size%3A%207px%20%3B%20line-height%3A%2019px%26quot%3B%26gt%3B%26lt%3Bdiv%20style%3D%26quot%3Bfont-family%3A%20%26amp%3Bquot%3Bconsolas%26amp%3Bquot%3B%20%2C%20%26amp%3Bquot%3Bcourier%20new%26amp%3Bquot%3B%20%2C%20monospace%20%3B%20line-height%3A%2019px%20%3B%20font-size%3A%207px%26quot%3B%26gt%3B%26lt%3Bdiv%20style%3D%26quot%3Bfont-family%3A%20%26amp%3Bquot%3Bconsolas%26amp%3Bquot%3B%20%2C%20%26amp%3Bquot%3Bcourier%20new%26amp%3Bquot%3B%20%2C%20monospace%20%3B%20line-height%3A%2019px%20%3B%20font-size%3A%207px%26quot%3B%26gt%3B%26lt%3Bdiv%20style%3D%26quot%3Bfont-family%3A%20consolas%2C%20%26amp%3Bquot%3Bcourier%20new%26amp%3Bquot%3B%2C%20monospace%3B%20font-weight%3A%20normal%3B%20font-size%3A%2014px%3B%20line-height%3A%2019px%3B%26quot%3B%26gt%3B%26lt%3Bspan%20style%3D%26quot%3Bfont-size%3A%2010px%3B%26quot%3B%26gt%3BIDMSPasswordUpdate.page%26lt%3B%2Fspan%26gt%3B%26lt%3B%2Fdiv%26gt%3B%26lt%3B%2Fdiv%26gt%3B%26lt%3B%2Fdiv%26gt%3B%26lt%3B%2Fdiv%26gt%3B%26lt%3B%2Fdiv%26gt%3B%22%20style%3D%22rounded%3D1%3BwhiteSpace%3Dwrap%3Bhtml%3D1%3BfontSize%3D7%3BlabelBackgroundColor%3Dnone%3BfillColor%3D%23e1d5e7%3BstrokeColor%3D%239673a6%3Balign%3Dleft%3BfontColor%3D%23000000%3BfontStyle%3D1%3B%22%20vertex%3D%221%22%20parent%3D%221%22%3E%3CmxGeometry%20x%3D%22440%22%20y%3D%22130%22%20width%3D%22130%22%20height%3D%2220%22%20as%3D%22geometry%22%2F%3E%3C%2FmxCell%3E%3CmxCell%20id%3D%224%22%20value%3D%22%26lt%3Bfont%20face%3D%26quot%3Bconsolas%2C%20courier%20new%2C%20monospace%26quot%3B%26gt%3B%26lt%3Bspan%20style%3D%26quot%3Bwhite-space%3A%20pre%26quot%3B%26gt%3BAction%3A%20%26lt%3B%2Fspan%26gt%3B%26lt%3B%2Ffont%26gt%3B%26lt%3Bspan%20style%3D%26quot%3Bfont-family%3A%20consolas%2C%20%26amp%3Bquot%3Bcourier%20new%26amp%3Bquot%3B%2C%20monospace%3B%20font-size%3A%209px%3B%20font-weight%3A%20normal%3B%20white-space%3A%20pre%3B%26quot%3B%26gt%3BcancelUpdateActFun%26lt%3B%2Fspan%26gt%3B%22%20style%3D%22rounded%3D0%3BwhiteSpace%3Dwrap%3Bhtml%3D1%3BfontSize%3D7%3BlabelBackgroundColor%3Dnone%3BfillColor%3D%23d5e8d4%3BstrokeColor%3D%2382b366%3BgradientColor%3D%2397d077%3Balign%3Dleft%3BfontColor%3D%23000000%3BfontStyle%3D1%3B%22%20vertex%3D%221%22%20parent%3D%221%22%3E%3CmxGeometry%20x%3D%22440%22%20y%3D%22170%22%20width%3D%22130%22%20height%3D%2220%22%20as%3D%22geometry%22%2F%3E%3C%2FmxCell%3E%3CmxCell%20id%3D%225%22%20value%3D%22%26lt%3Bfont%20face%3D%26quot%3Bconsolas%2C%20courier%20new%2C%20monospace%26quot%3B%20size%3D%26quot%3B1%26quot%3B%26gt%3B%26lt%3Bspan%20style%3D%26quot%3Bwhite-space%3A%20pre%20%3B%20font-size%3A%209px%26quot%3B%26gt%3BScript%3A%20MakeAlert%26lt%3B%2Fspan%26gt%3B%26lt%3B%2Ffont%26gt%3B%22%20style%3D%22rounded%3D0%3BwhiteSpace%3Dwrap%3Bhtml%3D1%3BfontSize%3D7%3BlabelBackgroundColor%3Dnone%3BfillColor%3D%23d5e8d4%3BstrokeColor%3D%2382b366%3BgradientColor%3D%2397d077%3Balign%3Dleft%3BfontColor%3D%23000000%3BfontStyle%3D1%3B%22%20vertex%3D%221%22%20parent%3D%221%22%3E%3CmxGeometry%20x%3D%22440%22%20y%3D%22190%22%20width%3D%22130%22%20height%3D%2220%22%20as%3D%22geometry%22%2F%3E%3C%2FmxCell%3E%3CmxCell%20id%3D%226%22%20value%3D%22%22%20style%3D%22endArrow%3Dclassic%3BstartArrow%3Dclassic%3Bhtml%3D1%3BstrokeColor%3D%23080201%3BfontFamily%3DLucida%20Console%3BfontSize%3D7%3BfontColor%3D%23000000%3BexitX%3D0%3BexitY%3D0.5%3BexitDx%3D0%3BexitDy%3D0%3BentryX%3D0%3BentryY%3D0.5%3BentryDx%3D0%3BentryDy%3D0%3B%22%20edge%3D%221%22%20source%3D%225%22%20target%3D%222%22%20parent%3D%221%22%3E%3CmxGeometry%20width%3D%2250%22%20height%3D%2250%22%20relative%3D%221%22%20as%3D%22geometry%22%3E%3CmxPoint%20x%3D%22380%22%20y%3D%22200%22%20as%3D%22sourcePoint%22%2F%3E%3CmxPoint%20x%3D%22380%22%20y%3D%22160%22%20as%3D%22targetPoint%22%2F%3E%3CArray%20as%3D%22points%22%3E%3CmxPoint%20x%3D%22410%22%20y%3D%22200%22%2F%3E%3CmxPoint%20x%3D%22410%22%20y%3D%22180%22%2F%3E%3CmxPoint%20x%3D%22410%22%20y%3D%22160%22%2F%3E%3C%2FArray%3E%3C%2FmxGeometry%3E%3C%2FmxCell%3E%3CmxCell%20id%3D%227%22%20value%3D%22%26lt%3Bdiv%20style%3D%26quot%3Bfont-family%3A%20consolas%2C%20%26amp%3Bquot%3Bcourier%20new%26amp%3Bquot%3B%2C%20monospace%3B%20font-size%3A%207px%3B%20line-height%3A%2019px%3B%20white-space%3A%20pre%3B%26quot%3B%26gt%3B%26lt%3Bdiv%20style%3D%26quot%3Bfont-family%3A%20consolas%2C%20%26amp%3Bquot%3Bcourier%20new%26amp%3Bquot%3B%2C%20monospace%3B%20font-size%3A%207px%3B%20line-height%3A%2019px%3B%26quot%3B%26gt%3B%26lt%3Bspan%20style%3D%26quot%3Bfont-size%3A%207px%3B%26quot%3B%26gt%3BVFC_IDMSPasswordUpdate%26lt%3B%2Fspan%26gt%3B%26lt%3B%2Fdiv%26gt%3B%26lt%3B%2Fdiv%26gt%3B%22%20style%3D%22rounded%3D1%3BwhiteSpace%3Dwrap%3Bhtml%3D1%3BfontSize%3D7%3BlabelBackgroundColor%3Dnone%3BfillColor%3D%23e1d5e7%3BstrokeColor%3D%239673a6%3Balign%3Dleft%3BfontColor%3D%23000000%3BfontStyle%3D1%22%20vertex%3D%221%22%20parent%3D%221%22%3E%3CmxGeometry%20x%3D%22630%22%20y%3D%22210%22%20width%3D%22120%22%20height%3D%2220%22%20as%3D%22geometry%22%2F%3E%3C%2FmxCell%3E%3CmxCell%20id%3D%228%22%20value%3D%22%26lt%3Bdiv%20style%3D%26quot%3Bfont-family%3A%20consolas%2C%20%26amp%3Bquot%3Bcourier%20new%26amp%3Bquot%3B%2C%20monospace%3B%20font-size%3A%207px%3B%20line-height%3A%2019px%3B%20white-space%3A%20pre%3B%26quot%3B%26gt%3B%26lt%3Bspan%20style%3D%26quot%3Bfont-size%3A%207px%3B%26quot%3B%26gt%3BMethod%3A%20%26lt%3B%2Fspan%26gt%3B%26lt%3Bspan%20style%3D%26quot%3Bfont-family%3A%20consolas%2C%20%26amp%3Bquot%3Bcourier%20new%26amp%3Bquot%3B%2C%20monospace%3B%20font-size%3A%207px%3B%26quot%3B%26gt%3BfindDomain%26lt%3B%2Fspan%26gt%3B%26lt%3B%2Fdiv%26gt%3B%22%20style%3D%22rounded%3D0%3BwhiteSpace%3Dwrap%3Bhtml%3D1%3BfontSize%3D7%3BlabelBackgroundColor%3Dnone%3BfillColor%3D%23d5e8d4%3BstrokeColor%3D%2382b366%3BgradientColor%3D%2397d077%3Balign%3Dleft%3BfontColor%3D%23000000%3BfontStyle%3D1%22%20vertex%3D%221%22%20parent%3D%221%22%3E%3CmxGeometry%20x%3D%22630%22%20y%3D%22270%22%20width%3D%22120%22%20height%3D%2220%22%20as%3D%22geometry%22%2F%3E%3C%2FmxCell%3E%3CmxCell%20id%3D%229%22%20value%3D%22%26lt%3Bdiv%20style%3D%26quot%3Bfont-family%3A%20consolas%2C%20%26amp%3Bquot%3Bcourier%20new%26amp%3Bquot%3B%2C%20monospace%3B%20font-size%3A%207px%3B%20line-height%3A%2019px%3B%20white-space%3A%20pre%3B%26quot%3B%26gt%3B%26lt%3Bspan%20style%3D%26quot%3Bfont-size%3A%207px%3B%26quot%3B%26gt%3BVFC_IDMSPasswordUpdate%26lt%3B%2Fspan%26gt%3B%26lt%3B%2Fdiv%26gt%3B%22%20style%3D%22rounded%3D0%3BwhiteSpace%3Dwrap%3Bhtml%3D1%3BfontSize%3D7%3BlabelBackgroundColor%3Dnone%3BfillColor%3D%23f8cecc%3BstrokeColor%3D%23b85450%3BgradientColor%3D%23ea6b66%3Balign%3Dleft%3BfontColor%3D%23000000%3BfontStyle%3D1%22%20vertex%3D%221%22%20parent%3D%221%22%3E%3CmxGeometry%20x%3D%22630%22%20y%3D%22230%22%20width%3D%22120%22%20height%3D%2220%22%20as%3D%22geometry%22%2F%3E%3C%2FmxCell%3E%3CmxCell%20id%3D%2210%22%20value%3D%22%26lt%3Bspan%20style%3D%26quot%3Bfont-family%3A%20consolas%2C%20%26amp%3Bquot%3Bcourier%20new%26amp%3Bquot%3B%2C%20monospace%3B%20white-space%3A%20pre%3B%20font-size%3A%207px%3B%26quot%3B%26gt%3BMethod%3A%26lt%3B%2Fspan%26gt%3B%26lt%3Bspan%20style%3D%26quot%3Bfont-family%3A%20consolas%2C%20%26amp%3Bquot%3Bcourier%20new%26amp%3Bquot%3B%2C%20monospace%3B%20white-space%3A%20pre%3B%20font-size%3A%207px%3B%26quot%3B%26gt%3BcallerrorPage%26lt%3B%2Fspan%26gt%3B%22%20style%3D%22rounded%3D0%3BwhiteSpace%3Dwrap%3Bhtml%3D1%3BfontSize%3D7%3BlabelBackgroundColor%3Dnone%3BfillColor%3D%23d5e8d4%3BstrokeColor%3D%2382b366%3BgradientColor%3D%2397d077%3Balign%3Dleft%3BfontColor%3D%23000000%3BfontStyle%3D1%22%20vertex%3D%221%22%20parent%3D%221%22%3E%3CmxGeometry%20x%3D%22630%22%20y%3D%22250%22%20width%3D%22120%22%20height%3D%2220%22%20as%3D%22geometry%22%2F%3E%3C%2FmxCell%3E%3CmxCell%20id%3D%2211%22%20value%3D%22%26lt%3Bspan%20style%3D%26quot%3Bfont-family%3A%20consolas%2C%20%26amp%3Bquot%3Bcourier%20new%26amp%3Bquot%3B%2C%20monospace%3B%20white-space%3A%20pre%3B%20font-size%3A%207px%3B%26quot%3B%26gt%3BMethod%3A%20%26lt%3B%2Fspan%26gt%3B%26lt%3Bspan%20style%3D%26quot%3Bfont-family%3A%20consolas%2C%20%26amp%3Bquot%3Bcourier%20new%26amp%3Bquot%3B%2C%20monospace%3B%20font-size%3A%207px%3B%20white-space%3A%20pre%3B%26quot%3B%26gt%3BupdatePassword%26lt%3B%2Fspan%26gt%3B%22%20style%3D%22rounded%3D0%3BwhiteSpace%3Dwrap%3Bhtml%3D1%3BfontSize%3D7%3BlabelBackgroundColor%3Dnone%3BfillColor%3D%23d5e8d4%3BstrokeColor%3D%2382b366%3BgradientColor%3D%2397d077%3Balign%3Dleft%3BfontColor%3D%23000000%3BfontStyle%3D1%22%20vertex%3D%221%22%20parent%3D%221%22%3E%3CmxGeometry%20x%3D%22630%22%20y%3D%22290%22%20width%3D%22120%22%20height%3D%2220%22%20as%3D%22geometry%22%2F%3E%3C%2FmxCell%3E%3CmxCell%20id%3D%2212%22%20value%3D%22%26lt%3Bdiv%20style%3D%26quot%3Bfont-family%3A%20consolas%2C%20%26amp%3Bquot%3Bcourier%20new%26amp%3Bquot%3B%2C%20monospace%3B%20font-size%3A%207px%3B%20line-height%3A%2019px%3B%20white-space%3A%20pre%3B%26quot%3B%26gt%3B%26lt%3Bdiv%20style%3D%26quot%3Bfont-family%3A%20consolas%2C%20%26amp%3Bquot%3Bcourier%20new%26amp%3Bquot%3B%2C%20monospace%3B%20line-height%3A%2019px%3B%20font-size%3A%207px%3B%26quot%3B%26gt%3B%26lt%3Bspan%20style%3D%26quot%3Bfont-size%3A%207px%3B%26quot%3B%26gt%3BMethod%3A%20%26lt%3B%2Fspan%26gt%3B%26lt%3Bspan%20style%3D%26quot%3Bfont-family%3A%20consolas%2C%20%26amp%3Bquot%3Bcourier%20new%26amp%3Bquot%3B%2C%20monospace%3B%20font-size%3A%207px%3B%26quot%3B%26gt%3BredirectToLogin%26lt%3B%2Fspan%26gt%3B%26lt%3B%2Fdiv%26gt%3B%26lt%3B%2Fdiv%26gt%3B%22%20style%3D%22rounded%3D0%3BwhiteSpace%3Dwrap%3Bhtml%3D1%3BfontSize%3D7%3BlabelBackgroundColor%3Dnone%3BfillColor%3D%23d5e8d4%3BstrokeColor%3D%2382b366%3BgradientColor%3D%2397d077%3Balign%3Dleft%3BfontColor%3D%23000000%3BfontStyle%3D1%22%20vertex%3D%221%22%20parent%3D%221%22%3E%3CmxGeometry%20x%3D%22630%22%20y%3D%22310%22%20width%3D%22120%22%20height%3D%2220%22%20as%3D%22geometry%22%2F%3E%3C%2FmxCell%3E%3CmxCell%20id%3D%2213%22%20value%3D%22%26lt%3Bdiv%20style%3D%26quot%3Bfont-family%3A%20consolas%2C%20%26amp%3Bquot%3Bcourier%20new%26amp%3Bquot%3B%2C%20monospace%3B%20font-size%3A%207px%3B%20line-height%3A%2019px%3B%20white-space%3A%20pre%3B%26quot%3B%26gt%3B%26lt%3Bdiv%20style%3D%26quot%3Bfont-family%3A%20consolas%2C%20%26amp%3Bquot%3Bcourier%20new%26amp%3Bquot%3B%2C%20monospace%3B%20line-height%3A%2019px%3B%20font-size%3A%207px%3B%26quot%3B%26gt%3B%26lt%3Bspan%20style%3D%26quot%3Bfont-size%3A%207px%3B%26quot%3B%26gt%3BRemoteAction%3A%20%26lt%3B%2Fspan%26gt%3B%26lt%3Bspan%20style%3D%26quot%3Bfont-family%3A%20consolas%2C%20%26amp%3Bquot%3Bcourier%20new%26amp%3Bquot%3B%2C%20monospace%3B%20font-size%3A%207px%3B%26quot%3B%26gt%3BprofileRedirect2%26lt%3B%2Fspan%26gt%3B%26lt%3B%2Fdiv%26gt%3B%26lt%3B%2Fdiv%26gt%3B%22%20style%3D%22rounded%3D0%3BwhiteSpace%3Dwrap%3Bhtml%3D1%3BfontSize%3D7%3BlabelBackgroundColor%3Dnone%3BfillColor%3D%23d5e8d4%3BstrokeColor%3D%2382b366%3BgradientColor%3D%2397d077%3Balign%3Dleft%3BfontColor%3D%23000000%3BfontStyle%3D1%22%20vertex%3D%221%22%20parent%3D%221%22%3E%3CmxGeometry%20x%3D%22630%22%20y%3D%22330%22%20width%3D%22120%22%20height%3D%2220%22%20as%3D%22geometry%22%2F%3E%3C%2FmxCell%3E%3CmxCell%20id%3D%2214%22%20value%3D%22%26lt%3Bdiv%20style%3D%26quot%3Bfont-family%3A%20consolas%2C%20%26amp%3Bquot%3Bcourier%20new%26amp%3Bquot%3B%2C%20monospace%3B%20font-size%3A%207px%3B%20line-height%3A%2019px%3B%20white-space%3A%20pre%3B%26quot%3B%26gt%3B%26lt%3Bdiv%20style%3D%26quot%3Bfont-family%3A%20consolas%2C%20%26amp%3Bquot%3Bcourier%20new%26amp%3Bquot%3B%2C%20monospace%3B%20line-height%3A%2019px%3B%20font-size%3A%207px%3B%26quot%3B%26gt%3B%26lt%3Bspan%20style%3D%26quot%3Bfont-size%3A%207px%3B%26quot%3B%26gt%3BMethod%3A%26lt%3B%2Fspan%26gt%3B%26lt%3Bspan%20style%3D%26quot%3Bfont-family%3A%20consolas%2C%20%26amp%3Bquot%3Bcourier%20new%26amp%3Bquot%3B%2C%20monospace%3B%20font-size%3A%207px%3B%26quot%3B%26gt%3BPasswordRedirectLogin%26lt%3B%2Fspan%26gt%3B%26lt%3B%2Fdiv%26gt%3B%26lt%3B%2Fdiv%26gt%3B%22%20style%3D%22rounded%3D0%3BwhiteSpace%3Dwrap%3Bhtml%3D1%3BfontSize%3D7%3BlabelBackgroundColor%3Dnone%3BfillColor%3D%23d5e8d4%3BstrokeColor%3D%2382b366%3BgradientColor%3D%2397d077%3Balign%3Dleft%3BfontColor%3D%23000000%3BfontStyle%3D1%22%20vertex%3D%221%22%20parent%3D%221%22%3E%3CmxGeometry%20x%3D%22630%22%20y%3D%22350%22%20width%3D%22120%22%20height%3D%2220%22%20as%3D%22geometry%22%2F%3E%3C%2FmxCell%3E%3CmxCell%20id%3D%2215%22%20value%3D%22%26lt%3Bdiv%20style%3D%26quot%3Bfont-family%3A%20consolas%2C%20%26amp%3Bquot%3Bcourier%20new%26amp%3Bquot%3B%2C%20monospace%3B%20line-height%3A%2019px%3B%20white-space%3A%20pre%3B%20font-size%3A%207px%3B%26quot%3B%26gt%3B%26lt%3Bdiv%20style%3D%26quot%3Bfont-family%3A%20consolas%2C%20%26amp%3Bquot%3Bcourier%20new%26amp%3Bquot%3B%2C%20monospace%3B%20line-height%3A%2019px%3B%20font-size%3A%207px%3B%26quot%3B%26gt%3BMethod%3A%26lt%3Bfont%20style%3D%26quot%3Bfont-size%3A%207px%3B%26quot%3B%26gt%3B%26lt%3Bspan%20style%3D%26quot%3Bfont-size%3A%207px%3B%26quot%3B%26gt%3B%20%26lt%3B%2Fspan%26gt%3B%26lt%3B%2Ffont%26gt%3B%26lt%3Bspan%20style%3D%26quot%3Bfont-family%3A%20consolas%2C%20%26amp%3Bquot%3Bcourier%20new%26amp%3Bquot%3B%2C%20monospace%3B%20font-size%3A%207px%3B%26quot%3B%26gt%3BerrorMsgProcess%26lt%3B%2Fspan%26gt%3B%26lt%3B%2Fdiv%26gt%3B%26lt%3B%2Fdiv%26gt%3B%22%20style%3D%22rounded%3D0%3BwhiteSpace%3Dwrap%3Bhtml%3D1%3BfontSize%3D7%3BlabelBackgroundColor%3Dnone%3BfillColor%3D%23d5e8d4%3BstrokeColor%3D%2382b366%3BgradientColor%3D%2397d077%3Balign%3Dleft%3BfontColor%3D%23000000%3BfontStyle%3D1%22%20vertex%3D%221%22%20parent%3D%221%22%3E%3CmxGeometry%20x%3D%22630%22%20y%3D%22370%22%20width%3D%22120%22%20height%3D%2220%22%20as%3D%22geometry%22%2F%3E%3C%2FmxCell%3E%3CmxCell%20id%3D%2216%22%20style%3D%22edgeStyle%3DorthogonalEdgeStyle%3Bcurved%3D1%3BorthogonalLoop%3D1%3BjettySize%3Dauto%3Bhtml%3D1%3BexitX%3D0%3BexitY%3D0.5%3BexitDx%3D0%3BexitDy%3D0%3BentryX%3D1%3BentryY%3D0.25%3BentryDx%3D0%3BentryDy%3D0%3BstrokeColor%3D%23080201%3BfontFamily%3DLucida%20Console%3BfontSize%3D8%3BfontColor%3D%23000000%3Balign%3Dleft%3B%22%20edge%3D%221%22%20source%3D%2217%22%20target%3D%2225%22%20parent%3D%221%22%3E%3CmxGeometry%20relative%3D%221%22%20as%3D%22geometry%22%3E%3CArray%20as%3D%22points%22%3E%3CmxPoint%20x%3D%22570%22%20y%3D%22400%22%2F%3E%3CmxPoint%20x%3D%22570%22%20y%3D%22415%22%2F%3E%3C%2FArray%3E%3C%2FmxGeometry%3E%3C%2FmxCell%3E%3CmxCell%20id%3D%2217%22%20value%3D%22%26lt%3Bdiv%20style%3D%26quot%3Bfont-family%3A%20consolas%2C%20%26amp%3Bquot%3Bcourier%20new%26amp%3Bquot%3B%2C%20monospace%3B%20line-height%3A%2019px%3B%20white-space%3A%20pre%3B%20font-size%3A%207px%3B%26quot%3B%26gt%3B%26lt%3Bdiv%20style%3D%26quot%3Bfont-family%3A%20consolas%2C%20%26amp%3Bquot%3Bcourier%20new%26amp%3Bquot%3B%2C%20monospace%3B%20line-height%3A%2019px%3B%20font-size%3A%207px%3B%26quot%3B%26gt%3BMethod%3A%26lt%3Bfont%20style%3D%26quot%3Bfont-size%3A%207px%3B%26quot%3B%26gt%3B%26lt%3Bspan%20style%3D%26quot%3Bfont-size%3A%207px%3B%26quot%3B%26gt%3B%20%26lt%3B%2Fspan%26gt%3B%26lt%3B%2Ffont%26gt%3B%26lt%3Bspan%20style%3D%26quot%3Bfont-family%3A%20consolas%2C%20%26amp%3Bquot%3Bcourier%20new%26amp%3Bquot%3B%2C%20monospace%3B%20font-size%3A%207px%3B%26quot%3B%26gt%3BcancelUpadate%26lt%3B%2Fspan%26gt%3B%26lt%3B%2Fdiv%26gt%3B%26lt%3B%2Fdiv%26gt%3B%22%20style%3D%22rounded%3D0%3BwhiteSpace%3Dwrap%3Bhtml%3D1%3BfontSize%3D7%3BlabelBackgroundColor%3Dnone%3BfillColor%3D%23d5e8d4%3BstrokeColor%3D%2382b366%3BgradientColor%3D%2397d077%3Balign%3Dleft%3BfontColor%3D%23000000%3BfontStyle%3D1%22%20vertex%3D%221%22%20parent%3D%221%22%3E%3CmxGeometry%20x%3D%22630%22%20y%3D%22390%22%20width%3D%22120%22%20height%3D%2220%22%20as%3D%22geometry%22%2F%3E%3C%2FmxCell%3E%3CmxCell%20id%3D%2218%22%20value%3D%22%26lt%3Bdiv%20style%3D%26quot%3Bfont-family%3A%20consolas%2C%20%26amp%3Bquot%3Bcourier%20new%26amp%3Bquot%3B%2C%20monospace%3B%20line-height%3A%2019px%3B%20white-space%3A%20pre%3B%20font-size%3A%207px%3B%26quot%3B%26gt%3B%26lt%3Bdiv%20style%3D%26quot%3Bfont-family%3A%20consolas%2C%20%26amp%3Bquot%3Bcourier%20new%26amp%3Bquot%3B%2C%20monospace%3B%20line-height%3A%2019px%3B%20font-size%3A%207px%3B%26quot%3B%26gt%3BMethod%3A%26lt%3Bfont%20style%3D%26quot%3Bfont-size%3A%207px%3B%26quot%3B%26gt%3B%26lt%3Bspan%20style%3D%26quot%3Bfont-size%3A%207px%3B%26quot%3B%26gt%3B%20%26lt%3B%2Fspan%26gt%3B%26lt%3B%2Ffont%26gt%3B%26lt%3Bspan%20style%3D%26quot%3Bfont-family%3A%20consolas%2C%20%26amp%3Bquot%3Bcourier%20new%26amp%3Bquot%3B%2C%20monospace%3B%20font-size%3A%207px%3B%26quot%3B%26gt%3BinternalUserVal%26lt%3B%2Fspan%26gt%3B%26lt%3B%2Fdiv%26gt%3B%26lt%3B%2Fdiv%26gt%3B%22%20style%3D%22rounded%3D0%3BwhiteSpace%3Dwrap%3Bhtml%3D1%3BfontSize%3D7%3BlabelBackgroundColor%3Dnone%3BfillColor%3D%23d5e8d4%3BstrokeColor%3D%2382b366%3BgradientColor%3D%2397d077%3Balign%3Dleft%3BfontColor%3D%23000000%3BfontStyle%3D1%22%20vertex%3D%221%22%20parent%3D%221%22%3E%3CmxGeometry%20x%3D%22630%22%20y%3D%22410%22%20width%3D%22120%22%20height%3D%2220%22%20as%3D%22geometry%22%2F%3E%3C%2FmxCell%3E%3CmxCell%20id%3D%2219%22%20value%3D%22%26lt%3Bdiv%20style%3D%26quot%3Bfont-family%3A%20consolas%2C%20%26amp%3Bquot%3Bcourier%20new%26amp%3Bquot%3B%2C%20monospace%3B%20font-size%3A%207px%3B%20line-height%3A%2019px%3B%20white-space%3A%20pre%3B%26quot%3B%26gt%3B%26lt%3Bspan%20style%3D%26quot%3Bfont-size%3A%207px%3B%26quot%3B%26gt%3BMethod%3A%20%26lt%3B%2Fspan%26gt%3B%26lt%3Bspan%20style%3D%26quot%3Bfont-family%3A%20consolas%2C%20%26amp%3Bquot%3Bcourier%20new%26amp%3Bquot%3B%2C%20monospace%3B%20font-size%3A%207px%3B%26quot%3B%26gt%3BCheckUimsOldPwd%26lt%3B%2Fspan%26gt%3B%26lt%3B%2Fdiv%26gt%3B%22%20style%3D%22rounded%3D0%3BwhiteSpace%3Dwrap%3Bhtml%3D1%3BfontSize%3D7%3BlabelBackgroundColor%3Dnone%3BfillColor%3D%23d5e8d4%3BstrokeColor%3D%2382b366%3BgradientColor%3D%2397d077%3Balign%3Dleft%3BfontColor%3D%23000000%3BfontStyle%3D1%22%20vertex%3D%221%22%20parent%3D%221%22%3E%3CmxGeometry%20x%3D%22630%22%20y%3D%22450%22%20width%3D%22120%22%20height%3D%2220%22%20as%3D%22geometry%22%2F%3E%3C%2FmxCell%3E%3CmxCell%20id%3D%2220%22%20value%3D%22%26lt%3Bdiv%20style%3D%26quot%3Bfont-family%3A%20consolas%2C%20%26amp%3Bquot%3Bcourier%20new%26amp%3Bquot%3B%2C%20monospace%3B%20font-size%3A%207px%3B%20line-height%3A%2019px%3B%20white-space%3A%20pre%3B%26quot%3B%26gt%3B%26lt%3Bspan%20style%3D%26quot%3Bfont-size%3A%207px%3B%26quot%3B%26gt%3BMethod%3A%20%26lt%3B%2Fspan%26gt%3B%26lt%3Bspan%20style%3D%26quot%3Bfont-family%3A%20consolas%2C%20%26amp%3Bquot%3Bcourier%20new%26amp%3Bquot%3B%2C%20monospace%3B%20font-size%3A%207px%3B%26quot%3B%26gt%3BbrandCustomization%26lt%3B%2Fspan%26gt%3B%26lt%3B%2Fdiv%26gt%3B%22%20style%3D%22rounded%3D0%3BwhiteSpace%3Dwrap%3Bhtml%3D1%3BfontSize%3D7%3BlabelBackgroundColor%3Dnone%3BfillColor%3D%23d5e8d4%3BstrokeColor%3D%2382b366%3BgradientColor%3D%2397d077%3Balign%3Dleft%3BfontColor%3D%23000000%3BfontStyle%3D1%22%20vertex%3D%221%22%20parent%3D%221%22%3E%3CmxGeometry%20x%3D%22630%22%20y%3D%22470%22%20width%3D%22120%22%20height%3D%2220%22%20as%3D%22geometry%22%2F%3E%3C%2FmxCell%3E%3CmxCell%20id%3D%2221%22%20value%3D%22%26lt%3Bdiv%20style%3D%26quot%3Bfont-family%3A%20consolas%2C%20%26amp%3Bquot%3Bcourier%20new%26amp%3Bquot%3B%2C%20monospace%3B%20font-size%3A%207px%3B%20line-height%3A%2019px%3B%20white-space%3A%20pre%3B%26quot%3B%26gt%3B%26lt%3Bspan%20style%3D%26quot%3Bfont-size%3A%207px%3B%26quot%3B%26gt%3BMethod%3A%20%26lt%3B%2Fspan%26gt%3B%26lt%3Bspan%20style%3D%26quot%3Bfont-family%3A%20consolas%2C%20%26amp%3Bquot%3Bcourier%20new%26amp%3Bquot%3B%2C%20monospace%3B%20font-size%3A%207px%3B%26quot%3B%26gt%3Bgetoptns%26lt%3B%2Fspan%26gt%3B%26lt%3B%2Fdiv%26gt%3B%22%20style%3D%22rounded%3D0%3BwhiteSpace%3Dwrap%3Bhtml%3D1%3BfontSize%3D7%3BlabelBackgroundColor%3Dnone%3BfillColor%3D%23d5e8d4%3BstrokeColor%3D%2382b366%3BgradientColor%3D%2397d077%3Balign%3Dleft%3BfontColor%3D%23000000%3BfontStyle%3D1%22%20vertex%3D%221%22%20parent%3D%221%22%3E%3CmxGeometry%20x%3D%22630%22%20y%3D%22430%22%20width%3D%22120%22%20height%3D%2220%22%20as%3D%22geometry%22%2F%3E%3C%2FmxCell%3E%3CmxCell%20id%3D%2222%22%20value%3D%22%22%20style%3D%22edgeStyle%3DsegmentEdgeStyle%3BendArrow%3Dclassic%3Bhtml%3D1%3BstrokeColor%3D%23b85450%3BfontFamily%3DLucida%20Console%3BfontSize%3D7%3BfontColor%3D%23000000%3Balign%3Dleft%3BexitX%3D1%3BexitY%3D0.5%3BexitDx%3D0%3BexitDy%3D0%3BgradientColor%3D%23ea6b66%3BfillColor%3D%23f8cecc%3BentryX%3D1%3BentryY%3D0.5%3BentryDx%3D0%3BentryDy%3D0%3B%22%20edge%3D%221%22%20source%3D%224%22%20target%3D%2217%22%20parent%3D%221%22%3E%3CmxGeometry%20width%3D%2250%22%20height%3D%2250%22%20relative%3D%221%22%20as%3D%22geometry%22%3E%3CmxPoint%20x%3D%22600%22%20y%3D%22270%22%20as%3D%22sourcePoint%22%2F%3E%3CmxPoint%20x%3D%22760%22%20y%3D%22420%22%20as%3D%22targetPoint%22%2F%3E%3CArray%20as%3D%22points%22%3E%3CmxPoint%20x%3D%22820%22%20y%3D%22180%22%2F%3E%3CmxPoint%20x%3D%22820%22%20y%3D%22400%22%2F%3E%3C%2FArray%3E%3C%2FmxGeometry%3E%3C%2FmxCell%3E%3CmxCell%20id%3D%2223%22%20value%3D%22%22%20style%3D%22edgeStyle%3DsegmentEdgeStyle%3BendArrow%3Dclassic%3Bhtml%3D1%3BstrokeColor%3D%23b85450%3BfontFamily%3DLucida%20Console%3BfontSize%3D7%3BfontColor%3D%23000000%3Balign%3Dleft%3BexitX%3D1%3BexitY%3D0.5%3BexitDx%3D0%3BexitDy%3D0%3BgradientColor%3D%23ea6b66%3BfillColor%3D%23f8cecc%3BentryX%3D1%3BentryY%3D0.5%3BentryDx%3D0%3BentryDy%3D0%3B%22%20edge%3D%221%22%20source%3D%222%22%20target%3D%2215%22%20parent%3D%221%22%3E%3CmxGeometry%20width%3D%2250%22%20height%3D%2250%22%20relative%3D%221%22%20as%3D%22geometry%22%3E%3CmxPoint%20x%3D%22590%22%20y%3D%22240%22%20as%3D%22sourcePoint%22%2F%3E%3CmxPoint%20x%3D%22770%22%20y%3D%22380%22%20as%3D%22targetPoint%22%2F%3E%3CArray%20as%3D%22points%22%3E%3CmxPoint%20x%3D%22830%22%20y%3D%22160%22%2F%3E%3CmxPoint%20x%3D%22830%22%20y%3D%22380%22%2F%3E%3C%2FArray%3E%3C%2FmxGeometry%3E%3C%2FmxCell%3E%3CmxCell%20id%3D%2224%22%20value%3D%22%22%20style%3D%22endArrow%3Dclassic%3BstartArrow%3Dclassic%3Bhtml%3D1%3BstrokeColor%3D%23000000%3BfontFamily%3DLucida%20Console%3BfontSize%3D7%3BfontColor%3D%23000000%3Balign%3Dleft%3BentryX%3D1%3BentryY%3D0.5%3BentryDx%3D0%3BentryDy%3D0%3BjumpStyle%3Dgap%3Bdashed%3D1%3BdashPattern%3D1%201%3B%22%20edge%3D%221%22%20target%3D%229%22%20parent%3D%221%22%3E%3CmxGeometry%20width%3D%2250%22%20height%3D%2250%22%20relative%3D%221%22%20as%3D%22geometry%22%3E%3CmxPoint%20x%3D%22750%22%20y%3D%22280%22%20as%3D%22sourcePoint%22%2F%3E%3CmxPoint%20x%3D%22720%22%20y%3D%22280%22%20as%3D%22targetPoint%22%2F%3E%3CArray%20as%3D%22points%22%3E%3CmxPoint%20x%3D%22780%22%20y%3D%22280%22%2F%3E%3CmxPoint%20x%3D%22780%22%20y%3D%22240%22%2F%3E%3C%2FArray%3E%3C%2FmxGeometry%3E%3C%2FmxCell%3E%3CmxCell%20id%3D%2225%22%20value%3D%22%26lt%3Bdiv%20style%3D%26quot%3Bfont-family%3A%20consolas%2C%20%26amp%3Bquot%3Bcourier%20new%26amp%3Bquot%3B%2C%20monospace%3B%20font-size%3A%208px%3B%20line-height%3A%2019px%3B%20white-space%3A%20pre%3B%26quot%3B%26gt%3B%26lt%3Bspan%20style%3D%26quot%3Bfont-size%3A%208px%3B%26quot%3B%26gt%3BMethod%3A%20addCreateUrl%26lt%3B%2Fspan%26gt%3B%26lt%3B%2Fdiv%26gt%3B%22%20style%3D%22rounded%3D0%3BwhiteSpace%3Dwrap%3Bhtml%3D1%3BfontSize%3D8%3BlabelBackgroundColor%3Dnone%3BfillColor%3D%23d5e8d4%3BstrokeColor%3D%2382b366%3BgradientColor%3D%2397d077%3Balign%3Dleft%3BfontColor%3D%23000000%3BfontStyle%3D1%3B%22%20vertex%3D%221%22%20parent%3D%221%22%3E%3CmxGeometry%20x%3D%22400%22%20y%3D%22410%22%20width%3D%22130%22%20height%3D%2220%22%20as%3D%22geometry%22%2F%3E%3C%2FmxCell%3E%3CmxCell%20id%3D%2226%22%20value%3D%22%26lt%3Bdiv%20style%3D%26quot%3Bfont-family%3A%20consolas%2C%20%26amp%3Bquot%3Bcourier%20new%26amp%3Bquot%3B%2C%20monospace%3B%20font-size%3A%208px%3B%20line-height%3A%2019px%3B%20white-space%3A%20pre%3B%26quot%3B%26gt%3B%26lt%3Bdiv%20style%3D%26quot%3Bfont-family%3A%20consolas%2C%20%26amp%3Bquot%3Bcourier%20new%26amp%3Bquot%3B%2C%20monospace%3B%20font-size%3A%208px%3B%20line-height%3A%2019px%3B%26quot%3B%26gt%3B%26lt%3Bdiv%20style%3D%26quot%3Bfont-family%3A%20consolas%2C%20%26amp%3Bquot%3Bcourier%20new%26amp%3Bquot%3B%2C%20monospace%3B%20font-size%3A%208px%3B%20line-height%3A%2019px%3B%26quot%3B%26gt%3B%26lt%3Bspan%20style%3D%26quot%3Bfont-size%3A%208px%3B%26quot%3B%26gt%3BIdmsCreateUrl%26lt%3B%2Fspan%26gt%3B%26lt%3B%2Fdiv%26gt%3B%26lt%3B%2Fdiv%26gt%3B%26lt%3B%2Fdiv%26gt%3B%22%20style%3D%22rounded%3D1%3BwhiteSpace%3Dwrap%3Bhtml%3D1%3BfontSize%3D8%3BlabelBackgroundColor%3Dnone%3BfillColor%3D%23e1d5e7%3BstrokeColor%3D%239673a6%3Balign%3Dleft%3BfontColor%3D%23000000%3BfontStyle%3D1%3B%22%20vertex%3D%221%22%20parent%3D%221%22%3E%3CmxGeometry%20x%3D%22400%22%20y%3D%22390%22%20width%3D%22130%22%20height%3D%2220%22%20as%3D%22geometry%22%2F%3E%3C%2FmxCell%3E%3CmxCell%20id%3D%2227%22%20value%3D%22%22%20style%3D%22edgeStyle%3DsegmentEdgeStyle%3BendArrow%3Dclassic%3Bhtml%3D1%3BstrokeColor%3D%23080201%3BfontFamily%3DLucida%20Console%3BfontSize%3D7%3BfontColor%3D%23000000%3Balign%3Dleft%3BexitX%3D0%3BexitY%3D0.75%3BexitDx%3D0%3BexitDy%3D0%3B%22%20edge%3D%221%22%20source%3D%2213%22%20parent%3D%221%22%3E%3CmxGeometry%20width%3D%2250%22%20height%3D%2250%22%20relative%3D%221%22%20as%3D%22geometry%22%3E%3CmxPoint%20x%3D%22520%22%20y%3D%22380%22%20as%3D%22sourcePoint%22%2F%3E%3CmxPoint%20x%3D%22530.1428571428573%22%20y%3D%22421.57142857142867%22%20as%3D%22targetPoint%22%2F%3E%3CArray%20as%3D%22points%22%3E%3CmxPoint%20x%3D%22580%22%20y%3D%22344%22%2F%3E%3CmxPoint%20x%3D%22580%22%20y%3D%22422%22%2F%3E%3C%2FArray%3E%3C%2FmxGeometry%3E%3C%2FmxCell%3E%3CmxCell%20id%3D%2228%22%20value%3D%22%26lt%3Bdiv%20style%3D%26quot%3Bfont-family%3A%20consolas%2C%20%26amp%3Bquot%3Bcourier%20new%26amp%3Bquot%3B%2C%20monospace%3B%20font-size%3A%208px%3B%20line-height%3A%2019px%3B%20white-space%3A%20pre%3B%26quot%3B%26gt%3B%26lt%3Bspan%20style%3D%26quot%3Bfont-size%3A%208px%3B%26quot%3B%26gt%3BMethod%3A%20%26lt%3B%2Fspan%26gt%3B%26lt%3Bspan%20style%3D%26quot%3Bfont-family%3A%20consolas%2C%20%26amp%3Bquot%3Bcourier%20new%26amp%3Bquot%3B%2C%20monospace%3B%20font-size%3A%208px%3B%26quot%3B%26gt%3BlangParamReplace%26lt%3B%2Fspan%26gt%3B%26lt%3B%2Fdiv%26gt%3B%22%20style%3D%22rounded%3D0%3BwhiteSpace%3Dwrap%3Bhtml%3D1%3BfontSize%3D8%3BlabelBackgroundColor%3Dnone%3BfillColor%3D%23d5e8d4%3BstrokeColor%3D%2382b366%3BgradientColor%3D%2397d077%3Balign%3Dleft%3BfontColor%3D%23000000%3BfontStyle%3D1%3B%22%20vertex%3D%221%22%20parent%3D%221%22%3E%3CmxGeometry%20x%3D%22400%22%20y%3D%22460%22%20width%3D%22130%22%20height%3D%2220%22%20as%3D%22geometry%22%2F%3E%3C%2FmxCell%3E%3CmxCell%20id%3D%2229%22%20value%3D%22%26lt%3Bdiv%20style%3D%26quot%3Bfont-family%3A%20consolas%2C%20%26amp%3Bquot%3Bcourier%20new%26amp%3Bquot%3B%2C%20monospace%3B%20font-size%3A%208px%3B%20line-height%3A%2019px%3B%20white-space%3A%20pre%3B%26quot%3B%26gt%3B%26lt%3Bdiv%20style%3D%26quot%3Bfont-family%3A%20consolas%2C%20%26amp%3Bquot%3Bcourier%20new%26amp%3Bquot%3B%2C%20monospace%3B%20font-size%3A%208px%3B%20line-height%3A%2019px%3B%26quot%3B%26gt%3B%26lt%3Bdiv%20style%3D%26quot%3Bfont-family%3A%20consolas%2C%20%26amp%3Bquot%3Bcourier%20new%26amp%3Bquot%3B%2C%20monospace%3B%20font-size%3A%208px%3B%20line-height%3A%2019px%3B%26quot%3B%26gt%3B%26lt%3Bdiv%20style%3D%26quot%3Bfont-family%3A%20consolas%2C%20%26amp%3Bquot%3Bcourier%20new%26amp%3Bquot%3B%2C%20monospace%3B%20line-height%3A%2019px%3B%20font-size%3A%208px%3B%26quot%3B%26gt%3B%26lt%3Bspan%20style%3D%26quot%3Bfont-size%3A%208px%3B%26quot%3B%26gt%3BAP_IDMSPRMLoginParams%26lt%3B%2Fspan%26gt%3B%26lt%3B%2Fdiv%26gt%3B%26lt%3B%2Fdiv%26gt%3B%26lt%3B%2Fdiv%26gt%3B%26lt%3B%2Fdiv%26gt%3B%22%20style%3D%22rounded%3D1%3BwhiteSpace%3Dwrap%3Bhtml%3D1%3BfontSize%3D8%3BlabelBackgroundColor%3Dnone%3BfillColor%3D%23e1d5e7%3BstrokeColor%3D%239673a6%3Balign%3Dleft%3BfontColor%3D%23000000%3BfontStyle%3D1%3B%22%20vertex%3D%221%22%20parent%3D%221%22%3E%3CmxGeometry%20x%3D%22400%22%20y%3D%22440%22%20width%3D%22130%22%20height%3D%2220%22%20as%3D%22geometry%22%2F%3E%3C%2FmxCell%3E%3CmxCell%20id%3D%2230%22%20value%3D%22%26lt%3Bdiv%20style%3D%26quot%3Bfont-family%3A%20consolas%2C%20%26amp%3Bquot%3Bcourier%20new%26amp%3Bquot%3B%2C%20monospace%3B%20font-size%3A%208px%3B%20line-height%3A%2019px%3B%20white-space%3A%20pre%3B%26quot%3B%26gt%3B%26lt%3Bspan%20style%3D%26quot%3Bfont-size%3A%208px%3B%26quot%3B%26gt%3BMethod%3A%20%26lt%3B%2Fspan%26gt%3B%26lt%3Bspan%20style%3D%26quot%3Bfont-family%3A%20consolas%2C%20%26amp%3Bquot%3Bcourier%20new%26amp%3Bquot%3B%2C%20monospace%3B%20font-size%3A%208px%3B%26quot%3B%26gt%3BCheckPasswordUIMS%26lt%3B%2Fspan%26gt%3B%26lt%3B%2Fdiv%26gt%3B%22%20style%3D%22rounded%3D0%3BwhiteSpace%3Dwrap%3Bhtml%3D1%3BfontSize%3D8%3BlabelBackgroundColor%3Dnone%3BfillColor%3D%23d5e8d4%3BstrokeColor%3D%2382b366%3BgradientColor%3D%2397d077%3Balign%3Dleft%3BfontColor%3D%23000000%3BfontStyle%3D1%3B%22%20vertex%3D%221%22%20parent%3D%221%22%3E%3CmxGeometry%20x%3D%22400%22%20y%3D%22510%22%20width%3D%22130%22%20height%3D%2220%22%20as%3D%22geometry%22%2F%3E%3C%2FmxCell%3E%3CmxCell%20id%3D%2231%22%20value%3D%22%26lt%3Bdiv%20style%3D%26quot%3Bfont-family%3A%20consolas%2C%20%26amp%3Bquot%3Bcourier%20new%26amp%3Bquot%3B%2C%20monospace%3B%20font-size%3A%208px%3B%20line-height%3A%2019px%3B%20white-space%3A%20pre%3B%26quot%3B%26gt%3B%26lt%3Bdiv%20style%3D%26quot%3Bfont-family%3A%20consolas%2C%20%26amp%3Bquot%3Bcourier%20new%26amp%3Bquot%3B%2C%20monospace%3B%20font-size%3A%208px%3B%20line-height%3A%2019px%3B%26quot%3B%26gt%3B%26lt%3Bdiv%20style%3D%26quot%3Bfont-family%3A%20consolas%2C%20%26amp%3Bquot%3Bcourier%20new%26amp%3Bquot%3B%2C%20monospace%3B%20font-size%3A%208px%3B%20line-height%3A%2019px%3B%26quot%3B%26gt%3B%26lt%3Bdiv%20style%3D%26quot%3Bfont-family%3A%20consolas%2C%20%26amp%3Bquot%3Bcourier%20new%26amp%3Bquot%3B%2C%20monospace%3B%20line-height%3A%2019px%3B%20font-size%3A%208px%3B%26quot%3B%26gt%3B%26lt%3Bspan%20style%3D%26quot%3Bfont-size%3A%208px%3B%26quot%3B%26gt%3BVFC_IDMS_Consumer_SocialLogin%26lt%3B%2Fspan%26gt%3B%26lt%3B%2Fdiv%26gt%3B%26lt%3B%2Fdiv%26gt%3B%26lt%3B%2Fdiv%26gt%3B%26lt%3B%2Fdiv%26gt%3B%22%20style%3D%22rounded%3D1%3BwhiteSpace%3Dwrap%3Bhtml%3D1%3BfontSize%3D8%3BlabelBackgroundColor%3Dnone%3BfillColor%3D%23e1d5e7%3BstrokeColor%3D%239673a6%3Balign%3Dleft%3BfontColor%3D%23000000%3BfontStyle%3D1%3B%22%20vertex%3D%221%22%20parent%3D%221%22%3E%3CmxGeometry%20x%3D%22400%22%20y%3D%22490%22%20width%3D%22130%22%20height%3D%2220%22%20as%3D%22geometry%22%2F%3E%3C%2FmxCell%3E%3CmxCell%20id%3D%2232%22%20value%3D%22%22%20style%3D%22edgeStyle%3DsegmentEdgeStyle%3BendArrow%3Dclassic%3Bhtml%3D1%3BstrokeColor%3D%23080201%3BfontFamily%3DLucida%20Console%3BfontSize%3D7%3BfontColor%3D%23000000%3Balign%3Dleft%3B%22%20edge%3D%221%22%20parent%3D%221%22%3E%3CmxGeometry%20width%3D%2250%22%20height%3D%2250%22%20relative%3D%221%22%20as%3D%22geometry%22%3E%3CmxPoint%20x%3D%22630.1428571428573%22%20y%3D%22360.1428571428572%22%20as%3D%22sourcePoint%22%2F%3E%3CmxPoint%20x%3D%22530.1428571428573%22%20y%3D%22470.1428571428572%22%20as%3D%22targetPoint%22%2F%3E%3CArray%20as%3D%22points%22%3E%3CmxPoint%20x%3D%22590%22%20y%3D%22360%22%2F%3E%3CmxPoint%20x%3D%22590%22%20y%3D%22470%22%2F%3E%3CmxPoint%20x%3D%22530%22%20y%3D%22470%22%2F%3E%3C%2FArray%3E%3C%2FmxGeometry%3E%3C%2FmxCell%3E%3CmxCell%20id%3D%2233%22%20value%3D%22%22%20style%3D%22endArrow%3Dclassic%3BstartArrow%3Dclassic%3Bhtml%3D1%3BstrokeColor%3D%23000000%3BfontFamily%3DLucida%20Console%3BfontSize%3D7%3BfontColor%3D%23000000%3Balign%3Dleft%3BentryX%3D1%3BentryY%3D0.5%3BentryDx%3D0%3BentryDy%3D0%3BexitX%3D1%3BexitY%3D0.5%3BexitDx%3D0%3BexitDy%3D0%3BjumpStyle%3Dgap%3Bdashed%3D1%3BdashPattern%3D1%201%3B%22%20edge%3D%221%22%20source%3D%2215%22%20target%3D%2211%22%20parent%3D%221%22%3E%3CmxGeometry%20width%3D%2250%22%20height%3D%2250%22%20relative%3D%221%22%20as%3D%22geometry%22%3E%3CmxPoint%20x%3D%22760%22%20y%3D%22360%22%20as%3D%22sourcePoint%22%2F%3E%3CmxPoint%20x%3D%22760%22%20y%3D%22320%22%20as%3D%22targetPoint%22%2F%3E%3CArray%20as%3D%22points%22%3E%3CmxPoint%20x%3D%22790%22%20y%3D%22370%22%2F%3E%3CmxPoint%20x%3D%22790%22%20y%3D%22300%22%2F%3E%3C%2FArray%3E%3C%2FmxGeometry%3E%3C%2FmxCell%3E%3CmxCell%20id%3D%2234%22%20value%3D%22%22%20style%3D%22edgeStyle%3DsegmentEdgeStyle%3BendArrow%3Dclassic%3Bhtml%3D1%3BstrokeColor%3D%23080201%3BfontFamily%3DLucida%20Console%3BfontSize%3D7%3BfontColor%3D%23000000%3Balign%3Dleft%3BexitX%3D0%3BexitY%3D0.5%3BexitDx%3D0%3BexitDy%3D0%3BentryX%3D1%3BentryY%3D0.5%3BentryDx%3D0%3BentryDy%3D0%3B%22%20edge%3D%221%22%20source%3D%2219%22%20target%3D%2230%22%20parent%3D%221%22%3E%3CmxGeometry%20width%3D%2250%22%20height%3D%2250%22%20relative%3D%221%22%20as%3D%22geometry%22%3E%3CmxPoint%20x%3D%22640%22%20y%3D%22370.16666666666674%22%20as%3D%22sourcePoint%22%2F%3E%3CmxPoint%20x%3D%22540%22%20y%3D%22480.16666666666674%22%20as%3D%22targetPoint%22%2F%3E%3CArray%20as%3D%22points%22%3E%3CmxPoint%20x%3D%22600%22%20y%3D%22460%22%2F%3E%3CmxPoint%20x%3D%22600%22%20y%3D%22520%22%2F%3E%3C%2FArray%3E%3C%2FmxGeometry%3E%3C%2FmxCell%3E%3CmxCell%20id%3D%2235%22%20value%3D%22%26lt%3Bdiv%20style%3D%26quot%3Bfont-family%3A%20consolas%2C%20%26amp%3Bquot%3Bcourier%20new%26amp%3Bquot%3B%2C%20monospace%3B%20font-size%3A%208px%3B%20line-height%3A%2019px%3B%20white-space%3A%20pre%3B%26quot%3B%26gt%3B%26lt%3Bspan%20style%3D%26quot%3Bfont-size%3A%208px%3B%26quot%3B%26gt%3BMethod%3A%20%26lt%3B%2Fspan%26gt%3B%26lt%3Bspan%20style%3D%26quot%3Bfont-family%3A%20consolas%2C%20%26amp%3Bquot%3Bcourier%20new%26amp%3Bquot%3B%2C%20monospace%3B%20font-size%3A%208px%3B%20font-weight%3A%20normal%3B%26quot%3B%26gt%3BgetIDMSLanguageCode%26lt%3B%2Fspan%26gt%3B%26lt%3B%2Fdiv%26gt%3B%22%20style%3D%22rounded%3D0%3BwhiteSpace%3Dwrap%3Bhtml%3D1%3BfontSize%3D8%3BlabelBackgroundColor%3Dnone%3BfillColor%3D%23d5e8d4%3BstrokeColor%3D%2382b366%3BgradientColor%3D%2397d077%3Balign%3Dleft%3BfontColor%3D%23000000%3BfontStyle%3D1%3B%22%20vertex%3D%221%22%20parent%3D%221%22%3E%3CmxGeometry%20x%3D%22400%22%20y%3D%22360%22%20width%3D%22130%22%20height%3D%2220%22%20as%3D%22geometry%22%2F%3E%3C%2FmxCell%3E%3CmxCell%20id%3D%2236%22%20value%3D%22%26lt%3Bdiv%20style%3D%26quot%3Bfont-family%3A%20consolas%2C%20%26amp%3Bquot%3Bcourier%20new%26amp%3Bquot%3B%2C%20monospace%3B%20font-size%3A%208px%3B%20line-height%3A%2019px%3B%20white-space%3A%20pre%3B%26quot%3B%26gt%3B%26lt%3Bdiv%20style%3D%26quot%3Bfont-family%3A%20consolas%2C%20%26amp%3Bquot%3Bcourier%20new%26amp%3Bquot%3B%2C%20monospace%3B%20font-size%3A%208px%3B%20line-height%3A%2019px%3B%26quot%3B%26gt%3B%26lt%3Bdiv%20style%3D%26quot%3Bfont-family%3A%20consolas%2C%20%26amp%3Bquot%3Bcourier%20new%26amp%3Bquot%3B%2C%20monospace%3B%20font-size%3A%208px%3B%20line-height%3A%2019px%3B%26quot%3B%26gt%3B%26lt%3Bdiv%20style%3D%26quot%3Bfont-family%3A%20consolas%2C%20%26amp%3Bquot%3Bcourier%20new%26amp%3Bquot%3B%2C%20monospace%3B%20line-height%3A%2019px%3B%20font-size%3A%208px%3B%26quot%3B%26gt%3B%26lt%3Bdiv%20style%3D%26quot%3Bfont-family%3A%20consolas%2C%20%26amp%3Bquot%3Bcourier%20new%26amp%3Bquot%3B%2C%20monospace%3B%20font-weight%3A%20normal%3B%20font-size%3A%208px%3B%20line-height%3A%2019px%3B%26quot%3B%26gt%3B%26lt%3Bspan%20style%3D%26quot%3Bfont-size%3A%208px%3B%26quot%3B%26gt%3BIDMS_LanguageMatrixImpl%26lt%3B%2Fspan%26gt%3B%26lt%3B%2Fdiv%26gt%3B%26lt%3B%2Fdiv%26gt%3B%26lt%3B%2Fdiv%26gt%3B%26lt%3B%2Fdiv%26gt%3B%26lt%3B%2Fdiv%26gt%3B%22%20style%3D%22rounded%3D1%3BwhiteSpace%3Dwrap%3Bhtml%3D1%3BfontSize%3D8%3BlabelBackgroundColor%3Dnone%3BfillColor%3D%23e1d5e7%3BstrokeColor%3D%239673a6%3Balign%3Dleft%3BfontColor%3D%23000000%3BfontStyle%3D1%3B%22%20vertex%3D%221%22%20parent%3D%221%22%3E%3CmxGeometry%20x%3D%22400%22%20y%3D%22340%22%20width%3D%22130%22%20height%3D%2220%22%20as%3D%22geometry%22%2F%3E%3C%2FmxCell%3E%3CmxCell%20id%3D%2237%22%20value%3D%22%22%20style%3D%22edgeStyle%3DsegmentEdgeStyle%3BendArrow%3Dclassic%3Bhtml%3D1%3BstrokeColor%3D%23080201%3BfontFamily%3DLucida%20Console%3BfontSize%3D7%3BfontColor%3D%23000000%3Balign%3Dleft%3BexitX%3D0%3BexitY%3D0.5%3BexitDx%3D0%3BexitDy%3D0%3BentryX%3D1%3BentryY%3D0.25%3BentryDx%3D0%3BentryDy%3D0%3B%22%20edge%3D%221%22%20source%3D%229%22%20target%3D%2235%22%20parent%3D%221%22%3E%3CmxGeometry%20width%3D%2250%22%20height%3D%2250%22%20relative%3D%221%22%20as%3D%22geometry%22%3E%3CmxPoint%20x%3D%22640.1428571428573%22%20y%3D%22244.42857142857144%22%20as%3D%22sourcePoint%22%2F%3E%3CmxPoint%20x%3D%22540.1428571428573%22%20y%3D%22321.57142857142867%22%20as%3D%22targetPoint%22%2F%3E%3CArray%20as%3D%22points%22%3E%3CmxPoint%20x%3D%22620%22%20y%3D%22240%22%2F%3E%3CmxPoint%20x%3D%22620%22%20y%3D%22330%22%2F%3E%3CmxPoint%20x%3D%22550%22%20y%3D%22330%22%2F%3E%3CmxPoint%20x%3D%22550%22%20y%3D%22365%22%2F%3E%3C%2FArray%3E%3C%2FmxGeometry%3E%3C%2FmxCell%3E%3CmxCell%20id%3D%2238%22%20value%3D%22%22%20style%3D%22endArrow%3Dclassic%3BstartArrow%3Dclassic%3Bhtml%3D1%3BstrokeColor%3D%23000000%3BfontFamily%3DLucida%20Console%3BfontSize%3D7%3BfontColor%3D%23000000%3Balign%3Dleft%3BentryX%3D1%3BentryY%3D0.5%3BentryDx%3D0%3BentryDy%3D0%3BexitX%3D1%3BexitY%3D0.5%3BexitDx%3D0%3BexitDy%3D0%3BjumpStyle%3Dgap%3Bdashed%3D1%3BdashPattern%3D1%201%3B%22%20edge%3D%221%22%20source%3D%2220%22%20target%3D%229%22%20parent%3D%221%22%3E%3CmxGeometry%20width%3D%2250%22%20height%3D%2250%22%20relative%3D%221%22%20as%3D%22geometry%22%3E%3CmxPoint%20x%3D%22760%22%20y%3D%22390%22%20as%3D%22sourcePoint%22%2F%3E%3CmxPoint%20x%3D%22760%22%20y%3D%22310%22%20as%3D%22targetPoint%22%2F%3E%3CArray%20as%3D%22points%22%3E%3CmxPoint%20x%3D%22800%22%20y%3D%22470%22%2F%3E%3CmxPoint%20x%3D%22800%22%20y%3D%22380%22%2F%3E%3CmxPoint%20x%3D%22800%22%20y%3D%22310%22%2F%3E%3CmxPoint%20x%3D%22800%22%20y%3D%22250%22%2F%3E%3C%2FArray%3E%3C%2FmxGeometry%3E%3C%2FmxCell%3E%3C%2Froot%3E%3C%2FmxGraphModel%3E&lt;/span&gt;" style="text;html=1;resizable=0;points=[];autosize=1;align=left;verticalAlign=top;spacingTop=-4;fontSize=8;fontFamily=Lucida Console;fontColor=#000000;fontStyle=0" parent="1" vertex="1">
          <mxGeometry x="893" y="712" width="20" height="10" as="geometry"/>
        </mxCell>
        <mxCell id="T2TZSGgnMwArEX4ejVak-189" value="&lt;font face=&quot;consolas, courier new, monospace&quot;&gt;&lt;span style=&quot;white-space: pre&quot;&gt;Action: &lt;/span&gt;&lt;/font&gt;&lt;span style=&quot;font-family: consolas, &amp;quot;courier new&amp;quot;, monospace; font-size: 8px; font-weight: normal; white-space: pre;&quot;&gt;UpdatePwdinJavascript&lt;/span&gt;" style="rounded=0;whiteSpace=wrap;html=1;fontSize=7;labelBackgroundColor=none;fillColor=#d5e8d4;strokeColor=#82b366;gradientColor=#97d077;align=left;fontColor=#000000;fontStyle=1;" parent="1" vertex="1">
          <mxGeometry x="1040" y="260" width="130" height="20" as="geometry"/>
        </mxCell>
        <mxCell id="T2TZSGgnMwArEX4ejVak-190" value="&lt;div style=&quot;font-family: &amp;quot;consolas&amp;quot; , &amp;quot;courier new&amp;quot; , monospace ; font-size: 7px ; line-height: 19px ; white-space: pre&quot;&gt;&lt;div style=&quot;font-family: &amp;quot;consolas&amp;quot; , &amp;quot;courier new&amp;quot; , monospace ; font-size: 7px ; line-height: 19px&quot;&gt;&lt;div style=&quot;font-family: &amp;quot;consolas&amp;quot; , &amp;quot;courier new&amp;quot; , monospace ; line-height: 19px ; font-size: 7px&quot;&gt;&lt;div style=&quot;font-family: &amp;quot;consolas&amp;quot; , &amp;quot;courier new&amp;quot; , monospace ; line-height: 19px ; font-size: 7px&quot;&gt;&lt;div style=&quot;font-family: consolas, &amp;quot;courier new&amp;quot;, monospace; font-weight: normal; font-size: 14px; line-height: 19px;&quot;&gt;&lt;span style=&quot;font-size: 10px;&quot;&gt;IDMSPasswordUpdate.page&lt;/span&gt;&lt;/div&gt;&lt;/div&gt;&lt;/div&gt;&lt;/div&gt;&lt;/div&gt;" style="rounded=1;whiteSpace=wrap;html=1;fontSize=7;labelBackgroundColor=none;fillColor=#e1d5e7;strokeColor=#9673a6;align=left;fontColor=#000000;fontStyle=1;" parent="1" vertex="1">
          <mxGeometry x="1040" y="240" width="130" height="20" as="geometry"/>
        </mxCell>
        <mxCell id="T2TZSGgnMwArEX4ejVak-191" value="&lt;font face=&quot;consolas, courier new, monospace&quot;&gt;&lt;span style=&quot;white-space: pre&quot;&gt;Action: &lt;/span&gt;&lt;/font&gt;&lt;span style=&quot;font-family: consolas, &amp;quot;courier new&amp;quot;, monospace; font-size: 9px; font-weight: normal; white-space: pre;&quot;&gt;cancelUpdateActFun&lt;/span&gt;" style="rounded=0;whiteSpace=wrap;html=1;fontSize=7;labelBackgroundColor=none;fillColor=#d5e8d4;strokeColor=#82b366;gradientColor=#97d077;align=left;fontColor=#000000;fontStyle=1;" parent="1" vertex="1">
          <mxGeometry x="1040" y="280" width="130" height="20" as="geometry"/>
        </mxCell>
        <mxCell id="T2TZSGgnMwArEX4ejVak-192" value="&lt;font face=&quot;consolas, courier new, monospace&quot; size=&quot;1&quot;&gt;&lt;span style=&quot;white-space: pre ; font-size: 9px&quot;&gt;Script: MakeAlert&lt;/span&gt;&lt;/font&gt;" style="rounded=0;whiteSpace=wrap;html=1;fontSize=7;labelBackgroundColor=none;fillColor=#d5e8d4;strokeColor=#82b366;gradientColor=#97d077;align=left;fontColor=#000000;fontStyle=1;" parent="1" vertex="1">
          <mxGeometry x="1040" y="300" width="130" height="20" as="geometry"/>
        </mxCell>
        <mxCell id="T2TZSGgnMwArEX4ejVak-193" value="" style="endArrow=classic;startArrow=classic;html=1;strokeColor=#080201;fontFamily=Lucida Console;fontSize=7;fontColor=#000000;exitX=0;exitY=0.5;exitDx=0;exitDy=0;entryX=0;entryY=0.5;entryDx=0;entryDy=0;" parent="1" source="T2TZSGgnMwArEX4ejVak-192" target="T2TZSGgnMwArEX4ejVak-189" edge="1">
          <mxGeometry width="50" height="50" relative="1" as="geometry">
            <mxPoint x="980" y="310" as="sourcePoint"/>
            <mxPoint x="980" y="270" as="targetPoint"/>
            <Array as="points">
              <mxPoint x="1010" y="310"/>
              <mxPoint x="1010" y="290"/>
              <mxPoint x="1010" y="270"/>
            </Array>
          </mxGeometry>
        </mxCell>
        <mxCell id="T2TZSGgnMwArEX4ejVak-194" value="&lt;div style=&quot;font-family: consolas, &amp;quot;courier new&amp;quot;, monospace; font-size: 7px; line-height: 19px; white-space: pre;&quot;&gt;&lt;div style=&quot;font-family: consolas, &amp;quot;courier new&amp;quot;, monospace; font-size: 7px; line-height: 19px;&quot;&gt;&lt;span style=&quot;font-size: 7px;&quot;&gt;VFC_IDMSPasswordUpdate&lt;/span&gt;&lt;/div&gt;&lt;/div&gt;" style="rounded=1;whiteSpace=wrap;html=1;fontSize=7;labelBackgroundColor=none;fillColor=#e1d5e7;strokeColor=#9673a6;align=left;fontColor=#000000;fontStyle=1" parent="1" vertex="1">
          <mxGeometry x="1330" y="300" width="120" height="20" as="geometry"/>
        </mxCell>
        <mxCell id="T2TZSGgnMwArEX4ejVak-195" value="&lt;div style=&quot;font-family: consolas, &amp;quot;courier new&amp;quot;, monospace; font-size: 7px; line-height: 19px; white-space: pre;&quot;&gt;&lt;span style=&quot;font-size: 7px;&quot;&gt;Method: &lt;/span&gt;&lt;span style=&quot;font-family: consolas, &amp;quot;courier new&amp;quot;, monospace; font-size: 7px;&quot;&gt;findDomain&lt;/span&gt;&lt;/div&gt;" style="rounded=0;whiteSpace=wrap;html=1;fontSize=7;labelBackgroundColor=none;fillColor=#d5e8d4;strokeColor=#82b366;gradientColor=#97d077;align=left;fontColor=#000000;fontStyle=1" parent="1" vertex="1">
          <mxGeometry x="1330" y="380" width="120" height="20" as="geometry"/>
        </mxCell>
        <mxCell id="T2TZSGgnMwArEX4ejVak-196" value="&lt;div style=&quot;font-family: consolas, &amp;quot;courier new&amp;quot;, monospace; font-size: 7px; line-height: 19px; white-space: pre;&quot;&gt;&lt;span style=&quot;font-size: 7px;&quot;&gt;VFC_IDMSPasswordUpdate&lt;/span&gt;&lt;/div&gt;" style="rounded=0;whiteSpace=wrap;html=1;fontSize=7;labelBackgroundColor=none;fillColor=#f8cecc;strokeColor=#b85450;gradientColor=#ea6b66;align=left;fontColor=#000000;fontStyle=1" parent="1" vertex="1">
          <mxGeometry x="1330" y="320" width="120" height="20" as="geometry"/>
        </mxCell>
        <mxCell id="T2TZSGgnMwArEX4ejVak-197" value="&lt;span style=&quot;font-family: consolas, &amp;quot;courier new&amp;quot;, monospace; white-space: pre; font-size: 7px;&quot;&gt;Method:&lt;/span&gt;&lt;span style=&quot;font-family: consolas, &amp;quot;courier new&amp;quot;, monospace; white-space: pre; font-size: 7px;&quot;&gt;callerrorPage&lt;/span&gt;" style="rounded=0;whiteSpace=wrap;html=1;fontSize=7;labelBackgroundColor=none;fillColor=#d5e8d4;strokeColor=#82b366;gradientColor=#97d077;align=left;fontColor=#000000;fontStyle=1" parent="1" vertex="1">
          <mxGeometry x="1330" y="360" width="120" height="20" as="geometry"/>
        </mxCell>
        <mxCell id="T2TZSGgnMwArEX4ejVak-253" style="edgeStyle=orthogonalEdgeStyle;rounded=1;jumpStyle=arc;orthogonalLoop=1;jettySize=auto;html=1;exitX=0;exitY=0.75;exitDx=0;exitDy=0;entryX=1;entryY=0.25;entryDx=0;entryDy=0;shadow=0;strokeColor=#000000;fontFamily=Lucida Console;fontSize=8;fontColor=#000000;align=left;" parent="1" source="T2TZSGgnMwArEX4ejVak-198" target="T2TZSGgnMwArEX4ejVak-213" edge="1">
          <mxGeometry relative="1" as="geometry">
            <Array as="points">
              <mxPoint x="1260" y="415"/>
              <mxPoint x="1260" y="653"/>
            </Array>
          </mxGeometry>
        </mxCell>
        <mxCell id="T2TZSGgnMwArEX4ejVak-198" value="&lt;span style=&quot;font-family: consolas, &amp;quot;courier new&amp;quot;, monospace; white-space: pre; font-size: 7px;&quot;&gt;Method: &lt;/span&gt;&lt;span style=&quot;font-family: consolas, &amp;quot;courier new&amp;quot;, monospace; font-size: 7px; white-space: pre;&quot;&gt;updatePassword&lt;/span&gt;" style="rounded=0;whiteSpace=wrap;html=1;fontSize=7;labelBackgroundColor=none;fillColor=#d5e8d4;strokeColor=#82b366;gradientColor=#97d077;align=left;fontColor=#000000;fontStyle=1" parent="1" vertex="1">
          <mxGeometry x="1330" y="400" width="120" height="20" as="geometry"/>
        </mxCell>
        <mxCell id="T2TZSGgnMwArEX4ejVak-199" value="&lt;div style=&quot;font-family: consolas, &amp;quot;courier new&amp;quot;, monospace; font-size: 7px; line-height: 19px; white-space: pre;&quot;&gt;&lt;div style=&quot;font-family: consolas, &amp;quot;courier new&amp;quot;, monospace; line-height: 19px; font-size: 7px;&quot;&gt;&lt;span style=&quot;font-size: 7px;&quot;&gt;Method: &lt;/span&gt;&lt;span style=&quot;font-family: consolas, &amp;quot;courier new&amp;quot;, monospace; font-size: 7px;&quot;&gt;redirectToLogin&lt;/span&gt;&lt;/div&gt;&lt;/div&gt;" style="rounded=0;whiteSpace=wrap;html=1;fontSize=7;labelBackgroundColor=none;fillColor=#d5e8d4;strokeColor=#82b366;gradientColor=#97d077;align=left;fontColor=#000000;fontStyle=1" parent="1" vertex="1">
          <mxGeometry x="1330" y="420" width="120" height="20" as="geometry"/>
        </mxCell>
        <mxCell id="T2TZSGgnMwArEX4ejVak-200" value="&lt;div style=&quot;font-family: consolas, &amp;quot;courier new&amp;quot;, monospace; font-size: 7px; line-height: 19px; white-space: pre;&quot;&gt;&lt;div style=&quot;font-family: consolas, &amp;quot;courier new&amp;quot;, monospace; line-height: 19px; font-size: 7px;&quot;&gt;&lt;span style=&quot;font-size: 7px;&quot;&gt;RemoteAction: &lt;/span&gt;&lt;span style=&quot;font-family: consolas, &amp;quot;courier new&amp;quot;, monospace; font-size: 7px;&quot;&gt;profileRedirect2&lt;/span&gt;&lt;/div&gt;&lt;/div&gt;" style="rounded=0;whiteSpace=wrap;html=1;fontSize=7;labelBackgroundColor=none;fillColor=#d5e8d4;strokeColor=#82b366;gradientColor=#97d077;align=left;fontColor=#000000;fontStyle=1" parent="1" vertex="1">
          <mxGeometry x="1330" y="440" width="120" height="20" as="geometry"/>
        </mxCell>
        <mxCell id="T2TZSGgnMwArEX4ejVak-201" value="&lt;div style=&quot;font-family: consolas, &amp;quot;courier new&amp;quot;, monospace; font-size: 7px; line-height: 19px; white-space: pre;&quot;&gt;&lt;div style=&quot;font-family: consolas, &amp;quot;courier new&amp;quot;, monospace; line-height: 19px; font-size: 7px;&quot;&gt;&lt;span style=&quot;font-size: 7px;&quot;&gt;Method:&lt;/span&gt;&lt;span style=&quot;font-family: consolas, &amp;quot;courier new&amp;quot;, monospace; font-size: 7px;&quot;&gt;PasswordRedirectLogin&lt;/span&gt;&lt;/div&gt;&lt;/div&gt;" style="rounded=0;whiteSpace=wrap;html=1;fontSize=7;labelBackgroundColor=none;fillColor=#d5e8d4;strokeColor=#82b366;gradientColor=#97d077;align=left;fontColor=#000000;fontStyle=1" parent="1" vertex="1">
          <mxGeometry x="1330" y="460" width="120" height="20" as="geometry"/>
        </mxCell>
        <mxCell id="T2TZSGgnMwArEX4ejVak-202" value="&lt;div style=&quot;font-family: consolas, &amp;quot;courier new&amp;quot;, monospace; line-height: 19px; white-space: pre; font-size: 7px;&quot;&gt;&lt;div style=&quot;font-family: consolas, &amp;quot;courier new&amp;quot;, monospace; line-height: 19px; font-size: 7px;&quot;&gt;Method:&lt;font style=&quot;font-size: 7px;&quot;&gt;&lt;span style=&quot;font-size: 7px;&quot;&gt; &lt;/span&gt;&lt;/font&gt;&lt;span style=&quot;font-family: consolas, &amp;quot;courier new&amp;quot;, monospace; font-size: 7px;&quot;&gt;errorMsgProcess&lt;/span&gt;&lt;/div&gt;&lt;/div&gt;" style="rounded=0;whiteSpace=wrap;html=1;fontSize=7;labelBackgroundColor=none;fillColor=#d5e8d4;strokeColor=#82b366;gradientColor=#97d077;align=left;fontColor=#000000;fontStyle=1" parent="1" vertex="1">
          <mxGeometry x="1330" y="480" width="120" height="20" as="geometry"/>
        </mxCell>
        <mxCell id="T2TZSGgnMwArEX4ejVak-204" value="&lt;div style=&quot;font-family: consolas, &amp;quot;courier new&amp;quot;, monospace; line-height: 19px; white-space: pre; font-size: 7px;&quot;&gt;&lt;div style=&quot;font-family: consolas, &amp;quot;courier new&amp;quot;, monospace; line-height: 19px; font-size: 7px;&quot;&gt;Method:&lt;font style=&quot;font-size: 7px;&quot;&gt;&lt;span style=&quot;font-size: 7px;&quot;&gt; &lt;/span&gt;&lt;/font&gt;&lt;span style=&quot;font-family: consolas, &amp;quot;courier new&amp;quot;, monospace; font-size: 7px;&quot;&gt;cancelUpadate&lt;/span&gt;&lt;/div&gt;&lt;/div&gt;" style="rounded=0;whiteSpace=wrap;html=1;fontSize=7;labelBackgroundColor=none;fillColor=#d5e8d4;strokeColor=#82b366;gradientColor=#97d077;align=left;fontColor=#000000;fontStyle=1" parent="1" vertex="1">
          <mxGeometry x="1330" y="500" width="120" height="20" as="geometry"/>
        </mxCell>
        <mxCell id="T2TZSGgnMwArEX4ejVak-205" value="&lt;div style=&quot;font-family: consolas, &amp;quot;courier new&amp;quot;, monospace; line-height: 19px; white-space: pre; font-size: 7px;&quot;&gt;&lt;div style=&quot;font-family: consolas, &amp;quot;courier new&amp;quot;, monospace; line-height: 19px; font-size: 7px;&quot;&gt;Method:&lt;font style=&quot;font-size: 7px;&quot;&gt;&lt;span style=&quot;font-size: 7px;&quot;&gt; &lt;/span&gt;&lt;/font&gt;&lt;span style=&quot;font-family: consolas, &amp;quot;courier new&amp;quot;, monospace; font-size: 7px;&quot;&gt;internalUserVal&lt;/span&gt;&lt;/div&gt;&lt;/div&gt;" style="rounded=0;whiteSpace=wrap;html=1;fontSize=7;labelBackgroundColor=none;fillColor=#d5e8d4;strokeColor=#82b366;gradientColor=#97d077;align=left;fontColor=#000000;fontStyle=1" parent="1" vertex="1">
          <mxGeometry x="1330" y="520" width="120" height="20" as="geometry"/>
        </mxCell>
        <mxCell id="T2TZSGgnMwArEX4ejVak-206" value="&lt;div style=&quot;font-family: consolas, &amp;quot;courier new&amp;quot;, monospace; font-size: 7px; line-height: 19px; white-space: pre;&quot;&gt;&lt;span style=&quot;font-size: 7px;&quot;&gt;Method: &lt;/span&gt;&lt;span style=&quot;font-family: consolas, &amp;quot;courier new&amp;quot;, monospace; font-size: 7px;&quot;&gt;CheckUimsOldPwd&lt;/span&gt;&lt;/div&gt;" style="rounded=0;whiteSpace=wrap;html=1;fontSize=7;labelBackgroundColor=none;fillColor=#d5e8d4;strokeColor=#82b366;gradientColor=#97d077;align=left;fontColor=#000000;fontStyle=1" parent="1" vertex="1">
          <mxGeometry x="1330" y="560" width="120" height="20" as="geometry"/>
        </mxCell>
        <mxCell id="T2TZSGgnMwArEX4ejVak-279" style="edgeStyle=orthogonalEdgeStyle;rounded=1;jumpStyle=arc;orthogonalLoop=1;jettySize=auto;html=1;exitX=0;exitY=0.5;exitDx=0;exitDy=0;entryX=0;entryY=0;entryDx=150;entryDy=6;entryPerimeter=0;shadow=0;strokeColor=#000000;fontFamily=Lucida Console;fontSize=9;fontColor=#000000;align=left;" parent="1" source="T2TZSGgnMwArEX4ejVak-207" target="T2TZSGgnMwArEX4ejVak-278" edge="1">
          <mxGeometry relative="1" as="geometry">
            <Array as="points">
              <mxPoint x="1310" y="590"/>
              <mxPoint x="1310" y="776"/>
            </Array>
          </mxGeometry>
        </mxCell>
        <mxCell id="T2TZSGgnMwArEX4ejVak-207" value="&lt;div style=&quot;font-family: consolas, &amp;quot;courier new&amp;quot;, monospace; font-size: 7px; line-height: 19px; white-space: pre;&quot;&gt;&lt;span style=&quot;font-size: 7px;&quot;&gt;Method: &lt;/span&gt;&lt;span style=&quot;font-family: consolas, &amp;quot;courier new&amp;quot;, monospace; font-size: 7px;&quot;&gt;brandCustomization&lt;/span&gt;&lt;/div&gt;" style="rounded=0;whiteSpace=wrap;html=1;fontSize=7;labelBackgroundColor=none;fillColor=#d5e8d4;strokeColor=#82b366;gradientColor=#97d077;align=left;fontColor=#000000;fontStyle=1" parent="1" vertex="1">
          <mxGeometry x="1330" y="580" width="120" height="20" as="geometry"/>
        </mxCell>
        <mxCell id="T2TZSGgnMwArEX4ejVak-208" value="&lt;div style=&quot;font-family: consolas, &amp;quot;courier new&amp;quot;, monospace; font-size: 7px; line-height: 19px; white-space: pre;&quot;&gt;&lt;span style=&quot;font-size: 7px;&quot;&gt;Method: &lt;/span&gt;&lt;span style=&quot;font-family: consolas, &amp;quot;courier new&amp;quot;, monospace; font-size: 7px;&quot;&gt;getoptns&lt;/span&gt;&lt;/div&gt;" style="rounded=0;whiteSpace=wrap;html=1;fontSize=7;labelBackgroundColor=none;fillColor=#d5e8d4;strokeColor=#82b366;gradientColor=#97d077;align=left;fontColor=#000000;fontStyle=1" parent="1" vertex="1">
          <mxGeometry x="1330" y="540" width="120" height="20" as="geometry"/>
        </mxCell>
        <mxCell id="T2TZSGgnMwArEX4ejVak-209" value="" style="edgeStyle=segmentEdgeStyle;endArrow=classic;html=1;strokeColor=#b85450;fontFamily=Lucida Console;fontSize=7;fontColor=#000000;align=left;exitX=1;exitY=0.5;exitDx=0;exitDy=0;gradientColor=#ea6b66;fillColor=#f8cecc;entryX=1;entryY=0.5;entryDx=0;entryDy=0;" parent="1" source="T2TZSGgnMwArEX4ejVak-191" target="T2TZSGgnMwArEX4ejVak-204" edge="1">
          <mxGeometry width="50" height="50" relative="1" as="geometry">
            <mxPoint x="1300" y="380" as="sourcePoint"/>
            <mxPoint x="1460" y="530" as="targetPoint"/>
            <Array as="points">
              <mxPoint x="1520" y="290"/>
              <mxPoint x="1520" y="510"/>
            </Array>
          </mxGeometry>
        </mxCell>
        <mxCell id="T2TZSGgnMwArEX4ejVak-210" value="" style="edgeStyle=segmentEdgeStyle;endArrow=classic;html=1;strokeColor=#b85450;fontFamily=Lucida Console;fontSize=7;fontColor=#000000;align=left;exitX=1;exitY=0.5;exitDx=0;exitDy=0;gradientColor=#ea6b66;fillColor=#f8cecc;entryX=1;entryY=0.5;entryDx=0;entryDy=0;" parent="1" source="T2TZSGgnMwArEX4ejVak-189" target="T2TZSGgnMwArEX4ejVak-202" edge="1">
          <mxGeometry width="50" height="50" relative="1" as="geometry">
            <mxPoint x="1290" y="350" as="sourcePoint"/>
            <mxPoint x="1470" y="490" as="targetPoint"/>
            <Array as="points">
              <mxPoint x="1530" y="270"/>
              <mxPoint x="1530" y="490"/>
            </Array>
          </mxGeometry>
        </mxCell>
        <mxCell id="T2TZSGgnMwArEX4ejVak-211" value="" style="endArrow=classic;startArrow=classic;html=1;strokeColor=#000000;fontFamily=Lucida Console;fontSize=7;fontColor=#000000;align=left;entryX=1;entryY=0.5;entryDx=0;entryDy=0;jumpStyle=gap;dashed=1;dashPattern=1 1;fontStyle=1" parent="1" target="T2TZSGgnMwArEX4ejVak-196" edge="1">
          <mxGeometry width="50" height="50" relative="1" as="geometry">
            <mxPoint x="1450" y="390" as="sourcePoint"/>
            <mxPoint x="1420" y="390" as="targetPoint"/>
            <Array as="points">
              <mxPoint x="1480" y="390"/>
              <mxPoint x="1480" y="350"/>
            </Array>
          </mxGeometry>
        </mxCell>
        <mxCell id="T2TZSGgnMwArEX4ejVak-212" value="&lt;div style=&quot;font-family: consolas, &amp;quot;courier new&amp;quot;, monospace; font-size: 8px; line-height: 19px; white-space: pre;&quot;&gt;&lt;span style=&quot;font-size: 8px;&quot;&gt;Method: addCreateUrl&lt;/span&gt;&lt;/div&gt;" style="rounded=0;whiteSpace=wrap;html=1;fontSize=8;labelBackgroundColor=none;fillColor=#d5e8d4;strokeColor=#82b366;gradientColor=#97d077;align=left;fontColor=#000000;fontStyle=0;" parent="1" vertex="1">
          <mxGeometry x="1040" y="660" width="131" height="10" as="geometry"/>
        </mxCell>
        <mxCell id="T2TZSGgnMwArEX4ejVak-213" value="&lt;div style=&quot;font-family: consolas, &amp;quot;courier new&amp;quot;, monospace; font-size: 8px; line-height: 19px; white-space: pre;&quot;&gt;&lt;div style=&quot;font-family: consolas, &amp;quot;courier new&amp;quot;, monospace; font-size: 8px; line-height: 19px;&quot;&gt;&lt;div style=&quot;font-family: consolas, &amp;quot;courier new&amp;quot;, monospace; font-size: 8px; line-height: 19px;&quot;&gt;&lt;span style=&quot;font-size: 8px;&quot;&gt;IdmsCreateUrl&lt;/span&gt;&lt;/div&gt;&lt;/div&gt;&lt;/div&gt;" style="rounded=1;whiteSpace=wrap;html=1;fontSize=8;labelBackgroundColor=none;fillColor=#e1d5e7;strokeColor=#9673a6;align=left;fontColor=#000000;fontStyle=0;" parent="1" vertex="1">
          <mxGeometry x="1040" y="650" width="131" height="10" as="geometry"/>
        </mxCell>
        <mxCell id="T2TZSGgnMwArEX4ejVak-214" value="" style="edgeStyle=segmentEdgeStyle;endArrow=classic;html=1;strokeColor=#080201;fontFamily=Lucida Console;fontSize=7;fontColor=#000000;align=left;exitX=0;exitY=0.75;exitDx=0;exitDy=0;entryX=1;entryY=0.5;entryDx=0;entryDy=0;" parent="1" source="T2TZSGgnMwArEX4ejVak-200" target="T2TZSGgnMwArEX4ejVak-212" edge="1">
          <mxGeometry width="50" height="50" relative="1" as="geometry">
            <mxPoint x="1220" y="490" as="sourcePoint"/>
            <mxPoint x="1190" y="668" as="targetPoint"/>
            <Array as="points">
              <mxPoint x="1280" y="455"/>
              <mxPoint x="1280" y="665"/>
            </Array>
          </mxGeometry>
        </mxCell>
        <mxCell id="T2TZSGgnMwArEX4ejVak-215" value="&lt;div style=&quot;font-family: consolas, &amp;quot;courier new&amp;quot;, monospace; font-size: 8px; line-height: 19px; white-space: pre;&quot;&gt;&lt;span style=&quot;font-size: 8px;&quot;&gt;Method: &lt;/span&gt;&lt;span style=&quot;font-family: consolas, &amp;quot;courier new&amp;quot;, monospace; font-size: 8px;&quot;&gt;langParamReplace&lt;/span&gt;&lt;/div&gt;" style="rounded=0;whiteSpace=wrap;html=1;fontSize=8;labelBackgroundColor=none;fillColor=#d5e8d4;strokeColor=#82b366;gradientColor=#97d077;align=left;fontColor=#000000;fontStyle=0;" parent="1" vertex="1">
          <mxGeometry x="1040" y="690" width="131" height="10" as="geometry"/>
        </mxCell>
        <mxCell id="T2TZSGgnMwArEX4ejVak-216" value="&lt;div style=&quot;font-family: consolas, &amp;quot;courier new&amp;quot;, monospace; font-size: 8px; line-height: 19px; white-space: pre;&quot;&gt;&lt;div style=&quot;font-family: consolas, &amp;quot;courier new&amp;quot;, monospace; font-size: 8px; line-height: 19px;&quot;&gt;&lt;div style=&quot;font-family: consolas, &amp;quot;courier new&amp;quot;, monospace; font-size: 8px; line-height: 19px;&quot;&gt;&lt;div style=&quot;font-family: consolas, &amp;quot;courier new&amp;quot;, monospace; line-height: 19px; font-size: 8px;&quot;&gt;&lt;span style=&quot;font-size: 8px;&quot;&gt;AP_IDMSPRMLoginParams&lt;/span&gt;&lt;/div&gt;&lt;/div&gt;&lt;/div&gt;&lt;/div&gt;" style="rounded=1;whiteSpace=wrap;html=1;fontSize=8;labelBackgroundColor=none;fillColor=#e1d5e7;strokeColor=#9673a6;align=left;fontColor=#000000;fontStyle=0;" parent="1" vertex="1">
          <mxGeometry x="1040" y="680" width="131" height="10" as="geometry"/>
        </mxCell>
        <mxCell id="T2TZSGgnMwArEX4ejVak-217" value="&lt;div style=&quot;font-family: consolas, &amp;quot;courier new&amp;quot;, monospace; font-size: 8px; line-height: 19px; white-space: pre;&quot;&gt;&lt;span style=&quot;font-size: 8px;&quot;&gt;Method: &lt;/span&gt;&lt;span style=&quot;font-family: consolas, &amp;quot;courier new&amp;quot;, monospace; font-size: 8px;&quot;&gt;CheckPasswordUIMS&lt;/span&gt;&lt;/div&gt;" style="rounded=0;whiteSpace=wrap;html=1;fontSize=8;labelBackgroundColor=none;fillColor=#d5e8d4;strokeColor=#82b366;gradientColor=#97d077;align=left;fontColor=#000000;fontStyle=0;" parent="1" vertex="1">
          <mxGeometry x="1040" y="740" width="131" height="10" as="geometry"/>
        </mxCell>
        <mxCell id="T2TZSGgnMwArEX4ejVak-218" value="&lt;div style=&quot;font-family: consolas, &amp;quot;courier new&amp;quot;, monospace; font-size: 8px; line-height: 19px; white-space: pre;&quot;&gt;&lt;div style=&quot;font-family: consolas, &amp;quot;courier new&amp;quot;, monospace; font-size: 8px; line-height: 19px;&quot;&gt;&lt;div style=&quot;font-family: consolas, &amp;quot;courier new&amp;quot;, monospace; font-size: 8px; line-height: 19px;&quot;&gt;&lt;div style=&quot;font-family: consolas, &amp;quot;courier new&amp;quot;, monospace; line-height: 19px; font-size: 8px;&quot;&gt;&lt;span style=&quot;font-size: 8px;&quot;&gt;VFC_IDMS_Consumer_SocialLogin&lt;/span&gt;&lt;/div&gt;&lt;/div&gt;&lt;/div&gt;&lt;/div&gt;" style="rounded=1;whiteSpace=wrap;html=1;fontSize=8;labelBackgroundColor=none;fillColor=#e1d5e7;strokeColor=#9673a6;align=left;fontColor=#000000;fontStyle=0;" parent="1" vertex="1">
          <mxGeometry x="1040" y="730" width="131" height="10" as="geometry"/>
        </mxCell>
        <mxCell id="T2TZSGgnMwArEX4ejVak-219" value="" style="edgeStyle=segmentEdgeStyle;endArrow=classic;html=1;strokeColor=#080201;fontFamily=Lucida Console;fontSize=7;fontColor=#000000;align=left;entryX=1;entryY=0.5;entryDx=0;entryDy=0;" parent="1" target="T2TZSGgnMwArEX4ejVak-215" edge="1">
          <mxGeometry width="50" height="50" relative="1" as="geometry">
            <mxPoint x="1330.1428571428573" y="470.14285714285734" as="sourcePoint"/>
            <mxPoint x="1230.1428571428573" y="580.1428571428573" as="targetPoint"/>
            <Array as="points">
              <mxPoint x="1290" y="470"/>
              <mxPoint x="1290" y="680"/>
              <mxPoint x="1171" y="680"/>
            </Array>
          </mxGeometry>
        </mxCell>
        <mxCell id="T2TZSGgnMwArEX4ejVak-220" value="" style="endArrow=classic;startArrow=classic;html=1;strokeColor=#000000;fontFamily=Lucida Console;fontSize=7;fontColor=#000000;align=left;entryX=1;entryY=0.5;entryDx=0;entryDy=0;exitX=1;exitY=0.5;exitDx=0;exitDy=0;jumpStyle=gap;dashed=1;dashPattern=1 1;fontStyle=1" parent="1" source="T2TZSGgnMwArEX4ejVak-202" target="T2TZSGgnMwArEX4ejVak-198" edge="1">
          <mxGeometry width="50" height="50" relative="1" as="geometry">
            <mxPoint x="1460" y="470" as="sourcePoint"/>
            <mxPoint x="1460" y="430" as="targetPoint"/>
            <Array as="points">
              <mxPoint x="1490" y="480"/>
              <mxPoint x="1490" y="410"/>
            </Array>
          </mxGeometry>
        </mxCell>
        <mxCell id="T2TZSGgnMwArEX4ejVak-221" value="" style="edgeStyle=segmentEdgeStyle;endArrow=classic;html=1;strokeColor=#080201;fontFamily=Lucida Console;fontSize=7;fontColor=#000000;align=left;exitX=0;exitY=0.5;exitDx=0;exitDy=0;entryX=1;entryY=0.5;entryDx=0;entryDy=0;" parent="1" source="T2TZSGgnMwArEX4ejVak-206" target="T2TZSGgnMwArEX4ejVak-217" edge="1">
          <mxGeometry width="50" height="50" relative="1" as="geometry">
            <mxPoint x="1340" y="480.16666666666674" as="sourcePoint"/>
            <mxPoint x="1240" y="590.1666666666667" as="targetPoint"/>
            <Array as="points">
              <mxPoint x="1300" y="570"/>
              <mxPoint x="1300" y="710"/>
              <mxPoint x="1171" y="710"/>
            </Array>
          </mxGeometry>
        </mxCell>
        <mxCell id="T2TZSGgnMwArEX4ejVak-222" value="&lt;div style=&quot;font-family: consolas, &amp;quot;courier new&amp;quot;, monospace; font-size: 8px; line-height: 19px; white-space: pre;&quot;&gt;&lt;span style=&quot;font-size: 8px;&quot;&gt;Method: &lt;/span&gt;&lt;span style=&quot;font-family: consolas, &amp;quot;courier new&amp;quot;, monospace; font-size: 8px;&quot;&gt;getIDMSLanguageCode&lt;/span&gt;&lt;/div&gt;" style="rounded=0;whiteSpace=wrap;html=1;fontSize=8;labelBackgroundColor=none;fillColor=#d5e8d4;strokeColor=#82b366;gradientColor=#97d077;align=left;fontColor=#000000;fontStyle=0;" parent="1" vertex="1">
          <mxGeometry x="1040" y="410" width="131" height="10" as="geometry"/>
        </mxCell>
        <mxCell id="T2TZSGgnMwArEX4ejVak-223" value="&lt;div style=&quot;font-family: consolas, &amp;quot;courier new&amp;quot;, monospace; font-size: 8px; line-height: 19px; white-space: pre;&quot;&gt;&lt;div style=&quot;font-family: consolas, &amp;quot;courier new&amp;quot;, monospace; font-size: 8px; line-height: 19px;&quot;&gt;&lt;div style=&quot;font-family: consolas, &amp;quot;courier new&amp;quot;, monospace; font-size: 8px; line-height: 19px;&quot;&gt;&lt;div style=&quot;font-family: consolas, &amp;quot;courier new&amp;quot;, monospace; line-height: 19px; font-size: 8px;&quot;&gt;&lt;div style=&quot;font-family: consolas, &amp;quot;courier new&amp;quot;, monospace; font-size: 8px; line-height: 19px;&quot;&gt;&lt;span style=&quot;font-size: 8px;&quot;&gt;IDMS_LanguageMatrixImpl&lt;/span&gt;&lt;/div&gt;&lt;/div&gt;&lt;/div&gt;&lt;/div&gt;&lt;/div&gt;" style="rounded=1;whiteSpace=wrap;html=1;fontSize=8;labelBackgroundColor=none;fillColor=#e1d5e7;strokeColor=#9673a6;align=left;fontColor=#000000;fontStyle=0;" parent="1" vertex="1">
          <mxGeometry x="1040" y="400" width="131" height="10" as="geometry"/>
        </mxCell>
        <mxCell id="T2TZSGgnMwArEX4ejVak-224" value="" style="edgeStyle=segmentEdgeStyle;endArrow=classic;html=1;strokeColor=#080201;fontFamily=Lucida Console;fontSize=7;fontColor=#000000;align=left;exitX=0;exitY=0.5;exitDx=0;exitDy=0;entryX=1;entryY=0.25;entryDx=0;entryDy=0;" parent="1" source="T2TZSGgnMwArEX4ejVak-196" target="T2TZSGgnMwArEX4ejVak-222" edge="1">
          <mxGeometry width="50" height="50" relative="1" as="geometry">
            <mxPoint x="1340.1428571428573" y="354.42857142857144" as="sourcePoint"/>
            <mxPoint x="1240.1428571428573" y="431.57142857142867" as="targetPoint"/>
            <Array as="points">
              <mxPoint x="1180" y="330"/>
              <mxPoint x="1180" y="413"/>
            </Array>
          </mxGeometry>
        </mxCell>
        <mxCell id="T2TZSGgnMwArEX4ejVak-225" value="" style="endArrow=classic;startArrow=classic;html=1;strokeColor=#000000;fontFamily=Lucida Console;fontSize=7;fontColor=#000000;align=left;entryX=1;entryY=0.5;entryDx=0;entryDy=0;exitX=1;exitY=0.5;exitDx=0;exitDy=0;jumpStyle=gap;dashed=1;dashPattern=1 1;fontStyle=1" parent="1" source="T2TZSGgnMwArEX4ejVak-207" target="T2TZSGgnMwArEX4ejVak-196" edge="1">
          <mxGeometry width="50" height="50" relative="1" as="geometry">
            <mxPoint x="1460" y="500" as="sourcePoint"/>
            <mxPoint x="1460" y="420" as="targetPoint"/>
            <Array as="points">
              <mxPoint x="1500" y="580"/>
              <mxPoint x="1500" y="490"/>
              <mxPoint x="1500" y="420"/>
              <mxPoint x="1500" y="360"/>
            </Array>
          </mxGeometry>
        </mxCell>
        <mxCell id="T2TZSGgnMwArEX4ejVak-226" value="&lt;div style=&quot;font-family: &amp;quot;consolas&amp;quot; , &amp;quot;courier new&amp;quot; , monospace ; font-size: 7px ; line-height: 19px ; white-space: pre&quot;&gt;&lt;span style=&quot;font-size: 7px&quot;&gt;Method: &lt;/span&gt;&lt;span style=&quot;font-family: consolas, &amp;quot;courier new&amp;quot;, monospace; font-size: 8px;&quot;&gt;getLangfromSupport&lt;/span&gt;&lt;/div&gt;" style="rounded=0;whiteSpace=wrap;html=1;fontSize=7;labelBackgroundColor=none;fillColor=#d5e8d4;strokeColor=#82b366;gradientColor=#97d077;align=left;fontColor=#000000;fontStyle=1;" parent="1" vertex="1">
          <mxGeometry x="1330" y="340" width="120" height="20" as="geometry"/>
        </mxCell>
        <mxCell id="T2TZSGgnMwArEX4ejVak-229" value="&lt;div style=&quot;font-family: consolas, &amp;quot;courier new&amp;quot;, monospace; font-size: 8px; line-height: 19px; white-space: pre;&quot;&gt;&lt;span style=&quot;font-size: 8px;&quot;&gt;Method: &lt;/span&gt;&lt;span style=&quot;font-family: consolas, &amp;quot;courier new&amp;quot;, monospace; font-size: 8px;&quot;&gt;checkIDMSMode&lt;/span&gt;&lt;/div&gt;" style="rounded=0;whiteSpace=wrap;html=1;fontSize=8;labelBackgroundColor=none;fillColor=#d5e8d4;strokeColor=#82b366;gradientColor=#97d077;align=left;fontColor=#000000;fontStyle=0;" parent="1" vertex="1">
          <mxGeometry x="1040" y="440" width="131" height="10" as="geometry"/>
        </mxCell>
        <mxCell id="T2TZSGgnMwArEX4ejVak-230" value="&lt;div style=&quot;font-family: consolas, &amp;quot;courier new&amp;quot;, monospace; font-size: 8px; line-height: 19px; white-space: pre;&quot;&gt;&lt;div style=&quot;font-family: consolas, &amp;quot;courier new&amp;quot;, monospace; font-size: 8px; line-height: 19px;&quot;&gt;&lt;div style=&quot;font-family: consolas, &amp;quot;courier new&amp;quot;, monospace; font-size: 8px; line-height: 19px;&quot;&gt;&lt;div style=&quot;font-family: consolas, &amp;quot;courier new&amp;quot;, monospace; line-height: 19px; font-size: 8px;&quot;&gt;&lt;div style=&quot;font-family: consolas, &amp;quot;courier new&amp;quot;, monospace; font-size: 8px; line-height: 19px;&quot;&gt;&lt;div style=&quot;font-family: consolas, &amp;quot;courier new&amp;quot;, monospace; font-size: 8px; line-height: 19px;&quot;&gt;&lt;span style=&quot;font-size: 8px;&quot;&gt;AP_IDMS_Util&lt;/span&gt;&lt;/div&gt;&lt;/div&gt;&lt;/div&gt;&lt;/div&gt;&lt;/div&gt;&lt;/div&gt;" style="rounded=1;whiteSpace=wrap;html=1;fontSize=8;labelBackgroundColor=none;fillColor=#e1d5e7;strokeColor=#9673a6;align=left;fontColor=#000000;fontStyle=0;" parent="1" vertex="1">
          <mxGeometry x="1040" y="430" width="131" height="10" as="geometry"/>
        </mxCell>
        <mxCell id="T2TZSGgnMwArEX4ejVak-231" value="&lt;div style=&quot;font-family: consolas, &amp;quot;courier new&amp;quot;, monospace; font-size: 4px; line-height: 19px; white-space: pre;&quot;&gt;&lt;span style=&quot;font-size: 4px;&quot;&gt;Method: &lt;/span&gt;&lt;span style=&quot;font-family: consolas, &amp;quot;courier new&amp;quot;, monospace; font-size: 4px;&quot;&gt;allowProcessingDuringMaintenance&lt;/span&gt;&lt;/div&gt;" style="rounded=0;whiteSpace=wrap;html=1;fontSize=4;labelBackgroundColor=none;fillColor=#d5e8d4;strokeColor=#82b366;gradientColor=#97d077;align=left;fontColor=#000000;fontStyle=0;" parent="1" vertex="1">
          <mxGeometry x="1040" y="450" width="131" height="10" as="geometry"/>
        </mxCell>
        <mxCell id="T2TZSGgnMwArEX4ejVak-233" value="" style="edgeStyle=segmentEdgeStyle;endArrow=classic;html=1;strokeColor=#080201;fontFamily=Lucida Console;fontSize=7;fontColor=#000000;align=left;exitX=0;exitY=0.5;exitDx=0;exitDy=0;entryX=1;entryY=0.5;entryDx=0;entryDy=0;" parent="1" source="T2TZSGgnMwArEX4ejVak-197" target="T2TZSGgnMwArEX4ejVak-230" edge="1">
          <mxGeometry width="50" height="50" relative="1" as="geometry">
            <mxPoint x="1340" y="340" as="sourcePoint"/>
            <mxPoint x="1230" y="435" as="targetPoint"/>
            <Array as="points">
              <mxPoint x="1190" y="370"/>
              <mxPoint x="1190" y="435"/>
            </Array>
          </mxGeometry>
        </mxCell>
        <mxCell id="T2TZSGgnMwArEX4ejVak-234" value="&lt;div style=&quot;font-family: consolas, &amp;quot;courier new&amp;quot;, monospace; font-size: 8px; line-height: 19px; white-space: pre;&quot;&gt;&lt;span style=&quot;font-size: 8px;&quot;&gt;Method: &lt;/span&gt;&lt;span style=&quot;font-family: consolas, &amp;quot;courier new&amp;quot;, monospace; font-size: 8px;&quot;&gt;IDMScreateLogFuture&lt;/span&gt;&lt;/div&gt;" style="rounded=0;whiteSpace=wrap;html=1;fontSize=8;labelBackgroundColor=none;fillColor=#d5e8d4;strokeColor=#82b366;gradientColor=#97d077;align=left;fontColor=#000000;fontStyle=0;" parent="1" vertex="1">
          <mxGeometry x="1040" y="480" width="131" height="10" as="geometry"/>
        </mxCell>
        <mxCell id="T2TZSGgnMwArEX4ejVak-235" value="&lt;div style=&quot;font-family: consolas, &amp;quot;courier new&amp;quot;, monospace; font-size: 8px; line-height: 19px; white-space: pre;&quot;&gt;&lt;div style=&quot;font-family: consolas, &amp;quot;courier new&amp;quot;, monospace; font-size: 8px; line-height: 19px;&quot;&gt;&lt;div style=&quot;font-family: consolas, &amp;quot;courier new&amp;quot;, monospace; font-size: 8px; line-height: 19px;&quot;&gt;&lt;div style=&quot;font-family: consolas, &amp;quot;courier new&amp;quot;, monospace; font-size: 8px; line-height: 19px;&quot;&gt;&lt;span style=&quot;font-size: 8px;&quot;&gt;IDMSCaptureError&lt;/span&gt;&lt;/div&gt;&lt;/div&gt;&lt;/div&gt;&lt;/div&gt;" style="rounded=1;whiteSpace=wrap;html=1;fontSize=8;labelBackgroundColor=none;fillColor=#e1d5e7;strokeColor=#9673a6;align=left;fontColor=#000000;fontStyle=0;" parent="1" vertex="1">
          <mxGeometry x="1040" y="470" width="131" height="10" as="geometry"/>
        </mxCell>
        <mxCell id="T2TZSGgnMwArEX4ejVak-236" value="" style="edgeStyle=segmentEdgeStyle;endArrow=classic;html=1;strokeColor=#080201;fontFamily=Lucida Console;fontSize=7;fontColor=#000000;align=left;entryX=1;entryY=0.75;entryDx=0;entryDy=0;" parent="1" target="T2TZSGgnMwArEX4ejVak-234" edge="1">
          <mxGeometry width="50" height="50" relative="1" as="geometry">
            <mxPoint x="1320" y="370" as="sourcePoint"/>
            <mxPoint x="1230.689655172414" y="445.3103448275863" as="targetPoint"/>
            <Array as="points">
              <mxPoint x="1320" y="380"/>
              <mxPoint x="1200" y="380"/>
              <mxPoint x="1200" y="488"/>
            </Array>
          </mxGeometry>
        </mxCell>
        <mxCell id="T2TZSGgnMwArEX4ejVak-237" value="&lt;div style=&quot;font-family: consolas, &amp;quot;courier new&amp;quot;, monospace; font-size: 6px; line-height: 19px; white-space: pre;&quot;&gt;&lt;span style=&quot;font-size: 6px;&quot;&gt;Method: &lt;/span&gt;&lt;span style=&quot;font-family: consolas, &amp;quot;courier new&amp;quot;, monospace; font-size: 6px;&quot;&gt;checkPolicyMetOrNotWithFNLN&lt;/span&gt;&lt;/div&gt;" style="rounded=0;whiteSpace=wrap;html=1;fontSize=6;labelBackgroundColor=none;fillColor=#d5e8d4;strokeColor=#82b366;gradientColor=#97d077;align=left;fontColor=#000000;fontStyle=0;" parent="1" vertex="1">
          <mxGeometry x="1040" y="510" width="131" height="10" as="geometry"/>
        </mxCell>
        <mxCell id="T2TZSGgnMwArEX4ejVak-238" value="&lt;div style=&quot;font-family: consolas, &amp;quot;courier new&amp;quot;, monospace; font-size: 8px; line-height: 19px; white-space: pre;&quot;&gt;&lt;div style=&quot;font-family: consolas, &amp;quot;courier new&amp;quot;, monospace; font-size: 8px; line-height: 19px;&quot;&gt;&lt;div style=&quot;font-family: consolas, &amp;quot;courier new&amp;quot;, monospace; font-size: 8px; line-height: 19px;&quot;&gt;&lt;div style=&quot;font-family: consolas, &amp;quot;courier new&amp;quot;, monospace; font-size: 8px; line-height: 19px;&quot;&gt;&lt;div style=&quot;font-family: consolas, &amp;quot;courier new&amp;quot;, monospace; font-size: 8px; line-height: 19px;&quot;&gt;&lt;span style=&quot;font-size: 8px;&quot;&gt;UTILS_IdmsPasswordPolicy&lt;/span&gt;&lt;/div&gt;&lt;/div&gt;&lt;/div&gt;&lt;/div&gt;&lt;/div&gt;" style="rounded=1;whiteSpace=wrap;html=1;fontSize=8;labelBackgroundColor=none;fillColor=#e1d5e7;strokeColor=#9673a6;align=left;fontColor=#000000;fontStyle=0;" parent="1" vertex="1">
          <mxGeometry x="1040" y="500" width="131" height="10" as="geometry"/>
        </mxCell>
        <mxCell id="T2TZSGgnMwArEX4ejVak-239" value="&lt;div style=&quot;font-family: consolas, &amp;quot;courier new&amp;quot;, monospace; font-size: 8px; line-height: 19px; white-space: pre;&quot;&gt;&lt;span style=&quot;font-size: 8px;&quot;&gt;Method: &lt;/span&gt;&lt;span style=&quot;font-family: consolas, &amp;quot;courier new&amp;quot;, monospace; font-size: 8px;&quot;&gt;LoginCheck&lt;/span&gt;&lt;/div&gt;" style="rounded=0;whiteSpace=wrap;html=1;fontSize=8;labelBackgroundColor=none;fillColor=#d5e8d4;strokeColor=#82b366;gradientColor=#97d077;align=left;fontColor=#000000;fontStyle=0;" parent="1" vertex="1">
          <mxGeometry x="1040" y="540" width="131" height="10" as="geometry"/>
        </mxCell>
        <mxCell id="T2TZSGgnMwArEX4ejVak-240" value="&lt;div style=&quot;font-family: consolas, &amp;quot;courier new&amp;quot;, monospace; font-size: 8px; line-height: 19px; white-space: pre;&quot;&gt;&lt;div style=&quot;font-family: consolas, &amp;quot;courier new&amp;quot;, monospace; font-size: 8px; line-height: 19px;&quot;&gt;&lt;div style=&quot;font-family: consolas, &amp;quot;courier new&amp;quot;, monospace; font-size: 8px; line-height: 19px;&quot;&gt;&lt;div style=&quot;font-family: consolas, &amp;quot;courier new&amp;quot;, monospace; font-size: 8px; line-height: 19px;&quot;&gt;&lt;span style=&quot;font-size: 8px;&quot;&gt;IDMSPasswordService &lt;/span&gt;&lt;/div&gt;&lt;/div&gt;&lt;/div&gt;&lt;/div&gt;" style="rounded=1;whiteSpace=wrap;html=1;fontSize=8;labelBackgroundColor=none;fillColor=#e1d5e7;strokeColor=#9673a6;align=left;fontColor=#000000;fontStyle=0;" parent="1" vertex="1">
          <mxGeometry x="1040" y="530" width="131" height="10" as="geometry"/>
        </mxCell>
        <mxCell id="T2TZSGgnMwArEX4ejVak-241" value="" style="edgeStyle=segmentEdgeStyle;endArrow=classic;html=1;strokeColor=#080201;fontFamily=Lucida Console;fontSize=7;fontColor=#000000;align=left;entryX=1;entryY=0.5;entryDx=0;entryDy=0;exitX=0;exitY=0.5;exitDx=0;exitDy=0;" parent="1" source="T2TZSGgnMwArEX4ejVak-198" target="T2TZSGgnMwArEX4ejVak-237" edge="1">
          <mxGeometry width="50" height="50" relative="1" as="geometry">
            <mxPoint x="1330" y="379.79310344827593" as="sourcePoint"/>
            <mxPoint x="1181.0344827586207" y="497.7241379310344" as="targetPoint"/>
            <Array as="points">
              <mxPoint x="1210" y="410"/>
              <mxPoint x="1210" y="515"/>
            </Array>
          </mxGeometry>
        </mxCell>
        <mxCell id="T2TZSGgnMwArEX4ejVak-242" value="" style="edgeStyle=segmentEdgeStyle;endArrow=classic;html=1;strokeColor=#080201;fontFamily=Lucida Console;fontSize=7;fontColor=#000000;align=left;entryX=0.988;entryY=1.52;entryDx=0;entryDy=0;entryPerimeter=0;exitX=0;exitY=0.75;exitDx=0;exitDy=0;" parent="1" source="T2TZSGgnMwArEX4ejVak-198" target="T2TZSGgnMwArEX4ejVak-240" edge="1">
          <mxGeometry width="50" height="50" relative="1" as="geometry">
            <mxPoint x="1320" y="410" as="sourcePoint"/>
            <mxPoint x="1170" y="550" as="targetPoint"/>
            <Array as="points">
              <mxPoint x="1220" y="415"/>
              <mxPoint x="1220" y="545"/>
            </Array>
          </mxGeometry>
        </mxCell>
        <mxCell id="T2TZSGgnMwArEX4ejVak-243" value="" style="endArrow=classic;startArrow=classic;html=1;strokeColor=#000000;fontFamily=Lucida Console;fontSize=7;fontColor=#000000;align=left;entryX=1;entryY=0.75;entryDx=0;entryDy=0;exitX=1;exitY=0.5;exitDx=0;exitDy=0;jumpStyle=gap;dashed=1;dashPattern=1 1;fontStyle=1" parent="1" source="T2TZSGgnMwArEX4ejVak-206" target="T2TZSGgnMwArEX4ejVak-198" edge="1">
          <mxGeometry width="50" height="50" relative="1" as="geometry">
            <mxPoint x="1460" y="500" as="sourcePoint"/>
            <mxPoint x="1460" y="420" as="targetPoint"/>
            <Array as="points">
              <mxPoint x="1480" y="560"/>
              <mxPoint x="1480" y="450"/>
            </Array>
          </mxGeometry>
        </mxCell>
        <mxCell id="T2TZSGgnMwArEX4ejVak-244" value="&lt;div style=&quot;font-family: consolas, &amp;quot;courier new&amp;quot;, monospace; font-size: 8px; line-height: 19px; white-space: pre;&quot;&gt;&lt;span style=&quot;font-size: 8px;&quot;&gt;Method: &lt;/span&gt;&lt;span style=&quot;font-family: consolas, &amp;quot;courier new&amp;quot;, monospace; font-size: 8px;&quot;&gt;setUserPassword&lt;/span&gt;&lt;/div&gt;" style="rounded=0;whiteSpace=wrap;html=1;fontSize=8;labelBackgroundColor=none;fillColor=#d5e8d4;strokeColor=#82b366;gradientColor=#97d077;align=left;fontColor=#000000;fontStyle=0;" parent="1" vertex="1">
          <mxGeometry x="1040" y="570" width="131" height="10" as="geometry"/>
        </mxCell>
        <mxCell id="T2TZSGgnMwArEX4ejVak-245" value="&lt;div style=&quot;font-family: consolas, &amp;quot;courier new&amp;quot;, monospace; font-size: 8px; line-height: 19px; white-space: pre;&quot;&gt;&lt;div style=&quot;font-family: consolas, &amp;quot;courier new&amp;quot;, monospace; font-size: 8px; line-height: 19px;&quot;&gt;&lt;div style=&quot;font-family: consolas, &amp;quot;courier new&amp;quot;, monospace; font-size: 8px; line-height: 19px;&quot;&gt;&lt;div style=&quot;font-family: consolas, &amp;quot;courier new&amp;quot;, monospace; font-size: 8px; line-height: 19px;&quot;&gt;&lt;div style=&quot;font-family: consolas, &amp;quot;courier new&amp;quot;, monospace; font-size: 8px; line-height: 19px;&quot;&gt;&lt;span style=&quot;font-size: 8px;&quot;&gt;IDMSSetPasswordHelper&lt;/span&gt;&lt;/div&gt;&lt;/div&gt;&lt;/div&gt;&lt;/div&gt;&lt;/div&gt;" style="rounded=1;whiteSpace=wrap;html=1;fontSize=8;labelBackgroundColor=none;fillColor=#e1d5e7;strokeColor=#9673a6;align=left;fontColor=#000000;fontStyle=0;" parent="1" vertex="1">
          <mxGeometry x="1040" y="560" width="131" height="10" as="geometry"/>
        </mxCell>
        <mxCell id="T2TZSGgnMwArEX4ejVak-246" value="&lt;div style=&quot;font-family: consolas, &amp;quot;courier new&amp;quot;, monospace; font-size: 8px; line-height: 19px; white-space: pre;&quot;&gt;&lt;span style=&quot;font-size: 8px;&quot;&gt;Method: &lt;/span&gt;&lt;span style=&quot;font-family: consolas, &amp;quot;courier new&amp;quot;, monospace; font-size: 8px;&quot;&gt;PwdUpdate&lt;/span&gt;&lt;/div&gt;" style="rounded=0;whiteSpace=wrap;html=1;fontSize=8;labelBackgroundColor=none;fillColor=#d5e8d4;strokeColor=#82b366;gradientColor=#97d077;align=left;fontColor=#000000;fontStyle=0;" parent="1" vertex="1">
          <mxGeometry x="1040" y="600" width="131" height="10" as="geometry"/>
        </mxCell>
        <mxCell id="T2TZSGgnMwArEX4ejVak-247" value="&lt;div style=&quot;font-family: consolas, &amp;quot;courier new&amp;quot;, monospace; font-size: 8px; line-height: 19px; white-space: pre;&quot;&gt;&lt;div style=&quot;font-family: consolas, &amp;quot;courier new&amp;quot;, monospace; font-size: 8px; line-height: 19px;&quot;&gt;&lt;div style=&quot;font-family: consolas, &amp;quot;courier new&amp;quot;, monospace; font-size: 8px; line-height: 19px;&quot;&gt;&lt;div style=&quot;font-family: consolas, &amp;quot;courier new&amp;quot;, monospace; font-size: 8px; line-height: 19px;&quot;&gt;&lt;span style=&quot;font-size: 8px;&quot;&gt;AP_IDMSEmailPwdStagingUpdate&lt;/span&gt;&lt;/div&gt;&lt;/div&gt;&lt;/div&gt;&lt;/div&gt;" style="rounded=1;whiteSpace=wrap;html=1;fontSize=8;labelBackgroundColor=none;fillColor=#e1d5e7;strokeColor=#9673a6;align=left;fontColor=#000000;fontStyle=0;" parent="1" vertex="1">
          <mxGeometry x="1040" y="590" width="131" height="10" as="geometry"/>
        </mxCell>
        <mxCell id="T2TZSGgnMwArEX4ejVak-248" value="" style="edgeStyle=segmentEdgeStyle;endArrow=classic;html=1;strokeColor=#080201;fontFamily=Lucida Console;fontSize=7;fontColor=#000000;align=left;exitX=0;exitY=0.75;exitDx=0;exitDy=0;entryX=1;entryY=0.5;entryDx=0;entryDy=0;" parent="1" target="T2TZSGgnMwArEX4ejVak-244" edge="1">
          <mxGeometry width="50" height="50" relative="1" as="geometry">
            <mxPoint x="1330.344827586207" y="415.3103448275863" as="sourcePoint"/>
            <mxPoint x="1170" y="570" as="targetPoint"/>
            <Array as="points">
              <mxPoint x="1230" y="415"/>
              <mxPoint x="1230" y="575"/>
            </Array>
          </mxGeometry>
        </mxCell>
        <mxCell id="T2TZSGgnMwArEX4ejVak-249" value="" style="edgeStyle=segmentEdgeStyle;endArrow=classic;html=1;strokeColor=#080201;fontFamily=Lucida Console;fontSize=7;fontColor=#000000;align=left;exitX=0;exitY=0.75;exitDx=0;exitDy=0;entryX=1;entryY=0.5;entryDx=0;entryDy=0;" parent="1" source="T2TZSGgnMwArEX4ejVak-198" target="T2TZSGgnMwArEX4ejVak-246" edge="1">
          <mxGeometry width="50" height="50" relative="1" as="geometry">
            <mxPoint x="1340.344827586207" y="415.3103448275863" as="sourcePoint"/>
            <mxPoint x="1181.0344827586207" y="575.3103448275863" as="targetPoint"/>
            <Array as="points">
              <mxPoint x="1240" y="415"/>
              <mxPoint x="1240" y="605"/>
            </Array>
          </mxGeometry>
        </mxCell>
        <mxCell id="T2TZSGgnMwArEX4ejVak-250" value="" style="edgeStyle=segmentEdgeStyle;endArrow=classic;html=1;strokeColor=#080201;fontFamily=Lucida Console;fontSize=7;fontColor=#000000;align=left;exitX=0;exitY=0.75;exitDx=0;exitDy=0;entryX=1;entryY=0.5;entryDx=0;entryDy=0;" parent="1" target="T2TZSGgnMwArEX4ejVak-251" edge="1">
          <mxGeometry width="50" height="50" relative="1" as="geometry">
            <mxPoint x="1330" y="415" as="sourcePoint"/>
            <mxPoint x="1240" y="620" as="targetPoint"/>
            <Array as="points">
              <mxPoint x="1250" y="415"/>
              <mxPoint x="1250" y="635"/>
            </Array>
          </mxGeometry>
        </mxCell>
        <mxCell id="T2TZSGgnMwArEX4ejVak-203" style="edgeStyle=orthogonalEdgeStyle;orthogonalLoop=1;jettySize=auto;html=1;exitX=0;exitY=0.5;exitDx=0;exitDy=0;strokeColor=#080201;fontFamily=Lucida Console;fontSize=8;fontColor=#000000;align=left;shadow=0;rounded=1;jumpStyle=arc;entryX=1;entryY=0.5;entryDx=0;entryDy=0;" parent="1" source="T2TZSGgnMwArEX4ejVak-204" target="T2TZSGgnMwArEX4ejVak-213" edge="1">
          <mxGeometry relative="1" as="geometry">
            <Array as="points">
              <mxPoint x="1270" y="510"/>
              <mxPoint x="1270" y="655"/>
            </Array>
            <mxPoint x="1230" y="650" as="targetPoint"/>
          </mxGeometry>
        </mxCell>
        <mxCell id="T2TZSGgnMwArEX4ejVak-251" value="&lt;div style=&quot;font-family: consolas, &amp;quot;courier new&amp;quot;, monospace; font-size: 8px; line-height: 19px; white-space: pre;&quot;&gt;&lt;span style=&quot;font-size: 8px;&quot;&gt;Method: &lt;/span&gt;&lt;span style=&quot;font-family: consolas, &amp;quot;courier new&amp;quot;, monospace; font-size: 8px;&quot;&gt;updatePasswordUIMS&lt;/span&gt;&lt;/div&gt;" style="rounded=0;whiteSpace=wrap;html=1;fontSize=8;labelBackgroundColor=none;fillColor=#d5e8d4;strokeColor=#82b366;gradientColor=#97d077;align=left;fontColor=#000000;fontStyle=0;" parent="1" vertex="1">
          <mxGeometry x="1040" y="630" width="131" height="10" as="geometry"/>
        </mxCell>
        <mxCell id="T2TZSGgnMwArEX4ejVak-252" value="&lt;div style=&quot;font-family: consolas, &amp;quot;courier new&amp;quot;, monospace; font-size: 8px; line-height: 19px; white-space: pre;&quot;&gt;&lt;div style=&quot;font-family: consolas, &amp;quot;courier new&amp;quot;, monospace; font-size: 8px; line-height: 19px;&quot;&gt;&lt;div style=&quot;font-family: consolas, &amp;quot;courier new&amp;quot;, monospace; font-size: 8px; line-height: 19px;&quot;&gt;&lt;div style=&quot;font-family: consolas, &amp;quot;courier new&amp;quot;, monospace; font-size: 8px; line-height: 19px;&quot;&gt;&lt;div style=&quot;font-family: consolas, &amp;quot;courier new&amp;quot;, monospace; font-size: 8px; line-height: 19px;&quot;&gt;&lt;span style=&quot;font-size: 8px;&quot;&gt;IDMSUIMSWebServiceCalls&lt;/span&gt;&lt;/div&gt;&lt;/div&gt;&lt;/div&gt;&lt;/div&gt;&lt;/div&gt;" style="rounded=1;whiteSpace=wrap;html=1;fontSize=8;labelBackgroundColor=none;fillColor=#e1d5e7;strokeColor=#9673a6;align=left;fontColor=#000000;fontStyle=0;" parent="1" vertex="1">
          <mxGeometry x="1040" y="620" width="131" height="10" as="geometry"/>
        </mxCell>
        <mxCell id="T2TZSGgnMwArEX4ejVak-256" value="" style="edgeStyle=elbowEdgeStyle;elbow=horizontal;endArrow=classic;html=1;strokeColor=#080201;fontSize=13;fontColor=#000000;entryX=0;entryY=0.5;entryDx=0;entryDy=0;" parent="1" target="T2TZSGgnMwArEX4ejVak-257" edge="1">
          <mxGeometry width="50" height="50" relative="1" as="geometry">
            <mxPoint x="609" y="340" as="sourcePoint"/>
            <mxPoint x="780" y="430" as="targetPoint"/>
            <Array as="points">
              <mxPoint x="740" y="420"/>
              <mxPoint x="630" y="390"/>
              <mxPoint x="650" y="420"/>
              <mxPoint x="630" y="240"/>
            </Array>
          </mxGeometry>
        </mxCell>
        <mxCell id="T2TZSGgnMwArEX4ejVak-77" value="&lt;span style=&quot;font-family: consolas, &amp;quot;courier new&amp;quot;, monospace; white-space: pre; font-size: 7px;&quot;&gt;Method:&lt;/span&gt;&lt;span style=&quot;font-family: consolas, &amp;quot;courier new&amp;quot;, monospace; font-size: 7px; white-space: pre;&quot;&gt;validateEmail&lt;/span&gt;" style="rounded=0;whiteSpace=wrap;html=1;fontSize=7;labelBackgroundColor=none;fillColor=#d5e8d4;strokeColor=#82b366;gradientColor=#97d077;align=left;fontColor=#000000;fontStyle=0;direction=east;" parent="1" vertex="1">
          <mxGeometry x="770" y="641" width="130" height="10" as="geometry"/>
        </mxCell>
        <mxCell id="T2TZSGgnMwArEX4ejVak-79" value="&lt;div style=&quot;font-family: consolas, &amp;quot;courier new&amp;quot;, monospace; font-size: 7px; line-height: 19px; white-space: pre;&quot;&gt;&lt;div style=&quot;font-family: consolas, &amp;quot;courier new&amp;quot;, monospace; font-size: 7px; line-height: 19px;&quot;&gt;&lt;span style=&quot;font-size: 7px;&quot;&gt;AP_IDMS_RegistrationUtility&lt;/span&gt;&lt;/div&gt;&lt;/div&gt;" style="rounded=1;whiteSpace=wrap;html=1;fontSize=7;labelBackgroundColor=none;fillColor=#e1d5e7;strokeColor=#9673a6;align=left;fontColor=#000000;fontStyle=0;direction=east;" parent="1" vertex="1">
          <mxGeometry x="770" y="632" width="130" height="10" as="geometry"/>
        </mxCell>
        <mxCell id="T2TZSGgnMwArEX4ejVak-80" value="&lt;div style=&quot;font-family: consolas, &amp;quot;courier new&amp;quot;, monospace; line-height: 19px; white-space: pre; font-size: 7px;&quot;&gt;&lt;font style=&quot;font-size: 7px;&quot;&gt;IDMS_ApplicationBrandingMatrix__mdt&lt;/font&gt;&lt;/div&gt;" style="shape=cube;whiteSpace=wrap;html=1;boundedLbl=1;backgroundOutline=1;darkOpacity=0.05;darkOpacity2=0.1;rounded=1;labelBackgroundColor=none;fontSize=7;align=left;size=6;gradientColor=#97d077;fillColor=#d5e8d4;strokeColor=#82b366;fontStyle=0;direction=east;" parent="1" vertex="1">
          <mxGeometry x="760" y="670" width="150" height="13" as="geometry"/>
        </mxCell>
        <mxCell id="T2TZSGgnMwArEX4ejVak-83" value="&lt;span style=&quot;font-family: consolas, &amp;quot;courier new&amp;quot;, monospace; white-space: pre; font-size: 7px;&quot;&gt;Method:&lt;/span&gt;&lt;span style=&quot;font-family: consolas, &amp;quot;courier new&amp;quot;, monospace; font-size: 7px; white-space: pre;&quot;&gt;updateUser&lt;/span&gt;" style="rounded=0;whiteSpace=wrap;html=1;fontSize=7;labelBackgroundColor=none;fillColor=#d5e8d4;strokeColor=#82b366;gradientColor=#97d077;align=left;fontColor=#000000;fontStyle=0;direction=east;" parent="1" vertex="1">
          <mxGeometry x="770" y="613" width="130" height="10" as="geometry"/>
        </mxCell>
        <mxCell id="T2TZSGgnMwArEX4ejVak-84" value="&lt;div style=&quot;font-family: consolas, &amp;quot;courier new&amp;quot;, monospace; font-size: 7px; line-height: 19px; white-space: pre;&quot;&gt;&lt;div style=&quot;font-family: consolas, &amp;quot;courier new&amp;quot;, monospace; font-size: 7px; line-height: 19px;&quot;&gt;&lt;div style=&quot;font-family: consolas, &amp;quot;courier new&amp;quot;, monospace; line-height: 19px; font-size: 7px;&quot;&gt;&lt;div style=&quot;font-family: consolas, &amp;quot;courier new&amp;quot;, monospace; line-height: 19px; font-size: 7px;&quot;&gt;&lt;span style=&quot;font-size: 7px;&quot;&gt;IDMSUpdateUser&lt;/span&gt;&lt;/div&gt;&lt;/div&gt;&lt;/div&gt;&lt;/div&gt;" style="rounded=1;whiteSpace=wrap;html=1;fontSize=7;labelBackgroundColor=none;fillColor=#e1d5e7;strokeColor=#9673a6;align=left;fontColor=#000000;fontStyle=0;direction=east;" parent="1" vertex="1">
          <mxGeometry x="770" y="604" width="130" height="10" as="geometry"/>
        </mxCell>
        <mxCell id="T2TZSGgnMwArEX4ejVak-85" value="&lt;div style=&quot;font-family: consolas, &amp;quot;courier new&amp;quot;, monospace; font-size: 9px; line-height: 19px; white-space: pre;&quot;&gt;&lt;div style=&quot;font-family: consolas, &amp;quot;courier new&amp;quot;, monospace; font-size: 9px; line-height: 19px;&quot;&gt;&lt;div style=&quot;font-family: consolas, &amp;quot;courier new&amp;quot;, monospace; line-height: 19px; font-size: 9px;&quot;&gt;&lt;div style=&quot;font-family: consolas, &amp;quot;courier new&amp;quot;, monospace; line-height: 19px; font-size: 9px;&quot;&gt;&lt;div style=&quot;font-family: consolas, &amp;quot;courier new&amp;quot;, monospace; font-size: 9px; line-height: 19px;&quot;&gt;&lt;span style=&quot;font-size: 9px;&quot;&gt;IDMSResponseWrapper&lt;/span&gt;&lt;/div&gt;&lt;/div&gt;&lt;/div&gt;&lt;/div&gt;&lt;/div&gt;" style="rounded=1;whiteSpace=wrap;html=1;fontSize=9;labelBackgroundColor=none;fillColor=#e1d5e7;strokeColor=#9673a6;align=left;fontColor=#000000;fontStyle=0;direction=east;" parent="1" vertex="1">
          <mxGeometry x="770" y="585" width="130" height="10" as="geometry"/>
        </mxCell>
        <mxCell id="T2TZSGgnMwArEX4ejVak-87" value="" style="endArrow=classic;html=1;fontSize=7;fontColor=#000000;exitX=1;exitY=0.5;exitDx=0;exitDy=0;entryX=1;entryY=0.75;entryDx=0;entryDy=0;curved=1;strokeColor=#FF3E17;align=left;fontStyle=0;" parent="1" source="T2TZSGgnMwArEX4ejVak-85" target="T2TZSGgnMwArEX4ejVak-83" edge="1">
          <mxGeometry width="50" height="50" relative="1" as="geometry">
            <mxPoint x="810" y="455" as="sourcePoint"/>
            <mxPoint x="1000" y="560" as="targetPoint"/>
            <Array as="points">
              <mxPoint x="920" y="550"/>
            </Array>
          </mxGeometry>
        </mxCell>
        <mxCell id="T2TZSGgnMwArEX4ejVak-137" value="&lt;div style=&quot;font-family: consolas, &amp;quot;courier new&amp;quot;, monospace; font-size: 8px; line-height: 19px; white-space: pre;&quot;&gt;&lt;span style=&quot;font-size: 8px;&quot;&gt;Method: &lt;/span&gt;&lt;span style=&quot;font-family: consolas, &amp;quot;courier new&amp;quot;, monospace; font-size: 8px;&quot;&gt;getIDMSLanguageCode&lt;/span&gt;&lt;/div&gt;" style="rounded=0;whiteSpace=wrap;html=1;fontSize=8;labelBackgroundColor=none;fillColor=#d5e8d4;strokeColor=#82b366;gradientColor=#97d077;align=left;fontColor=#000000;fontStyle=0;direction=east;" parent="1" vertex="1">
          <mxGeometry x="770" y="399" width="130" height="10" as="geometry"/>
        </mxCell>
        <mxCell id="T2TZSGgnMwArEX4ejVak-138" value="&lt;div style=&quot;font-family: consolas, &amp;quot;courier new&amp;quot;, monospace; font-size: 8px; line-height: 19px; white-space: pre;&quot;&gt;&lt;div style=&quot;font-family: consolas, &amp;quot;courier new&amp;quot;, monospace; font-size: 8px; line-height: 19px;&quot;&gt;&lt;div style=&quot;font-family: consolas, &amp;quot;courier new&amp;quot;, monospace; font-size: 8px; line-height: 19px;&quot;&gt;&lt;div style=&quot;font-family: consolas, &amp;quot;courier new&amp;quot;, monospace; line-height: 19px; font-size: 8px;&quot;&gt;&lt;div style=&quot;font-family: consolas, &amp;quot;courier new&amp;quot;, monospace; font-size: 8px; line-height: 19px;&quot;&gt;&lt;span style=&quot;font-size: 8px;&quot;&gt;IDMS_LanguageMatrixImpl&lt;/span&gt;&lt;/div&gt;&lt;/div&gt;&lt;/div&gt;&lt;/div&gt;&lt;/div&gt;" style="rounded=1;whiteSpace=wrap;html=1;fontSize=8;labelBackgroundColor=none;fillColor=#e1d5e7;strokeColor=#9673a6;align=left;fontColor=#000000;fontStyle=0;direction=east;" parent="1" vertex="1">
          <mxGeometry x="770" y="390" width="130" height="10" as="geometry"/>
        </mxCell>
        <mxCell id="T2TZSGgnMwArEX4ejVak-254" value="&lt;span style=&quot;&quot;&gt;&lt;span style=&quot;font-family: &amp;quot;consolas&amp;quot; , &amp;quot;courier new&amp;quot; , monospace ; white-space: pre ; font-size: 9px&quot;&gt;Method:&lt;/span&gt;&lt;span style=&quot;font-family: &amp;quot;consolas&amp;quot; , &amp;quot;courier new&amp;quot; , monospace ; white-space: pre ; font-size: 9px&quot;&gt;validateUserData&lt;/span&gt;&lt;/span&gt;" style="rounded=0;whiteSpace=wrap;html=1;fontSize=9;labelBackgroundColor=none;fillColor=#d5e8d4;strokeColor=#82b366;gradientColor=#97d077;align=left;fontColor=#000000;fontStyle=0;direction=east;" parent="1" vertex="1">
          <mxGeometry x="770" y="427" width="130" height="10" as="geometry"/>
        </mxCell>
        <mxCell id="T2TZSGgnMwArEX4ejVak-255" value="&lt;div style=&quot;font-family: consolas, &amp;quot;courier new&amp;quot;, monospace; font-size: 9px; line-height: 19px; white-space: pre;&quot;&gt;&lt;div style=&quot;font-family: consolas, &amp;quot;courier new&amp;quot;, monospace; font-size: 9px; line-height: 19px;&quot;&gt;&lt;div style=&quot;font-family: consolas, &amp;quot;courier new&amp;quot;, monospace; line-height: 19px; font-size: 9px;&quot;&gt;&lt;span style=&quot;font-size: 9px;&quot;&gt;AP_IDMS_UserProfileHelper&lt;/span&gt;&lt;/div&gt;&lt;/div&gt;&lt;/div&gt;" style="rounded=1;whiteSpace=wrap;html=1;fontSize=9;labelBackgroundColor=none;fillColor=#e1d5e7;strokeColor=#9673a6;align=left;fontColor=#000000;fontStyle=0;direction=east;" parent="1" vertex="1">
          <mxGeometry x="770" y="418" width="130" height="10" as="geometry"/>
        </mxCell>
        <mxCell id="T2TZSGgnMwArEX4ejVak-257" value="&lt;span style=&quot;font-family: consolas, &amp;quot;courier new&amp;quot;, monospace; white-space: pre; font-size: 9px;&quot;&gt;Method:&lt;/span&gt;&lt;span style=&quot;font-family: consolas, &amp;quot;courier new&amp;quot;, monospace; font-size: 9px; white-space: pre;&quot;&gt;mapCurrentUser&lt;/span&gt;" style="rounded=0;whiteSpace=wrap;html=1;fontSize=9;labelBackgroundColor=none;fillColor=#d5e8d4;strokeColor=#82b366;gradientColor=#97d077;align=left;fontColor=#000000;fontStyle=0;spacing=2;direction=east;" parent="1" vertex="1">
          <mxGeometry x="770" y="436" width="130" height="10" as="geometry"/>
        </mxCell>
        <mxCell id="T2TZSGgnMwArEX4ejVak-262" value="&lt;div style=&quot;font-family: &amp;quot;consolas&amp;quot; , &amp;quot;courier new&amp;quot; , monospace ; font-size: 9px ; line-height: 19px ; white-space: pre&quot;&gt;&lt;span style=&quot;font-size: 9px;&quot;&gt;Method: addCreateUrl&lt;/span&gt;&lt;/div&gt;" style="rounded=0;whiteSpace=wrap;html=1;fontSize=9;labelBackgroundColor=none;fillColor=#d5e8d4;strokeColor=#82b366;gradientColor=#97d077;align=left;fontColor=#000000;fontStyle=0;" parent="1" vertex="1">
          <mxGeometry x="770" y="460" width="131" height="10" as="geometry"/>
        </mxCell>
        <mxCell id="T2TZSGgnMwArEX4ejVak-263" value="&lt;div style=&quot;font-family: consolas, &amp;quot;courier new&amp;quot;, monospace; font-size: 9px; line-height: 19px; white-space: pre;&quot;&gt;&lt;div style=&quot;font-family: consolas, &amp;quot;courier new&amp;quot;, monospace; font-size: 9px; line-height: 19px;&quot;&gt;&lt;div style=&quot;font-family: consolas, &amp;quot;courier new&amp;quot;, monospace; font-size: 9px; line-height: 19px;&quot;&gt;&lt;span style=&quot;font-size: 9px;&quot;&gt;IdmsCreateUrl&lt;/span&gt;&lt;/div&gt;&lt;/div&gt;&lt;/div&gt;" style="rounded=1;whiteSpace=wrap;html=1;fontSize=9;labelBackgroundColor=none;fillColor=#e1d5e7;strokeColor=#9673a6;align=left;fontColor=#000000;fontStyle=0;" parent="1" vertex="1">
          <mxGeometry x="770" y="450" width="131" height="10" as="geometry"/>
        </mxCell>
        <mxCell id="T2TZSGgnMwArEX4ejVak-266" value="&lt;div style=&quot;font-family: consolas, &amp;quot;courier new&amp;quot;, monospace; font-size: 9px; line-height: 19px; white-space: pre;&quot;&gt;&lt;span style=&quot;font-size: 9px;&quot;&gt;Method: &lt;/span&gt;&lt;span style=&quot;font-family: consolas, &amp;quot;courier new&amp;quot;, monospace; font-size: 9px;&quot;&gt;supmethod&lt;/span&gt;&lt;/div&gt;" style="rounded=0;whiteSpace=wrap;html=1;fontSize=9;labelBackgroundColor=none;fillColor=#d5e8d4;strokeColor=#82b366;gradientColor=#97d077;align=left;fontColor=#000000;fontStyle=0;" parent="1" vertex="1">
          <mxGeometry x="770" y="490" width="131" height="10" as="geometry"/>
        </mxCell>
        <mxCell id="T2TZSGgnMwArEX4ejVak-267" value="&lt;div style=&quot;font-family: consolas, &amp;quot;courier new&amp;quot;, monospace; font-size: 9px; line-height: 19px; white-space: pre;&quot;&gt;&lt;div style=&quot;font-family: consolas, &amp;quot;courier new&amp;quot;, monospace; font-size: 9px; line-height: 19px;&quot;&gt;&lt;div style=&quot;font-family: consolas, &amp;quot;courier new&amp;quot;, monospace; font-size: 9px; line-height: 19px;&quot;&gt;&lt;div style=&quot;font-family: consolas, &amp;quot;courier new&amp;quot;, monospace; font-size: 9px; line-height: 19px;&quot;&gt;&lt;span style=&quot;font-size: 9px;&quot;&gt;VFC_IDMSSelfHelp&lt;/span&gt;&lt;/div&gt;&lt;/div&gt;&lt;/div&gt;&lt;/div&gt;" style="rounded=1;whiteSpace=wrap;html=1;fontSize=9;labelBackgroundColor=none;fillColor=#e1d5e7;strokeColor=#9673a6;align=left;fontColor=#000000;fontStyle=0;" parent="1" vertex="1">
          <mxGeometry x="770" y="480" width="131" height="10" as="geometry"/>
        </mxCell>
        <mxCell id="T2TZSGgnMwArEX4ejVak-268" value="" style="edgeStyle=elbowEdgeStyle;elbow=horizontal;endArrow=classic;html=1;strokeColor=#080201;fontSize=13;fontColor=#000000;entryX=0;entryY=0.5;entryDx=0;entryDy=0;" parent="1" target="T2TZSGgnMwArEX4ejVak-262" edge="1">
          <mxGeometry width="50" height="50" relative="1" as="geometry">
            <mxPoint x="610" y="340" as="sourcePoint"/>
            <mxPoint x="780" y="451" as="targetPoint"/>
            <Array as="points">
              <mxPoint x="730" y="430"/>
              <mxPoint x="750" y="430"/>
              <mxPoint x="640" y="400"/>
              <mxPoint x="660" y="430"/>
              <mxPoint x="640" y="250"/>
            </Array>
          </mxGeometry>
        </mxCell>
        <mxCell id="T2TZSGgnMwArEX4ejVak-269" value="" style="edgeStyle=elbowEdgeStyle;elbow=horizontal;endArrow=classic;html=1;strokeColor=#080201;fontSize=13;fontColor=#000000;entryX=0;entryY=0.5;entryDx=0;entryDy=0;" parent="1" target="T2TZSGgnMwArEX4ejVak-266" edge="1">
          <mxGeometry width="50" height="50" relative="1" as="geometry">
            <mxPoint x="600" y="340" as="sourcePoint"/>
            <mxPoint x="770" y="491" as="targetPoint"/>
            <Array as="points">
              <mxPoint x="720" y="400"/>
              <mxPoint x="720" y="440"/>
              <mxPoint x="630" y="440"/>
              <mxPoint x="650" y="470"/>
              <mxPoint x="630" y="290"/>
            </Array>
          </mxGeometry>
        </mxCell>
        <mxCell id="T2TZSGgnMwArEX4ejVak-270" value="&lt;div style=&quot;font-family: &amp;quot;consolas&amp;quot; , &amp;quot;courier new&amp;quot; , monospace ; font-size: 8px ; line-height: 19px ; white-space: pre&quot;&gt;&lt;span style=&quot;&quot;&gt;&lt;span style=&quot;font-size: 8px&quot;&gt;Method: &lt;/span&gt;&lt;span style=&quot;font-family: &amp;quot;consolas&amp;quot; , &amp;quot;courier new&amp;quot; , monospace ; font-size: 8px&quot;&gt;checkIDMSMode&lt;/span&gt;&lt;/span&gt;&lt;/div&gt;" style="rounded=0;whiteSpace=wrap;html=1;fontSize=8;labelBackgroundColor=none;fillColor=#d5e8d4;strokeColor=#82b366;gradientColor=#97d077;align=left;fontColor=#000000;fontStyle=0;" parent="1" vertex="1">
          <mxGeometry x="770" y="520" width="131" height="10" as="geometry"/>
        </mxCell>
        <mxCell id="T2TZSGgnMwArEX4ejVak-271" value="&lt;div style=&quot;font-family: consolas, &amp;quot;courier new&amp;quot;, monospace; font-size: 8px; line-height: 19px; white-space: pre;&quot;&gt;&lt;div style=&quot;font-family: consolas, &amp;quot;courier new&amp;quot;, monospace; font-size: 8px; line-height: 19px;&quot;&gt;&lt;div style=&quot;font-family: consolas, &amp;quot;courier new&amp;quot;, monospace; font-size: 8px; line-height: 19px;&quot;&gt;&lt;div style=&quot;font-family: consolas, &amp;quot;courier new&amp;quot;, monospace; line-height: 19px; font-size: 8px;&quot;&gt;&lt;div style=&quot;font-family: consolas, &amp;quot;courier new&amp;quot;, monospace; font-size: 8px; line-height: 19px;&quot;&gt;&lt;div style=&quot;font-family: consolas, &amp;quot;courier new&amp;quot;, monospace; font-size: 8px; line-height: 19px;&quot;&gt;&lt;span style=&quot;font-size: 8px;&quot;&gt;AP_IDMS_Util&lt;/span&gt;&lt;/div&gt;&lt;/div&gt;&lt;/div&gt;&lt;/div&gt;&lt;/div&gt;&lt;/div&gt;" style="rounded=1;whiteSpace=wrap;html=1;fontSize=8;labelBackgroundColor=none;fillColor=#e1d5e7;strokeColor=#9673a6;align=left;fontColor=#000000;fontStyle=0;" parent="1" vertex="1">
          <mxGeometry x="770" y="510" width="131" height="10" as="geometry"/>
        </mxCell>
        <mxCell id="T2TZSGgnMwArEX4ejVak-272" value="&lt;div style=&quot;font-family: &amp;quot;consolas&amp;quot; , &amp;quot;courier new&amp;quot; , monospace ; font-size: 4px ; line-height: 19px ; white-space: pre&quot;&gt;&lt;span style=&quot;&quot;&gt;&lt;span style=&quot;font-size: 4px&quot;&gt;Method: &lt;/span&gt;&lt;span style=&quot;font-family: &amp;quot;consolas&amp;quot; , &amp;quot;courier new&amp;quot; , monospace ; font-size: 4px&quot;&gt;allowProcessingDuringMaintenance&lt;/span&gt;&lt;/span&gt;&lt;/div&gt;" style="rounded=0;whiteSpace=wrap;html=1;fontSize=4;labelBackgroundColor=none;fillColor=#d5e8d4;strokeColor=#82b366;gradientColor=#97d077;align=left;fontColor=#000000;fontStyle=0;" parent="1" vertex="1">
          <mxGeometry x="770" y="530" width="131" height="10" as="geometry"/>
        </mxCell>
        <mxCell id="T2TZSGgnMwArEX4ejVak-273" value="&lt;div style=&quot;font-family: consolas, &amp;quot;courier new&amp;quot;, monospace; font-size: 8px; line-height: 19px; white-space: pre;&quot;&gt;&lt;span style=&quot;font-size: 8px;&quot;&gt;Method: &lt;/span&gt;&lt;span style=&quot;font-family: consolas, &amp;quot;courier new&amp;quot;, monospace; font-size: 8px;&quot;&gt;IDMScreateLogFuture&lt;/span&gt;&lt;/div&gt;" style="rounded=0;whiteSpace=wrap;html=1;fontSize=8;labelBackgroundColor=none;fillColor=#d5e8d4;strokeColor=#82b366;gradientColor=#97d077;align=left;fontColor=#000000;fontStyle=0;" parent="1" vertex="1">
          <mxGeometry x="770" y="560" width="131" height="10" as="geometry"/>
        </mxCell>
        <mxCell id="T2TZSGgnMwArEX4ejVak-274" value="&lt;div style=&quot;font-family: consolas, &amp;quot;courier new&amp;quot;, monospace; font-size: 8px; line-height: 19px; white-space: pre;&quot;&gt;&lt;div style=&quot;font-family: consolas, &amp;quot;courier new&amp;quot;, monospace; font-size: 8px; line-height: 19px;&quot;&gt;&lt;div style=&quot;font-family: consolas, &amp;quot;courier new&amp;quot;, monospace; font-size: 8px; line-height: 19px;&quot;&gt;&lt;div style=&quot;font-family: consolas, &amp;quot;courier new&amp;quot;, monospace; font-size: 8px; line-height: 19px;&quot;&gt;&lt;span style=&quot;font-size: 8px;&quot;&gt;IDMSCaptureError&lt;/span&gt;&lt;/div&gt;&lt;/div&gt;&lt;/div&gt;&lt;/div&gt;" style="rounded=1;whiteSpace=wrap;html=1;fontSize=8;labelBackgroundColor=none;fillColor=#e1d5e7;strokeColor=#9673a6;align=left;fontColor=#000000;fontStyle=0;" parent="1" vertex="1">
          <mxGeometry x="770" y="550" width="131" height="10" as="geometry"/>
        </mxCell>
        <mxCell id="T2TZSGgnMwArEX4ejVak-276" style="edgeStyle=orthogonalEdgeStyle;rounded=1;jumpStyle=arc;orthogonalLoop=1;jettySize=auto;html=1;entryX=0;entryY=0.75;entryDx=0;entryDy=0;shadow=0;strokeColor=#000000;fontFamily=Lucida Console;fontSize=9;fontColor=#000000;align=left;" parent="1" edge="1">
          <mxGeometry relative="1" as="geometry">
            <mxPoint x="600" y="360" as="sourcePoint"/>
            <mxPoint x="770" y="557" as="targetPoint"/>
            <Array as="points">
              <mxPoint x="600" y="360"/>
              <mxPoint x="700" y="360"/>
              <mxPoint x="700" y="557"/>
            </Array>
          </mxGeometry>
        </mxCell>
        <mxCell id="T2TZSGgnMwArEX4ejVak-278" value="&lt;div style=&quot;font-family: consolas, &amp;quot;courier new&amp;quot;, monospace; line-height: 19px; white-space: pre; font-size: 7px;&quot;&gt;&lt;font style=&quot;font-size: 7px;&quot;&gt;IDMS_ApplicationBrandingMatrix__mdt&lt;/font&gt;&lt;/div&gt;" style="shape=cube;whiteSpace=wrap;html=1;boundedLbl=1;backgroundOutline=1;darkOpacity=0.05;darkOpacity2=0.1;rounded=1;labelBackgroundColor=none;fontSize=7;align=left;size=6;gradientColor=#97d077;fillColor=#d5e8d4;strokeColor=#82b366;fontStyle=0;direction=east;" parent="1" vertex="1">
          <mxGeometry x="1030" y="770" width="150" height="13" as="geometry"/>
        </mxCell>
        <mxCell id="T2TZSGgnMwArEX4ejVak-280" value="&lt;font face=&quot;consolas, courier new, monospace&quot; style=&quot;font-size: 7px;&quot;&gt;&lt;span style=&quot;white-space: pre; font-size: 7px;&quot;&gt;Action: &lt;/span&gt;&lt;/font&gt;&lt;span style=&quot;font-family: consolas, &amp;quot;courier new&amp;quot;, monospace; font-size: 7px; font-weight: normal; white-space: pre;&quot;&gt;userWorkInfoInJavascript&lt;/span&gt;" style="rounded=0;whiteSpace=wrap;html=1;fontSize=7;labelBackgroundColor=none;fillColor=#d5e8d4;strokeColor=#82b366;gradientColor=#97d077;align=left;fontColor=#000000;fontStyle=1;" parent="1" vertex="1">
          <mxGeometry x="910" y="950" width="130" height="20" as="geometry"/>
        </mxCell>
        <mxCell id="T2TZSGgnMwArEX4ejVak-281" value="&lt;div style=&quot;font-family: consolas, &amp;quot;courier new&amp;quot;, monospace; font-size: 9px; line-height: 19px; white-space: pre;&quot;&gt;&lt;div style=&quot;font-family: consolas, &amp;quot;courier new&amp;quot;, monospace; font-size: 9px; line-height: 19px;&quot;&gt;&lt;div style=&quot;font-family: consolas, &amp;quot;courier new&amp;quot;, monospace; line-height: 19px; font-size: 9px;&quot;&gt;&lt;div style=&quot;font-family: consolas, &amp;quot;courier new&amp;quot;, monospace; line-height: 19px; font-size: 9px;&quot;&gt;&lt;div style=&quot;font-family: consolas, &amp;quot;courier new&amp;quot;, monospace; font-weight: normal; font-size: 9px; line-height: 19px;&quot;&gt;&lt;div style=&quot;font-family: consolas, &amp;quot;courier new&amp;quot;, monospace; line-height: 19px; font-size: 9px;&quot;&gt;&lt;span style=&quot;font-size: 9px;&quot;&gt;ProfileValidationWork.page&lt;/span&gt;&lt;/div&gt;&lt;/div&gt;&lt;/div&gt;&lt;/div&gt;&lt;/div&gt;&lt;/div&gt;" style="rounded=1;whiteSpace=wrap;html=1;fontSize=9;labelBackgroundColor=none;fillColor=#e1d5e7;strokeColor=#9673a6;align=left;fontColor=#000000;fontStyle=1;" parent="1" vertex="1">
          <mxGeometry x="910" y="930" width="130" height="20" as="geometry"/>
        </mxCell>
        <mxCell id="T2TZSGgnMwArEX4ejVak-283" value="&lt;font face=&quot;consolas, courier new, monospace&quot; style=&quot;font-size: 9px;&quot;&gt;&lt;span style=&quot;white-space: pre; font-size: 9px;&quot;&gt;Script: &lt;/span&gt;&lt;/font&gt;&lt;span style=&quot;font-family: consolas, &amp;quot;courier new&amp;quot;, monospace; font-size: 9px; font-weight: normal; white-space: pre;&quot;&gt;ConfirmProcess&lt;/span&gt;" style="rounded=0;whiteSpace=wrap;html=1;fontSize=9;labelBackgroundColor=none;fillColor=#d5e8d4;strokeColor=#82b366;gradientColor=#97d077;align=left;fontColor=#000000;fontStyle=1;" parent="1" vertex="1">
          <mxGeometry x="910" y="970" width="130" height="20" as="geometry"/>
        </mxCell>
        <mxCell id="T2TZSGgnMwArEX4ejVak-284" value="" style="endArrow=classic;startArrow=classic;html=1;strokeColor=#080201;fontFamily=Lucida Console;fontSize=9;fontColor=#000000;exitX=0;exitY=0.5;exitDx=0;exitDy=0;entryX=0;entryY=0.5;entryDx=0;entryDy=0;labelBackgroundColor=none;" parent="1" source="T2TZSGgnMwArEX4ejVak-283" target="T2TZSGgnMwArEX4ejVak-280" edge="1">
          <mxGeometry width="50" height="50" relative="1" as="geometry">
            <mxPoint x="840" y="980" as="sourcePoint"/>
            <mxPoint x="840" y="960" as="targetPoint"/>
            <Array as="points">
              <mxPoint x="870" y="980"/>
              <mxPoint x="870" y="960"/>
            </Array>
          </mxGeometry>
        </mxCell>
        <mxCell id="T2TZSGgnMwArEX4ejVak-285" value="&lt;div style=&quot;font-family: consolas, &amp;quot;courier new&amp;quot;, monospace; font-size: 8px; line-height: 19px; white-space: pre;&quot;&gt;&lt;div style=&quot;font-family: consolas, &amp;quot;courier new&amp;quot;, monospace; font-size: 8px; line-height: 19px;&quot;&gt;&lt;span style=&quot;font-size: 8px;&quot;&gt;VFC_IDMSUserProfileVal&lt;/span&gt;&lt;/div&gt;&lt;/div&gt;" style="rounded=1;whiteSpace=wrap;html=1;fontSize=8;labelBackgroundColor=none;fillColor=#e1d5e7;strokeColor=#9673a6;align=left;fontColor=#000000;" parent="1" vertex="1">
          <mxGeometry x="1110" y="980" width="120" height="20" as="geometry"/>
        </mxCell>
        <mxCell id="T2TZSGgnMwArEX4ejVak-319" style="edgeStyle=orthogonalEdgeStyle;rounded=1;jumpStyle=arc;orthogonalLoop=1;jettySize=auto;html=1;exitX=0;exitY=0.5;exitDx=0;exitDy=0;entryX=1;entryY=0.75;entryDx=0;entryDy=0;shadow=0;labelBackgroundColor=none;strokeColor=#000000;fontFamily=Lucida Console;fontSize=7;fontColor=#FF4F0F;align=left;" parent="1" source="T2TZSGgnMwArEX4ejVak-286" target="T2TZSGgnMwArEX4ejVak-294" edge="1">
          <mxGeometry relative="1" as="geometry">
            <Array as="points">
              <mxPoint x="1080" y="1050"/>
              <mxPoint x="1080" y="1118"/>
            </Array>
          </mxGeometry>
        </mxCell>
        <mxCell id="T2TZSGgnMwArEX4ejVak-320" style="edgeStyle=orthogonalEdgeStyle;rounded=1;jumpStyle=arc;orthogonalLoop=1;jettySize=auto;html=1;exitX=0;exitY=0.5;exitDx=0;exitDy=0;entryX=1;entryY=0.5;entryDx=0;entryDy=0;shadow=0;labelBackgroundColor=none;strokeColor=#000000;fontFamily=Lucida Console;fontSize=7;fontColor=#FF4F0F;align=left;" parent="1" source="T2TZSGgnMwArEX4ejVak-286" target="T2TZSGgnMwArEX4ejVak-299" edge="1">
          <mxGeometry relative="1" as="geometry">
            <Array as="points">
              <mxPoint x="1090" y="1050"/>
              <mxPoint x="1090" y="1168"/>
            </Array>
          </mxGeometry>
        </mxCell>
        <mxCell id="T2TZSGgnMwArEX4ejVak-321" style="edgeStyle=orthogonalEdgeStyle;rounded=1;jumpStyle=arc;orthogonalLoop=1;jettySize=auto;html=1;exitX=0;exitY=0.5;exitDx=0;exitDy=0;entryX=1;entryY=0.5;entryDx=0;entryDy=0;shadow=0;labelBackgroundColor=none;strokeColor=#000000;fontFamily=Lucida Console;fontSize=7;fontColor=#FF4F0F;align=left;" parent="1" source="T2TZSGgnMwArEX4ejVak-286" target="T2TZSGgnMwArEX4ejVak-303" edge="1">
          <mxGeometry relative="1" as="geometry">
            <Array as="points">
              <mxPoint x="1100" y="1050"/>
              <mxPoint x="1100" y="1198"/>
            </Array>
          </mxGeometry>
        </mxCell>
        <mxCell id="T2TZSGgnMwArEX4ejVak-286" value="&lt;div style=&quot;font-family: consolas, &amp;quot;courier new&amp;quot;, monospace; font-size: 8px; line-height: 19px; white-space: pre;&quot;&gt;&lt;span style=&quot;font-size: 8px;&quot;&gt;Method: &lt;/span&gt;&lt;span style=&quot;font-family: consolas, &amp;quot;courier new&amp;quot;, monospace; font-size: 8px;&quot;&gt;save&lt;/span&gt;&lt;/div&gt;" style="rounded=0;whiteSpace=wrap;html=1;fontSize=8;labelBackgroundColor=none;fillColor=#d5e8d4;strokeColor=#82b366;gradientColor=#97d077;align=left;fontColor=#000000;" parent="1" vertex="1">
          <mxGeometry x="1110" y="1040" width="120" height="20" as="geometry"/>
        </mxCell>
        <mxCell id="T2TZSGgnMwArEX4ejVak-317" style="edgeStyle=orthogonalEdgeStyle;rounded=1;jumpStyle=arc;orthogonalLoop=1;jettySize=auto;html=1;exitX=0;exitY=0.5;exitDx=0;exitDy=0;entryX=1;entryY=0.5;entryDx=0;entryDy=0;shadow=0;labelBackgroundColor=none;strokeColor=#000000;fontFamily=Lucida Console;fontSize=7;fontColor=#FF4F0F;align=left;" parent="1" source="T2TZSGgnMwArEX4ejVak-287" target="T2TZSGgnMwArEX4ejVak-290" edge="1">
          <mxGeometry relative="1" as="geometry">
            <Array as="points">
              <mxPoint x="1070" y="1010"/>
              <mxPoint x="1070" y="1055"/>
            </Array>
          </mxGeometry>
        </mxCell>
        <mxCell id="T2TZSGgnMwArEX4ejVak-287" value="&lt;font style=&quot;font-size: 7px;&quot;&gt;&lt;span style=&quot;font-family: consolas, &amp;quot;courier new&amp;quot;, monospace; white-space: pre; font-size: 7px;&quot;&gt;&lt;font style=&quot;font-size: 7px;&quot;&gt;Method: &lt;/font&gt;&lt;/span&gt;&lt;/font&gt;&lt;span style=&quot;font-family: consolas, &amp;quot;courier new&amp;quot;, monospace; font-size: 7px; white-space: pre;&quot;&gt;VFC_IDMSUserProfileVal&lt;/span&gt;" style="rounded=0;whiteSpace=wrap;html=1;fontSize=7;labelBackgroundColor=none;fillColor=#f8cecc;strokeColor=#b85450;gradientColor=#ea6b66;align=left;fontColor=#000000;" parent="1" vertex="1">
          <mxGeometry x="1110" y="1000" width="120" height="20" as="geometry"/>
        </mxCell>
        <mxCell id="T2TZSGgnMwArEX4ejVak-318" style="edgeStyle=orthogonalEdgeStyle;rounded=1;jumpStyle=arc;orthogonalLoop=1;jettySize=auto;html=1;exitX=0;exitY=0.5;exitDx=0;exitDy=0;entryX=1;entryY=0.5;entryDx=0;entryDy=0;shadow=0;labelBackgroundColor=none;strokeColor=#000000;fontFamily=Lucida Console;fontSize=7;fontColor=#FF4F0F;align=left;" parent="1" source="T2TZSGgnMwArEX4ejVak-288" target="T2TZSGgnMwArEX4ejVak-292" edge="1">
          <mxGeometry relative="1" as="geometry"/>
        </mxCell>
        <mxCell id="T2TZSGgnMwArEX4ejVak-288" value="&lt;span style=&quot;font-family: consolas, &amp;quot;courier new&amp;quot;, monospace; white-space: pre; font-size: 8px;&quot;&gt;Method: &lt;/span&gt;&lt;span style=&quot;font-family: consolas, &amp;quot;courier new&amp;quot;, monospace; font-size: 8px; white-space: pre;&quot;&gt;pageError&lt;/span&gt;" style="rounded=0;whiteSpace=wrap;html=1;fontSize=8;labelBackgroundColor=none;fillColor=#d5e8d4;strokeColor=#82b366;gradientColor=#97d077;align=left;fontColor=#000000;" parent="1" vertex="1">
          <mxGeometry x="1110" y="1020" width="120" height="20" as="geometry"/>
        </mxCell>
        <mxCell id="T2TZSGgnMwArEX4ejVak-290" value="&lt;div style=&quot;font-family: consolas, &amp;quot;courier new&amp;quot;, monospace; font-size: 8px; line-height: 19px; white-space: pre;&quot;&gt;&lt;span style=&quot;font-size: 8px;&quot;&gt;Method: &lt;/span&gt;&lt;span style=&quot;font-family: consolas, &amp;quot;courier new&amp;quot;, monospace; font-size: 8px; font-weight: normal;&quot;&gt;getIDMSLanguageCode&lt;/span&gt;&lt;/div&gt;" style="rounded=0;whiteSpace=wrap;html=1;fontSize=8;labelBackgroundColor=none;fillColor=#d5e8d4;strokeColor=#82b366;gradientColor=#97d077;align=left;fontColor=#000000;fontStyle=1;direction=east;" parent="1" vertex="1">
          <mxGeometry x="910" y="1050" width="130" height="10" as="geometry"/>
        </mxCell>
        <mxCell id="T2TZSGgnMwArEX4ejVak-291" value="&lt;div style=&quot;font-family: consolas, &amp;quot;courier new&amp;quot;, monospace; font-size: 8px; line-height: 19px; white-space: pre;&quot;&gt;&lt;div style=&quot;font-family: consolas, &amp;quot;courier new&amp;quot;, monospace; font-size: 8px; line-height: 19px;&quot;&gt;&lt;div style=&quot;font-family: consolas, &amp;quot;courier new&amp;quot;, monospace; font-size: 8px; line-height: 19px;&quot;&gt;&lt;div style=&quot;font-family: consolas, &amp;quot;courier new&amp;quot;, monospace; line-height: 19px; font-size: 8px;&quot;&gt;&lt;div style=&quot;font-family: consolas, &amp;quot;courier new&amp;quot;, monospace; font-weight: normal; font-size: 8px; line-height: 19px;&quot;&gt;&lt;span style=&quot;font-size: 8px;&quot;&gt;IDMS_LanguageMatrixImpl&lt;/span&gt;&lt;/div&gt;&lt;/div&gt;&lt;/div&gt;&lt;/div&gt;&lt;/div&gt;" style="rounded=1;whiteSpace=wrap;html=1;fontSize=8;labelBackgroundColor=none;fillColor=#e1d5e7;strokeColor=#9673a6;align=left;fontColor=#000000;fontStyle=1;direction=east;" parent="1" vertex="1">
          <mxGeometry x="910" y="1041" width="130" height="10" as="geometry"/>
        </mxCell>
        <mxCell id="T2TZSGgnMwArEX4ejVak-292" value="&lt;div style=&quot;font-family: consolas, &amp;quot;courier new&amp;quot;, monospace; font-size: 8px; line-height: 19px; white-space: pre;&quot;&gt;&lt;span style=&quot;font-size: 8px;&quot;&gt;Method: &lt;/span&gt;&lt;span style=&quot;font-family: consolas, &amp;quot;courier new&amp;quot;, monospace; font-size: 8px; font-weight: normal;&quot;&gt;IDMScreateLogFuture&lt;/span&gt;&lt;/div&gt;" style="rounded=0;whiteSpace=wrap;html=1;fontSize=8;labelBackgroundColor=none;fillColor=#d5e8d4;strokeColor=#82b366;gradientColor=#97d077;align=left;fontColor=#000000;fontStyle=1;" parent="1" vertex="1">
          <mxGeometry x="910" y="1081" width="131" height="10" as="geometry"/>
        </mxCell>
        <mxCell id="T2TZSGgnMwArEX4ejVak-293" value="&lt;div style=&quot;font-family: consolas, &amp;quot;courier new&amp;quot;, monospace; font-size: 8px; line-height: 19px; white-space: pre;&quot;&gt;&lt;div style=&quot;font-family: consolas, &amp;quot;courier new&amp;quot;, monospace; font-size: 8px; line-height: 19px;&quot;&gt;&lt;div style=&quot;font-family: consolas, &amp;quot;courier new&amp;quot;, monospace; font-size: 8px; line-height: 19px;&quot;&gt;&lt;div style=&quot;font-family: consolas, &amp;quot;courier new&amp;quot;, monospace; font-weight: normal; font-size: 8px; line-height: 19px;&quot;&gt;&lt;span style=&quot;font-size: 8px;&quot;&gt;IDMSCaptureError&lt;/span&gt;&lt;/div&gt;&lt;/div&gt;&lt;/div&gt;&lt;/div&gt;" style="rounded=1;whiteSpace=wrap;html=1;fontSize=8;labelBackgroundColor=none;fillColor=#e1d5e7;strokeColor=#9673a6;align=left;fontColor=#000000;fontStyle=1;" parent="1" vertex="1">
          <mxGeometry x="910" y="1071" width="131" height="10" as="geometry"/>
        </mxCell>
        <mxCell id="T2TZSGgnMwArEX4ejVak-294" value="&lt;span style=&quot;font-family: consolas, &amp;quot;courier new&amp;quot;, monospace; white-space: pre; font-size: 7px;&quot;&gt;Method: &lt;/span&gt;&lt;span style=&quot;font-family: consolas, &amp;quot;courier new&amp;quot;, monospace; font-size: 7px; font-weight: normal; white-space: pre;&quot;&gt;splitFullName&lt;/span&gt;" style="rounded=0;whiteSpace=wrap;html=1;fontSize=7;labelBackgroundColor=none;fillColor=#d5e8d4;strokeColor=#82b366;gradientColor=#97d077;align=left;fontColor=#000000;fontStyle=1;direction=east;" parent="1" vertex="1">
          <mxGeometry x="910" y="1111" width="130" height="10" as="geometry"/>
        </mxCell>
        <mxCell id="T2TZSGgnMwArEX4ejVak-295" value="&lt;div style=&quot;font-family: consolas, &amp;quot;courier new&amp;quot;, monospace; font-size: 7px; line-height: 19px; white-space: pre;&quot;&gt;&lt;div style=&quot;font-family: consolas, &amp;quot;courier new&amp;quot;, monospace; font-size: 7px; line-height: 19px;&quot;&gt;&lt;span style=&quot;font-size: 7px;&quot;&gt;AP_IDMS_RegistrationUtility&lt;/span&gt;&lt;/div&gt;&lt;/div&gt;" style="rounded=1;whiteSpace=wrap;html=1;fontSize=7;labelBackgroundColor=none;fillColor=#e1d5e7;strokeColor=#9673a6;align=left;fontColor=#000000;fontStyle=1;direction=east;" parent="1" vertex="1">
          <mxGeometry x="910" y="1102" width="130" height="10" as="geometry"/>
        </mxCell>
        <mxCell id="T2TZSGgnMwArEX4ejVak-299" value="&lt;span style=&quot;font-family: consolas, &amp;quot;courier new&amp;quot;, monospace; white-space: pre; font-size: 7px;&quot;&gt;Method:&lt;/span&gt;&lt;span style=&quot;font-family: consolas, &amp;quot;courier new&amp;quot;, monospace; font-size: 7px; white-space: pre;&quot;&gt;updateUser&lt;/span&gt;" style="rounded=0;whiteSpace=wrap;html=1;fontSize=7;labelBackgroundColor=none;fillColor=#d5e8d4;strokeColor=#82b366;gradientColor=#97d077;align=left;fontColor=#000000;fontStyle=1;direction=east;" parent="1" vertex="1">
          <mxGeometry x="910" y="1163" width="130" height="10" as="geometry"/>
        </mxCell>
        <mxCell id="T2TZSGgnMwArEX4ejVak-300" value="&lt;div style=&quot;font-family: consolas, &amp;quot;courier new&amp;quot;, monospace; font-size: 7px; line-height: 19px; white-space: pre;&quot;&gt;&lt;div style=&quot;font-family: consolas, &amp;quot;courier new&amp;quot;, monospace; font-size: 7px; line-height: 19px;&quot;&gt;&lt;div style=&quot;font-family: consolas, &amp;quot;courier new&amp;quot;, monospace; line-height: 19px; font-size: 7px;&quot;&gt;&lt;div style=&quot;font-family: consolas, &amp;quot;courier new&amp;quot;, monospace; line-height: 19px; font-size: 7px;&quot;&gt;&lt;span style=&quot;font-size: 7px;&quot;&gt;IDMSUpdateUser&lt;/span&gt;&lt;/div&gt;&lt;/div&gt;&lt;/div&gt;&lt;/div&gt;" style="rounded=1;whiteSpace=wrap;html=1;fontSize=7;labelBackgroundColor=none;fillColor=#e1d5e7;strokeColor=#9673a6;align=left;fontColor=#000000;fontStyle=1;direction=east;" parent="1" vertex="1">
          <mxGeometry x="910" y="1154" width="130" height="10" as="geometry"/>
        </mxCell>
        <mxCell id="T2TZSGgnMwArEX4ejVak-301" value="&lt;div style=&quot;font-family: consolas, &amp;quot;courier new&amp;quot;, monospace; font-size: 7px; line-height: 19px; white-space: pre;&quot;&gt;&lt;div style=&quot;font-family: consolas, &amp;quot;courier new&amp;quot;, monospace; font-size: 7px; line-height: 19px;&quot;&gt;&lt;div style=&quot;font-family: consolas, &amp;quot;courier new&amp;quot;, monospace; line-height: 19px; font-size: 7px;&quot;&gt;&lt;div style=&quot;font-family: consolas, &amp;quot;courier new&amp;quot;, monospace; line-height: 19px; font-size: 7px;&quot;&gt;&lt;div style=&quot;font-family: consolas, &amp;quot;courier new&amp;quot;, monospace; font-size: 7px; line-height: 19px;&quot;&gt;&lt;span style=&quot;font-size: 7px;&quot;&gt;IDMSResponseWrapper&lt;/span&gt;&lt;/div&gt;&lt;/div&gt;&lt;/div&gt;&lt;/div&gt;&lt;/div&gt;" style="rounded=1;whiteSpace=wrap;html=1;fontSize=7;labelBackgroundColor=none;fillColor=#e1d5e7;strokeColor=#9673a6;align=left;fontColor=#000000;fontStyle=1;direction=east;" parent="1" vertex="1">
          <mxGeometry x="910" y="1135" width="130" height="10" as="geometry"/>
        </mxCell>
        <mxCell id="T2TZSGgnMwArEX4ejVak-303" value="&lt;span style=&quot;font-family: consolas, &amp;quot;courier new&amp;quot;, monospace; white-space: pre; font-size: 7px;&quot;&gt;Method: &lt;/span&gt;&lt;span style=&quot;font-family: consolas, &amp;quot;courier new&amp;quot;, monospace; font-size: 7px; font-weight: normal; white-space: pre;&quot;&gt;associateAccountContact&lt;/span&gt;" style="rounded=0;whiteSpace=wrap;html=1;fontSize=7;labelBackgroundColor=none;fillColor=#d5e8d4;strokeColor=#82b366;gradientColor=#97d077;align=left;fontColor=#000000;fontStyle=1;direction=east;" parent="1" vertex="1">
          <mxGeometry x="910" y="1193" width="130" height="10" as="geometry"/>
        </mxCell>
        <mxCell id="T2TZSGgnMwArEX4ejVak-304" value="&lt;div style=&quot;font-family: consolas, &amp;quot;courier new&amp;quot;, monospace; font-size: 7px; line-height: 19px; white-space: pre;&quot;&gt;&lt;div style=&quot;font-family: consolas, &amp;quot;courier new&amp;quot;, monospace; font-size: 7px; line-height: 19px;&quot;&gt;&lt;div style=&quot;font-family: consolas, &amp;quot;courier new&amp;quot;, monospace; line-height: 19px; font-size: 7px;&quot;&gt;&lt;div style=&quot;font-family: consolas, &amp;quot;courier new&amp;quot;, monospace; line-height: 19px; font-size: 7px;&quot;&gt;&lt;span style=&quot;font-family: &amp;quot;lucida console&amp;quot;; font-weight: 400; white-space: nowrap; font-size: 7px;&quot;&gt;AP_IDMS_ContactlessUtility&lt;/span&gt;&lt;br style=&quot;font-size: 7px;&quot;&gt;&lt;/div&gt;&lt;/div&gt;&lt;/div&gt;&lt;/div&gt;" style="rounded=1;whiteSpace=wrap;html=1;fontSize=7;labelBackgroundColor=none;fillColor=#e1d5e7;strokeColor=#9673a6;align=left;fontColor=#000000;fontStyle=1;direction=east;" parent="1" vertex="1">
          <mxGeometry x="910" y="1184" width="130" height="10" as="geometry"/>
        </mxCell>
        <mxCell id="T2TZSGgnMwArEX4ejVak-313" value="" style="endArrow=classic;startArrow=classic;html=1;shadow=0;labelBackgroundColor=none;strokeColor=#b85450;fontFamily=Lucida Console;fontSize=7;fontColor=#FF4F0F;align=left;gradientColor=#ea6b66;fillColor=#f8cecc;" parent="1" edge="1">
          <mxGeometry width="50" height="50" relative="1" as="geometry">
            <mxPoint x="1230" y="1050" as="sourcePoint"/>
            <mxPoint x="1040" y="960" as="targetPoint"/>
            <Array as="points">
              <mxPoint x="1290" y="1050"/>
              <mxPoint x="1290" y="960"/>
            </Array>
          </mxGeometry>
        </mxCell>
        <mxCell id="puL9l7eoW7YJyn_PVjeL-1" value="&lt;b style=&quot;background-color: rgb(13 , 13 , 13)&quot;&gt;&lt;font color=&quot;#fcfcfc&quot;&gt;PROFILE PAGE&lt;/font&gt;&lt;/b&gt;" style="text;html=1;strokeColor=none;fillColor=none;align=center;verticalAlign=middle;whiteSpace=wrap;rounded=0;" parent="1" vertex="1">
          <mxGeometry x="630" y="170" width="140" height="20" as="geometry"/>
        </mxCell>
        <mxCell id="puL9l7eoW7YJyn_PVjeL-2" value="&lt;span style=&quot;background-color: rgb(8 , 2 , 1)&quot;&gt;&lt;font color=&quot;#fafafa&quot;&gt;&lt;b&gt;CHANGE PASSWORD&lt;/b&gt;&lt;/font&gt;&lt;/span&gt;" style="text;html=1;strokeColor=none;fillColor=none;align=center;verticalAlign=middle;whiteSpace=wrap;rounded=0;" parent="1" vertex="1">
          <mxGeometry x="1170" y="170" width="140" height="20" as="geometry"/>
        </mxCell>
        <mxCell id="puL9l7eoW7YJyn_PVjeL-9" style="edgeStyle=orthogonalEdgeStyle;rounded=0;orthogonalLoop=1;jettySize=auto;html=1;exitX=0.5;exitY=1;exitDx=0;exitDy=0;entryX=0.5;entryY=0;entryDx=0;entryDy=0;" parent="1" source="puL9l7eoW7YJyn_PVjeL-3" target="puL9l7eoW7YJyn_PVjeL-8" edge="1">
          <mxGeometry relative="1" as="geometry"/>
        </mxCell>
        <mxCell id="X3VkcKzJ3lrv4iuU31CN-3" style="edgeStyle=orthogonalEdgeStyle;rounded=0;orthogonalLoop=1;jettySize=auto;html=1;exitX=0.5;exitY=1;exitDx=0;exitDy=0;entryX=0.5;entryY=0;entryDx=0;entryDy=0;" edge="1" parent="1" source="puL9l7eoW7YJyn_PVjeL-3" target="puL9l7eoW7YJyn_PVjeL-1">
          <mxGeometry relative="1" as="geometry"/>
        </mxCell>
        <mxCell id="X3VkcKzJ3lrv4iuU31CN-4" style="edgeStyle=orthogonalEdgeStyle;rounded=0;orthogonalLoop=1;jettySize=auto;html=1;exitX=0.5;exitY=1;exitDx=0;exitDy=0;entryX=0.5;entryY=0;entryDx=0;entryDy=0;" edge="1" parent="1" source="puL9l7eoW7YJyn_PVjeL-3" target="puL9l7eoW7YJyn_PVjeL-2">
          <mxGeometry relative="1" as="geometry"/>
        </mxCell>
        <mxCell id="puL9l7eoW7YJyn_PVjeL-3" value="&lt;b&gt;&lt;font face=&quot;Garamond&quot; color=&quot;#fcfcfc&quot; style=&quot;background-color: rgb(8 , 8 , 8)&quot;&gt;PROFILE PROGRESSION&lt;/font&gt;&lt;/b&gt;" style="text;html=1;strokeColor=none;fillColor=none;align=center;verticalAlign=middle;whiteSpace=wrap;rounded=0;" parent="1" vertex="1">
          <mxGeometry x="900" y="110" width="160" height="20" as="geometry"/>
        </mxCell>
        <mxCell id="puL9l7eoW7YJyn_PVjeL-8" value="&lt;font color=&quot;#fcfcfc&quot; face=&quot;Garamond&quot;&gt;&lt;span style=&quot;background-color: rgb(8 , 8 , 8)&quot;&gt;&lt;b&gt;B2C - B2B PROGRESSIVE PROFILING&lt;/b&gt;&lt;/span&gt;&lt;/font&gt;" style="text;html=1;strokeColor=none;fillColor=none;align=center;verticalAlign=middle;whiteSpace=wrap;rounded=0;" parent="1" vertex="1">
          <mxGeometry x="840" y="840" width="280" height="20" as="geometry"/>
        </mxCell>
        <mxCell id="X3VkcKzJ3lrv4iuU31CN-1" value="" style="endArrow=classic;startArrow=classic;html=1;strokeColor=#000000;fontFamily=Lucida Console;fontSize=7;fontColor=#000000;align=left;jumpStyle=gap;dashed=1;dashPattern=1 1;fontStyle=1" edge="1" parent="1" target="T2TZSGgnMwArEX4ejVak-73">
          <mxGeometry width="50" height="50" relative="1" as="geometry">
            <mxPoint x="480" y="440" as="sourcePoint"/>
            <mxPoint x="480" y="400" as="targetPoint"/>
            <Array as="points">
              <mxPoint x="440" y="440"/>
              <mxPoint x="440" y="410"/>
            </Array>
          </mxGeometry>
        </mxCell>
      </root>
    </mxGraphModel>
  </diagram>
</mxfile>
